<?xml version="1.0" encoding="UTF-8" standalone="no"?>
<svg
   xmlns:dc="http://purl.org/dc/elements/1.1/"
   xmlns:cc="http://creativecommons.org/ns#"
   xmlns:rdf="http://www.w3.org/1999/02/22-rdf-syntax-ns#"
   xmlns:svg="http://www.w3.org/2000/svg"
   xmlns="http://www.w3.org/2000/svg"
   xmlns:sodipodi="http://sodipodi.sourceforge.net/DTD/sodipodi-0.dtd"
   xmlns:inkscape="http://www.inkscape.org/namespaces/inkscape"
   width="606.47638"
   height="629.16675"
   version="1.1"
   id="svg35115"
   sodipodi:docname="canada.svg"
   inkscape:export-filename="/Users/bmonro/Downloads/Canada.png"
   inkscape:export-xdpi="96"
   inkscape:export-ydpi="96"
   inkscape:version="0.92.1 r">
  <metadata
     id="metadata35121">
    <rdf:RDF>
      <cc:Work
         rdf:about="">
        <dc:format>image/svg+xml</dc:format>
        <dc:type
           rdf:resource="http://purl.org/dc/dcmitype/StillImage" />
        <dc:title />
      </cc:Work>
    </rdf:RDF>
  </metadata>
  <defs
     id="defs35119">
    <clipPath
       clipPathUnits="userSpaceOnUse"
       id="clipPath21602">
      <path
         inkscape:connector-curvature="0"
         id="path21604"
         d="m 494,0 -204.96485,118.33683 -1.89921,232.28713 c 3.9e-4,-13.67524 1.3694,-27.31604 4.08654,-40.71864 -2.71714,13.4026 -4.08615,27.0434 -4.08654,40.71864 -7.8e-4,113.19929 91.76557,204.96564 204.96484,204.96485 113.19827,-6.3e-4 204.96304,-91.76659 204.96226,-204.96485 l 1.8992,-232.28713 z"
         style="opacity:1;fill:#000000;fill-opacity:1;stroke:none;stroke-width:20.14422417;stroke-miterlimit:4;stroke-dasharray:none;stroke-opacity:1" />
    </clipPath>
    <clipPath
       clipPathUnits="userSpaceOnUse"
       id="clipPath37520">
      <path
         inkscape:connector-curvature="0"
         id="path37522"
         d="M 502.06619,18.722775 54.510921,115.37854 50.363926,305.10723 c 8.51e-4,-11.16971 2.99006,-22.31131 8.923129,-33.25835 -5.933069,10.94704 -8.922278,22.08864 -8.923129,33.25835 -0.0017,92.45951 200.376444,167.41293 447.555064,167.41229 247.1765,-5.6e-4 447.55145,-74.95357 447.54975,-167.41229 l 4.14699,-189.72869 z"
         style="display:inline;opacity:1;fill:#782121;fill-opacity:1;stroke:#000000;stroke-width:5.26157045;stroke-miterlimit:4;stroke-dasharray:none;stroke-opacity:1"
         inkscape:export-xdpi="96"
         inkscape:export-ydpi="96" />
    </clipPath>
  </defs>
  <sodipodi:namedview
     pagecolor="#ffffff"
     bordercolor="#666666"
     borderopacity="1"
     objecttolerance="10"
     gridtolerance="10"
     guidetolerance="10"
     inkscape:pageopacity="0"
     inkscape:pageshadow="2"
     inkscape:window-width="1440"
     inkscape:window-height="855"
     id="namedview35117"
     showgrid="false"
     inkscape:zoom="0.57890608"
     inkscape:cx="444.13472"
     inkscape:cy="256.69551"
     inkscape:window-x="0"
     inkscape:window-y="23"
     inkscape:window-maximized="0"
     inkscape:current-layer="svg35115" />
  <path
     inkscape:connector-curvature="0"
     id="path13516"
     d="m 292.4587,265.24639 c -9.4722,-0.78373 -19.4893,-3.48655 -27.8483,-7.51394 -21.1961,-10.21251 -36.51,-28.26898 -42.9358,-50.62521 -3.7734,-13.12803 -3.9955,-29.27699 -0.5858,-42.58512 2.744,-10.70972 8.4276,-21.93804 15.662,-30.94142 4.5462,-5.6578 12.5268,-12.7447 18.9621,-16.83864 9.3387,-5.94098 20.0089,-9.9702 31.0926,-11.74098 5.1505,-0.82287 16.3248,-1.00426 21.9042,-0.35557 26.6004,3.09268 49.6698,18.90561 62.0728,42.5478 11.8757,22.63701 12.3066,49.88917 1.1524,72.88306 -12.2555,25.26422 -36.9767,42.47795 -64.6781,45.03643 -3.5136,0.32447 -11.6077,0.39761 -14.7981,0.13359 z m 10.0234,-12.07979 c 1.4506,-0.002 2.723,-0.78701 5.4994,-3.39061 l 1.3082,-1.22671 -0.218,-2.09869 c -0.12,-1.15429 -0.4363,-2.97652 -0.703,-4.04942 -0.6679,-2.68631 -0.37,-4.74641 1.5451,-10.68586 2.9904,-9.274 3.2252,-11.54108 1.6187,-15.62945 -1.1237,-2.8598 -1.0088,-6.83084 0.3225,-11.14013 0.5368,-1.73753 1.154,-4.0196 1.3716,-5.07127 0.2176,-1.05165 0.554,-1.9121 0.7474,-1.9121 0.1935,0 0.9258,0.51851 1.6272,1.15225 1.368,1.23583 3.8359,2.5886 5.4561,2.99067 0.5487,0.13622 3.656,0.58144 6.9052,0.98948 8.9966,1.12986 11.5632,0.51696 16.0486,-3.83225 3.9925,-3.87136 5.9637,-8.73475 5.9181,-14.6018 -0.042,-5.36982 -2.2056,-10.5015 -5.8414,-13.8527 -2.9357,-2.70588 -5.905,-3.55976 -14.2182,-4.08874 -4.9014,-0.31187 -6.098,-0.2938 -7.5853,0.1146 -1.4406,0.39566 -1.7965,0.40483 -1.9328,0.0497 -0.2825,-0.73617 0.6955,-2.55915 2.7868,-5.19466 2.4086,-3.03542 2.8079,-3.77906 4.13,-7.69161 0.8995,-2.66148 1.0046,-3.34666 0.8528,-5.55682 -0.2102,-3.06245 -1.4091,-6.20965 -3.0626,-8.03989 -1.9147,-2.11929 -1.4223,-3.73992 1.7075,-5.61996 2.7733,-1.66594 3.6024,-3.40176 3.6024,-7.54224 0,-3.43211 -0.4618,-4.46213 -2.4575,-5.48055 -0.594,-0.30315 -1.3316,-0.77275 -1.6391,-1.04355 -1.0301,-0.90736 -3.8172,-1.96478 -5.3089,-2.01425 -1.5571,-0.0516 -1.8739,0.20478 -2.1993,1.78001 -0.1085,0.52561 -0.8615,1.32053 -2.0473,2.16152 -2.5156,1.78397 -2.8071,2.0874 -2.818,2.9335 -0.01,0.39844 -0.4299,1.95134 -0.944,3.45084 -0.856,2.49698 -0.8976,2.83278 -0.4945,3.99051 0.6424,1.84489 0.5555,3.18715 -0.2632,4.06597 -1.1521,1.2366 -3.6658,2.68506 -4.6599,2.68506 -0.506,0 -1.7861,0.32028 -2.8446,0.71174 -2.4798,0.91709 -6.3622,4.79097 -7.7938,7.77679 -1.0264,2.14067 -4.0177,6.27421 -7.0928,9.80126 -2.4968,2.86368 -3.548,4.65749 -7.0154,11.97148 -1.6041,3.38361 -3.1704,6.52612 -3.4808,6.98337 -0.3103,0.45724 -0.8911,1.47713 -1.2906,2.26641 -0.3995,0.78929 -0.8923,1.37975 -1.0951,1.31213 -0.2028,-0.0676 -0.6187,-1.03583 -0.9241,-2.15161 -0.8963,-3.27425 -2.3174,-5.74718 -4.6521,-8.09542 -3.8369,-3.85913 -6.3497,-4.56829 -14.0831,-3.97452 -8.1173,0.62324 -10.3627,1.38984 -13.4343,4.58658 -5.2354,5.44878 -6.211,14.51603 -2.3428,21.77353 1.418,2.66055 4.9636,5.94531 7.4601,6.91128 1.7809,0.68909 2.4314,0.74706 7.7632,0.69196 3.2007,-0.0331 6.7174,-0.21819 7.8147,-0.41135 5.9425,-1.04603 10.792,-6.52453 11.8912,-13.43359 0.2181,-1.37063 0.5078,-2.49203 0.6439,-2.49203 0.136,0 0.8574,0.318 1.603,0.70665 1.9094,0.99525 2.9341,0.91101 4.0452,-0.33254 0.9099,-1.01837 0.9886,-1.03919 3.926,-1.03919 1.8533,0 2.9976,0.13194 2.9976,0.34579 0,0.19018 -0.3091,0.95167 -0.6869,1.69221 -0.3778,0.74054 -1.1551,3.31593 -1.7274,5.7231 -1.1382,4.78805 -1.3547,9.68121 -0.556,12.56745 0.2211,0.79911 0.4301,3.02416 0.4645,4.9446 0.034,1.92042 0.2429,4.82908 0.4634,6.46368 0.3124,2.31562 0.3128,3.38054 0,4.82184 -0.2405,1.11332 -0.419,5.09379 -0.4483,9.99713 -0.027,4.48099 -0.1638,8.46572 -0.3043,8.85494 -0.1406,0.38923 -0.6141,0.87102 -1.0522,1.07065 -0.4602,0.2097 -0.7236,0.55322 -0.6237,0.81354 0.2759,0.71909 -1.086,3.56015 -1.7067,3.56015 -0.4188,0 -0.4973,0.19679 -0.3354,0.84162 0.1559,0.62141 -0.051,1.2226 -0.7907,2.29777 -0.8193,1.19079 -1.2474,1.49763 -2.3496,1.68385 -0.8629,0.14577 -1.5253,0.49865 -1.8412,0.98078 -1.1336,1.73005 0.4913,2.42016 4.791,2.03482 2.0631,-0.18487 2.9864,-0.46874 4.8732,-1.49814 1.2803,-0.69853 2.8387,-1.38074 3.4632,-1.516 0.6244,-0.13525 2.0974,-0.6776 3.2732,-1.20518 2.1982,-0.98623 3.0736,-1.17665 3.0736,-0.66854 0,0.51307 -1.7089,3.36731 -2.016,3.36731 -0.1631,0 -0.5421,0.37485 -0.8423,0.83302 -1.0331,1.57674 0.3088,2.20663 4.1884,1.96607 1.1889,-0.0737 2.7814,-0.13512 3.5389,-0.13636 z m -4.2785,-9.2304 c -0.2807,-0.32006 -0.7606,-1.07598 -1.0666,-1.67981 -0.306,-0.60383 -0.7793,-1.18345 -1.0519,-1.28804 -0.2726,-0.10454 -0.8084,-0.80334 -1.1907,-1.55275 -0.597,-1.17013 -0.6679,-1.73965 -0.5025,-4.03262 0.2193,-3.03873 1.4143,-8.64711 2.0624,-9.67919 0.7389,-1.17657 1.4913,-4.17076 1.492,-5.93718 4e-4,-0.92703 -0.245,-3.02427 -0.5453,-4.66054 -0.4314,-2.35014 -0.4727,-3.36298 -0.1968,-4.82186 0.9649,-5.10207 1.8963,-4.86457 4.4944,1.14608 0.9775,2.26142 1.0086,2.4937 1.0903,8.14726 0.046,3.20071 0.2474,6.99004 0.447,8.42073 0.6381,4.57334 0.4684,8.08719 -0.5006,10.36786 -0.4662,1.09739 -1.0004,2.51901 -1.1869,3.15915 -0.3587,1.23046 -1.8011,2.99286 -2.4495,2.99286 -0.2118,0 -0.6147,-0.26187 -0.8953,-0.58195 z m -13.8922,-65.13283 c 0,-3.30743 0.6297,-4.40796 3.8785,-6.77925 2.5633,-1.87085 4.2175,-3.70068 5.8642,-6.48647 0.5116,-0.86561 0.9771,-1.51857 1.0344,-1.45104 0.057,0.0675 0.2013,0.7562 0.3198,1.53038 0.2107,1.37538 0.188,1.4191 -0.9903,1.91141 -1.0067,0.42065 -1.1727,0.62752 -1.0052,1.25277 0.1105,0.41188 0.2028,1.29858 0.2053,1.97042 0,0.80529 0.2813,1.55047 0.8169,2.18696 l 0.8123,0.96545 -0.7984,1.72341 c -0.8269,1.78482 -2.4307,4.2719 -3.3429,5.18414 -0.4026,0.40256 -1.2492,0.52373 -3.6592,0.52373 h -3.1354 z"
     style="display:none;fill:#ffffff;stroke:#000000;stroke-width:1.45788217;stroke-miterlimit:4;stroke-dasharray:none;stroke-opacity:1" />
  <g
     id="g4695"
     transform="translate(-1157.6,71.21496)">
    <path
       style="display:inline;opacity:1;fill:#000000;fill-rule:evenodd;stroke:none;stroke-width:1.37732792px;stroke-linecap:butt;stroke-linejoin:miter;stroke-opacity:1"
       d="m 1764.0764,277.63265 -109.4668,79.1672 V 223.62967 Z"
       id="path8204"
       inkscape:connector-curvature="0" />
    <path
       style="opacity:1;fill:#000000;fill-rule:evenodd;stroke:none;stroke-width:1.37732792px;stroke-linecap:butt;stroke-linejoin:miter;stroke-opacity:1"
       d="m 1158.9867,270.96849 c 61.3569,-61.35679 61.3569,-61.35679 61.3569,-61.35679 l 48.394,83.82095 z"
       id="path8202"
       inkscape:connector-curvature="0" />
    <path
       inkscape:connector-curvature="0"
       style="color:#000000;font-style:normal;font-variant:normal;font-weight:normal;font-stretch:normal;font-size:medium;line-height:normal;font-family:sans-serif;text-indent:0;text-align:start;text-decoration:none;text-decoration-line:none;text-decoration-style:solid;text-decoration-color:#000000;letter-spacing:normal;word-spacing:normal;text-transform:none;writing-mode:lr-tb;direction:ltr;baseline-shift:baseline;text-anchor:start;white-space:normal;clip-rule:nonzero;display:inline;overflow:visible;visibility:visible;opacity:1;isolation:auto;mix-blend-mode:normal;color-interpolation:sRGB;color-interpolation-filters:linearRGB;solid-color:#000000;solid-opacity:1;fill:#000000;fill-opacity:1;fill-rule:nonzero;stroke:none;stroke-width:27.54655838;stroke-linecap:butt;stroke-linejoin:miter;stroke-miterlimit:4;stroke-dasharray:none;stroke-dashoffset:0;stroke-opacity:1;color-rendering:auto;image-rendering:auto;shape-rendering:auto;text-rendering:auto;enable-background:accumulate"
       d="m 1457.9163,-71.214928 -6.8866,3.975953 -6.8866,3.975962 -223.8535,129.24286 -2.0767,254.176163 c -8e-4,0.16729 0,-0.37101 0,0.0372 v 0.0242 l -0.1103,13.63613 h 0.8017 c 7.1501,124.65038 110.6712,224.09911 237.0671,224.09822 131.0054,-7.2e-4 237.7568,-106.75309 237.7559,-237.75851 l 2.077,-254.062798 -237.8877,-137.345412 z"
       id="path8182" />
    <path
       inkscape:connector-curvature="0"
       style="color:#000000;font-style:normal;font-variant:normal;font-weight:normal;font-stretch:normal;font-size:medium;line-height:normal;font-family:sans-serif;text-indent:0;text-align:start;text-decoration:none;text-decoration-line:none;text-decoration-style:solid;text-decoration-color:#000000;letter-spacing:normal;word-spacing:normal;text-transform:none;writing-mode:lr-tb;direction:ltr;baseline-shift:baseline;text-anchor:start;white-space:normal;clip-rule:nonzero;display:inline;overflow:visible;visibility:visible;opacity:1;isolation:auto;mix-blend-mode:normal;color-interpolation:sRGB;color-interpolation-filters:linearRGB;solid-color:#000000;solid-opacity:1;fill:#ffffff;fill-opacity:1;fill-rule:nonzero;stroke:none;stroke-width:27.54655838;stroke-linecap:butt;stroke-linejoin:miter;stroke-miterlimit:4;stroke-dasharray:none;stroke-dashoffset:0;stroke-opacity:1;color-rendering:auto;image-rendering:auto;shape-rendering:auto;text-rendering:auto;enable-background:accumulate"
       d="m 1457.9163,-55.311099 -6.8866,3.975962 -217.0314,125.304558 -2.0122,246.111279 v 0 c -10e-5,0.038 -0.01,0.0752 -0.01,0.11297 -8e-4,123.54089 100.4444,223.98606 223.9853,223.98525 123.5398,-7.3e-4 223.9834,-100.44549 223.9826,-223.98525 l 2.0149,-246.148923 z"
       id="path8173" />
    <path
       inkscape:export-ydpi="96"
       inkscape:export-xdpi="96"
       style="display:inline;opacity:1;fill:#000000;fill-opacity:1;stroke:#000000;stroke-width:4.04069328;stroke-miterlimit:4;stroke-dasharray:none;stroke-opacity:1"
       d="m 1457.9176,-39.407116 -210.212,121.366264 -1.9478,238.233722 c 4e-4,-14.02533 1.4044,-28.01534 4.1911,-41.76105 -2.7867,13.74571 -4.1907,27.73572 -4.1911,41.76105 -8e-4,116.0972 94.1147,210.21278 210.2119,210.21197 116.0962,-6.4e-4 210.2102,-94.11583 210.2094,-210.21197 l 1.9478,-238.233722 z"
       id="path8151"
       inkscape:connector-curvature="0" />
    <path
       style="opacity:1;fill:#000000;fill-opacity:1;stroke:none;stroke-width:20.65991974;stroke-miterlimit:4;stroke-dasharray:none;stroke-opacity:1"
       d="m 1332.1379,231.06552 a 187.5691,224.47457 42.430655 0 1 0,-4.9e-4 187.5691,224.47457 42.430655 0 0 -13.9828,17.5219 187.5691,224.47457 42.430655 0 1 13.9802,-17.52141 z"
       id="path8149"
       inkscape:connector-curvature="0" />
    <path
       style="opacity:1;fill:#000000;fill-opacity:1;stroke:none;stroke-width:20.65991974;stroke-miterlimit:4;stroke-dasharray:none;stroke-opacity:1"
       d="m 1286.1033,306.63626 a 187.5691,224.47457 42.430655 0 0 -12.1079,41.31665 187.5691,224.47457 42.430655 0 1 12.1079,-41.31665 z"
       id="path8144"
       inkscape:connector-curvature="0" />
    <g
       clip-path="url(#clipPath37520)"
       transform="matrix(0.46968946,0,0,1.2556546,1222.1024,-62.916446)"
       id="g37518">
      <rect
         style="fill:#ff0000"
         y="0"
         x="0"
         width="1000"
         height="500"
         id="rect35109" />
      <rect
         style="fill:#ffffff"
         y="0"
         width="500"
         height="500"
         x="250"
         id="rect35111" />
    </g>
    <path
       style="color:#000000;font-style:normal;font-variant:normal;font-weight:normal;font-stretch:normal;font-size:medium;line-height:normal;font-family:sans-serif;text-indent:0;text-align:start;text-decoration:none;text-decoration-line:none;text-decoration-style:solid;text-decoration-color:#000000;letter-spacing:normal;word-spacing:normal;text-transform:none;writing-mode:lr-tb;direction:ltr;baseline-shift:baseline;text-anchor:start;white-space:normal;clip-rule:nonzero;display:inline;overflow:visible;visibility:visible;opacity:1;isolation:auto;mix-blend-mode:normal;color-interpolation:sRGB;color-interpolation-filters:linearRGB;solid-color:#000000;solid-opacity:1;fill:#000000;fill-opacity:1;fill-rule:nonzero;stroke:none;stroke-width:33.05587006;stroke-linecap:butt;stroke-linejoin:miter;stroke-miterlimit:4;stroke-dasharray:none;stroke-dashoffset:0;stroke-opacity:1;color-rendering:auto;image-rendering:auto;shape-rendering:auto;text-rendering:auto;enable-background:accumulate"
       d="m 1157.6,272.12583 v 16.13352 97.89072 L 1764.0764,277.07123 V 163.04705 Z"
       id="path8197"
       inkscape:connector-curvature="0" />
    <rect
       style="opacity:1;fill:#ffffff;fill-opacity:1;stroke:none;stroke-width:27.54655838;stroke-miterlimit:4;stroke-dasharray:none;stroke-opacity:1"
       id="rect8189"
       width="583.4212"
       height="81.758057"
       x="1192.5673"
       y="496.46063"
       transform="matrix(0.98420792,-0.17701632,0,1,0,0)" />
    <text
       transform="matrix(0.98523661,-0.18255173,0,1.0149846,0,0)"
       x="1202.3375"
       y="557.04688"
       xml:space="preserve"
       style="font-style:normal;font-variant:normal;font-weight:bold;font-stretch:normal;font-size:12.61279488px;line-height:0%;font-family:Aharoni;-inkscape-font-specification:'Aharoni, Bold';text-align:start;letter-spacing:0px;word-spacing:0px;writing-mode:lr-tb;text-anchor:start;opacity:1;fill:#000000;fill-opacity:1;stroke:none;stroke-width:1.0510664px;stroke-linecap:butt;stroke-linejoin:miter;stroke-opacity:1"
       id="text8185"><tspan
         style="font-size:48.27776337px;line-height:1.25;font-family:sans-serif;stroke-width:1.0510664px"
         sodipodi:role="line"
         id="tspan8187"
         x="1202.3375"
         y="557.04688">TRIFECTEH BARBELL</tspan></text>
    <g
       style="font-style:normal;font-weight:normal;font-size:35.39293289px;line-height:125%;font-family:sans-serif;letter-spacing:9.21000004px;word-spacing:0px;display:inline;opacity:1;fill:#000000;fill-opacity:1;stroke:none;stroke-width:1px;stroke-linecap:butt;stroke-linejoin:miter;stroke-opacity:1"
       id="text13433"
       transform="matrix(1.3773279,0,0,1.3773279,765.5239,-572.70234)">
      <path
         inkscape:connector-curvature="0"
         d="m 436.31693,735.62878 -24.37274,12.48454 -3.34347,-3.10426 10.64425,-25.23082 2.68491,2.49282 -9.48932,22.08195 21.31811,-11.09945 z"
         style="letter-spacing:9.21000004px;fill:#000000"
         id="path13443" />
      <path
         inkscape:connector-curvature="0"
         d="m 437.63492,766.33032 -8.74449,-5.17618 1.33807,-2.26048 2.89995,1.71659 10.4316,-17.62282 -2.89995,-1.71659 1.33806,-2.26048 8.74449,5.17618 -1.33807,2.26048 -2.89995,-1.71659 -10.4316,17.62282 2.89995,1.71659 z"
         style="letter-spacing:9.21000004px;fill:#000000"
         id="path13445" />
      <path
         inkscape:connector-curvature="0"
         d="m 471.27353,771.84199 q -0.47315,1.42711 -1.60797,2.59845 -1.11842,1.17677 -2.63676,1.74757 -1.66036,0.61475 -3.61133,0.62337 -1.93458,0.014 -4.39513,-0.80173 -2.64099,-0.8756 -4.5939,-2.06928 -1.93651,-1.18824 -3.79733,-2.87938 l 1.34875,-4.0681 0.22965,0.0761 q 1.3424,2.15649 3.49277,3.79798 2.15038,1.64148 4.28286,2.34849 3.01827,1.00069 5.0667,0.42356 2.06483,-0.57168 2.69026,-2.4581 0.53841,-1.62397 -0.01,-2.66143 -0.53176,-1.03202 -2.01432,-1.99692 -1.12151,-0.73596 -2.49433,-1.4278 -1.35641,-0.6864 -2.8552,-1.54745 -3.01951,-1.76578 -4.04497,-3.94464 -1.00362,-2.18983 -0.11714,-4.86363 1.017,-3.06748 4.25596,-4.16023 3.2444,-1.10916 7.23049,0.2124 2.57537,0.85385 4.56109,2.0584 1.98573,1.20456 3.4032,2.47561 l -1.27261,3.83845 -0.22965,-0.0761 q -1.00274,-1.64333 -3.02724,-3.17026 -2.00265,-1.53789 -4.38118,-2.32647 -2.60818,-0.86473 -4.55828,-0.30962 -1.93369,0.56054 -2.4993,2.26652 -0.50578,1.52554 -0.007,2.65599 0.49913,1.13044 2.33169,2.2478 0.9737,0.57772 2.80056,1.54753 1.82686,0.96982 3.05775,1.76026 2.48372,1.62455 3.37759,3.54131 0.89388,1.91676 0.0237,4.54135 z"
         style="letter-spacing:9.21000004px;fill:#000000"
         id="path13447" />
      <path
         inkscape:connector-curvature="0"
         d="m 503.63146,760.34113 -9.16297,-0.75308 -1.85865,22.61463 -3.41028,-0.28028 1.85865,-22.61463 -9.16297,-0.75309 0.24914,-3.03136 21.73622,1.78646 z"
         style="letter-spacing:9.21000004px;fill:#000000"
         id="path13449" />
      <path
         inkscape:connector-curvature="0"
         d="m 534.56059,779.07538 -3.60229,0.56569 -3.60519,-6.69366 -10.99468,1.72654 -1.37998,7.4765 -3.43157,0.53888 5.26133,-26.87402 4.50713,-0.70777 z m -8.70466,-8.86676 -6.41571,-11.78025 -2.5132,13.1824 z"
         style="letter-spacing:9.21000004px;fill:#000000"
         id="path13451" />
      <path
         inkscape:connector-curvature="0"
         d="m 551.35697,767.95234 -0.5501,12.31175 -2.3597,0.89332 -1.19543,-11.65095 z"
         style="letter-spacing:9.21000004px;fill:#000000"
         id="path13453" />
      <path
         inkscape:connector-curvature="0"
         d="m 583.00563,753.73556 q -0.57575,0.86255 -1.03407,1.5881 -0.44379,0.71622 -1.27609,1.72295 -0.70967,0.84586 -1.63534,1.70717 -0.90179,0.86651 -2.15243,1.66949 -2.35585,1.51259 -4.71014,2.1 -2.34908,0.56353 -4.67991,0.0679 -2.28308,-0.48517 -4.43156,-2.10415 -2.15781,-1.63353 -3.96918,-4.45473 -1.718,-2.67579 -2.31565,-5.26995 -0.59766,-2.59415 -0.10621,-4.9634 0.47584,-2.29762 1.94832,-4.29043 1.48703,-2.00214 3.87197,-3.5334 1.74508,-1.12043 3.74638,-1.8098 2.01585,-0.69871 4.82062,-1.00032 l 2.19419,3.41745 -0.21814,0.14005 q -2.75041,-0.34941 -4.94886,0.0969 -2.19846,0.44628 -4.2053,1.73478 -1.64328,1.05507 -2.62116,2.4428 -0.97268,1.36385 -1.28624,3.14653 -0.30315,1.73492 0.20345,3.77143 0.51181,2.01263 1.91235,4.19397 1.4659,2.28315 3.13175,3.53428 1.68039,1.24179 3.31765,1.64872 1.7089,0.42254 3.39746,0.0777 1.69377,-0.36869 3.20617,-1.33974 2.07955,-1.33518 3.43983,-3.21487 1.36028,-1.87969 2.03037,-4.32257 l 0.20359,-0.13071 2.16618,3.37381 z"
         style="letter-spacing:9.21000004px;fill:#000000"
         id="path13455" />
      <path
         inkscape:connector-curvature="0"
         d="m 608.56147,731.21252 -2.49215,2.66189 -6.95992,-3.05974 -7.60638,8.12446 3.51106,6.74351 -2.37404,2.53574 -12.38303,-24.42447 3.11815,-3.33053 z m -12.3172,-1.6362 -12.30474,-5.34127 6.1275,11.93925 z"
         style="letter-spacing:9.21000004px;fill:#000000"
         id="path13457" />
    </g>
    <g
       id="g13501"
       style="display:inline;opacity:1;fill:#000000"
       transform="matrix(0.13151453,0,0,0.13151453,1404.5995,346.11133)">
      <path
         style="fill:#000000;fill-opacity:1;fill-rule:nonzero;stroke:none"
         d="M 733.21972,-9.8409314 612.17479,111.20399 l -5.83983,-5.84472 -19.917,19.92187 12.73437,12.73438 -411.49901,411.49901 -12.73438,-12.73437 -19.92187,19.917 5.84472,5.83984 -121.044915,121.04495 22.9834,22.9834 121.044915,-121.04495 5.83984,5.84472 19.91699,-19.92187 -12.73438,-12.73438 411.49903,-411.49903 12.73437,12.73438 19.92188,-19.91699 -5.84473,-5.83984 121.04493,-121.044921 z m 0,0"
         id="path8425"
         inkscape:connector-curvature="0" />
      <path
         style="fill:#000000;fill-opacity:1;fill-rule:nonzero;stroke:none"
         d="m 756.20312,683.58195 -121.04493,-121.04496 5.84473,-5.83983 -19.92188,-19.917 -12.73437,12.73437 -411.49903,-411.49901 12.73438,-12.73438 -19.91699,-19.92187 -5.83984,5.84472 L 62.780275,-9.8409314 39.796875,13.142469 160.84179,134.18739 l -5.84472,5.83984 19.92187,19.91699 12.73438,-12.73438 411.49901,411.49903 -12.73437,12.73437 19.917,19.92188 5.83983,-5.84472 121.04493,121.04495 z m 0,0"
         id="path8427"
         inkscape:connector-curvature="0" />
    </g>
    <circle
       r="80.813866"
       cy="114.38226"
       cx="1457.0646"
       id="path22523"
       style="fill:#ffffff;fill-opacity:1;stroke:#000000;stroke-width:1.02552795;stroke-miterlimit:4;stroke-dasharray:none;stroke-opacity:1" />
    <path
       style="fill:#ff0000;stroke-width:0.33487827"
       inkscape:connector-curvature="0"
       id="path35113"
       d="m 1457.062,43.743867 -11.4236,21.306726 c -1.2963,2.315688 -3.6189,2.100906 -5.9414,0.807521 l -8.2704,-4.28262 6.1641,32.726697 c 1.2962,5.978979 -2.8627,5.978979 -4.9153,3.393773 l -14.4336,-16.158214 -2.3432,8.205527 c -0.2702,1.077557 -1.4584,2.20934 -3.2409,1.939814 l -18.2513,-3.837409 4.7939,17.428658 c 1.0261,3.87807 1.8267,5.48373 -1.0361,6.50656 l -6.5055,3.05751 31.4187,25.52053 c 1.2436,0.96497 1.872,2.70147 1.4292,4.27376 l -2.7497,9.02399 c 10.8179,-1.247 20.5108,-3.12306 31.3342,-4.27847 0.9555,-0.10198 2.5552,1.47482 2.5485,2.5821 l -1.4333,33.06034 h 5.2597 l -0.8278,-32.98943 c -0.011,-1.10728 1.4444,-2.75502 2.3999,-2.65301 10.8235,1.15541 20.5166,3.03147 31.3345,4.27847 l -2.7498,-9.02399 c -0.4428,-1.57229 0.1855,-3.30879 1.429,-4.27376 l 31.4187,-25.52053 -6.5053,-3.05751 c -2.8628,-1.02283 -2.0623,-2.62849 -1.036,-6.50656 l 4.7938,-17.428658 -18.2515,3.837409 c -1.7825,0.269526 -2.9705,-0.862257 -3.2407,-1.939814 l -2.3432,-8.205527 -14.4337,16.158214 c -2.0525,2.585206 -6.2115,2.585206 -4.9152,-3.393773 l 6.164,-32.726697 -8.2705,4.28262 c -2.3225,1.293385 -4.6449,1.508167 -5.9412,-0.807521" />
  </g>
</svg>
