<?xml version="1.0" encoding="UTF-8" standalone="no"?>
<svg
   xmlns:dc="http://purl.org/dc/elements/1.1/"
   xmlns:cc="http://creativecommons.org/ns#"
   xmlns:rdf="http://www.w3.org/1999/02/22-rdf-syntax-ns#"
   xmlns:svg="http://www.w3.org/2000/svg"
   xmlns="http://www.w3.org/2000/svg"
   xmlns:xlink="http://www.w3.org/1999/xlink"
   xmlns:sodipodi="http://sodipodi.sourceforge.net/DTD/sodipodi-0.dtd"
   xmlns:inkscape="http://www.inkscape.org/namespaces/inkscape"
   version="1.1"
   width="606.47638"
   height="629.16675"
   viewBox="0 0 202.15879 209.72225"
   id="svg8029"
   sodipodi:docname="israel.svg"
   inkscape:export-filename="/Users/bmonro/Downloads/trifecta-israel.png"
   inkscape:export-xdpi="96"
   inkscape:export-ydpi="96"
   inkscape:version="0.92.1 r">
  <metadata
     id="metadata8033">
    <rdf:RDF>
      <cc:Work
         rdf:about="">
        <dc:format>image/svg+xml</dc:format>
        <dc:type
           rdf:resource="http://purl.org/dc/dcmitype/StillImage" />
        <dc:title />
      </cc:Work>
    </rdf:RDF>
  </metadata>
  <sodipodi:namedview
     pagecolor="#ffffff"
     bordercolor="#666666"
     borderopacity="1"
     objecttolerance="10"
     gridtolerance="10"
     guidetolerance="10"
     inkscape:pageopacity="0"
     inkscape:pageshadow="2"
     inkscape:window-width="1440"
     inkscape:window-height="855"
     id="namedview8031"
     showgrid="false"
     inkscape:zoom="0.70710678"
     inkscape:cx="149.77861"
     inkscape:cy="185.20713"
     inkscape:window-x="0"
     inkscape:window-y="23"
     inkscape:window-maximized="0"
     inkscape:current-layer="svg8029" />
  <desc
     id="desc8014">Flag of Israel</desc>
  <defs
     id="defs8017">
    <!-- Specs are taken from "The Provisional Council of State Proclamation of
      the Flag of the State of Israel," 25 Tishrei 5709 (28 October 1948)
    For Magen David, the "Israel Science and Technology Homepage" at
      http://www.science.co.il/Israel-flag.asp specifies each side as 60 cm.
      Outer radius is then 30 / cos(30) = 20 * sqrt(3)
    For equilateral triangles, middle radius = outer radius - width:
      20 * sqrt(3) - 5.5
    Coordinates for upward-pointing triangle relative to center are then:
      (                            0,-(20*sqrt(3) - 5.5)          )
      (-(20*sqrt(3) - 5.5) * cos(30), (20*sqrt(3) - 5.5) * sin(30))
      ( (20*sqrt(3) - 5.5) * cos(30), (20*sqrt(3) - 5.5) * sin(30)) -->
    <polygon
       id="triangle"
       points="-25.23686,14.570508 25.23686,14.570508 0,-29.141016 "
       style="fill-opacity:0;stroke:#0038b8;stroke-width:5.5" />
    <clipPath
       clipPathUnits="userSpaceOnUse"
       id="clipPath21602">
      <path
         inkscape:connector-curvature="0"
         id="path21604"
         d="m 494,0 -204.96485,118.33683 -1.89921,232.28713 c 3.9e-4,-13.67524 1.3694,-27.31604 4.08654,-40.71864 -2.71714,13.4026 -4.08615,27.0434 -4.08654,40.71864 -7.8e-4,113.19929 91.76557,204.96564 204.96484,204.96485 113.19827,-6.3e-4 204.96304,-91.76659 204.96226,-204.96485 l 1.8992,-232.28713 z"
         style="opacity:1;fill:#000000;fill-opacity:1;stroke:none;stroke-width:20.14422417;stroke-miterlimit:4;stroke-dasharray:none;stroke-opacity:1" />
    </clipPath>
    <clipPath
       clipPathUnits="userSpaceOnUse"
       id="clipPath9429">
      <path
         inkscape:connector-curvature="0"
         id="path9431"
         d="m -77.64906,2.5254076 -70.07066,40.4554194 -0.64927,79.411233 c 1.3e-4,-4.67511 0.46815,-9.33845 1.39705,-13.92035 -0.9289,4.5819 -1.39692,9.24524 -1.39705,13.92035 -2.7e-4,38.69907 31.37159,70.07093 70.07065,70.07066 38.69872,-2.2e-4 70.0700397,-31.37194 70.0697697,-70.07066 l 0.64928,-79.411233 z"
         style="display:inline;opacity:1;fill:#000000;fill-opacity:1;stroke:#000000;stroke-width:1.34689772;stroke-miterlimit:4;stroke-dasharray:none;stroke-opacity:1"
         inkscape:export-xdpi="96"
         inkscape:export-ydpi="96" />
    </clipPath>
  </defs>
  <!-- "The flag is 220 cm long and 160 cm wide.  The background is white" -->
  <!-- "...two stripes of dark sky-blue, 25 cm broad, over the whole length of
    the flag, at a distance of 15 cm from the top and from the bottom..."
    Legislation does not specify exact shade of blue; "#0038b8" is typical of
    flags used in Israel -->
  <g
     id="g22597"
     transform="translate(-242.10309,-187.60348)">
    <path
       style="display:inline;opacity:1;fill:#000000;fill-rule:evenodd;stroke:none;stroke-width:0.45910931px;stroke-linecap:butt;stroke-linejoin:miter;stroke-opacity:1"
       d="m 444.26189,303.88608 -36.48895,26.38907 v -44.39006 z"
       id="path8204"
       inkscape:connector-curvature="0" />
    <path
       style="opacity:1;fill:#000000;fill-rule:evenodd;stroke:none;stroke-width:0.45910931px;stroke-linecap:butt;stroke-linejoin:miter;stroke-opacity:1"
       d="m 242.56534,301.6647 c 20.45228,-20.45227 20.45228,-20.45227 20.45228,-20.45227 l 16.13134,27.94032 z"
       id="path8202"
       inkscape:connector-curvature="0" />
    <path
       inkscape:connector-curvature="0"
       style="color:#000000;font-style:normal;font-variant:normal;font-weight:normal;font-stretch:normal;font-size:medium;line-height:normal;font-family:sans-serif;text-indent:0;text-align:start;text-decoration:none;text-decoration-line:none;text-decoration-style:solid;text-decoration-color:#000000;letter-spacing:normal;word-spacing:normal;text-transform:none;writing-mode:lr-tb;direction:ltr;baseline-shift:baseline;text-anchor:start;white-space:normal;clip-rule:nonzero;display:inline;overflow:visible;visibility:visible;opacity:1;isolation:auto;mix-blend-mode:normal;color-interpolation:sRGB;color-interpolation-filters:linearRGB;solid-color:#000000;solid-opacity:1;fill:#000000;fill-opacity:1;fill-rule:nonzero;stroke:none;stroke-width:9.18218613;stroke-linecap:butt;stroke-linejoin:miter;stroke-miterlimit:4;stroke-dasharray:none;stroke-dashoffset:0;stroke-opacity:1;color-rendering:auto;image-rendering:auto;shape-rendering:auto;text-rendering:auto;enable-background:accumulate"
       d="m 342.20854,187.60356 -2.29555,1.32532 -2.29554,1.32532 -74.61782,43.08095 -0.69225,84.72539 c -2.7e-4,0.0558 -8.1e-4,-0.12367 -8.1e-4,0.0124 v 0.008 l -0.0368,4.54538 h 0.26722 c 2.38337,41.55012 36.89039,74.6997 79.02239,74.6994 43.66846,-2.4e-4 79.25226,-35.58436 79.25195,-79.25283 l 0.69315,-84.68761 -79.29589,-45.7818 z"
       id="path8182" />
    <path
       inkscape:connector-curvature="0"
       style="color:#000000;font-style:normal;font-variant:normal;font-weight:normal;font-stretch:normal;font-size:medium;line-height:normal;font-family:sans-serif;text-indent:0;text-align:start;text-decoration:none;text-decoration-line:none;text-decoration-style:solid;text-decoration-color:#000000;letter-spacing:normal;word-spacing:normal;text-transform:none;writing-mode:lr-tb;direction:ltr;baseline-shift:baseline;text-anchor:start;white-space:normal;clip-rule:nonzero;display:inline;overflow:visible;visibility:visible;opacity:1;isolation:auto;mix-blend-mode:normal;color-interpolation:sRGB;color-interpolation-filters:linearRGB;solid-color:#000000;solid-opacity:1;fill:#ffffff;fill-opacity:1;fill-rule:nonzero;stroke:none;stroke-width:9.18218613;stroke-linecap:butt;stroke-linejoin:miter;stroke-miterlimit:4;stroke-dasharray:none;stroke-dashoffset:0;stroke-opacity:1;color-rendering:auto;image-rendering:auto;shape-rendering:auto;text-rendering:auto;enable-background:accumulate"
       d="m 342.20854,192.90483 -2.29555,1.32533 -72.34379,41.76818 -0.67073,82.03709 h 8.1e-4 c -10e-6,0.0127 -0.002,0.025 -0.002,0.0377 -2.7e-4,41.18029 33.48146,74.66202 74.66175,74.66175 41.17993,-2.4e-4 74.66115,-33.48183 74.66086,-74.66175 l 0.67164,-82.04964 z"
       id="path8173" />
    <path
       inkscape:export-ydpi="96"
       inkscape:export-xdpi="96"
       style="display:inline;opacity:1;fill:#000000;fill-opacity:1;stroke:#000000;stroke-width:1.34689772;stroke-miterlimit:4;stroke-dasharray:none;stroke-opacity:1"
       d="m 342.20895,198.20616 -70.07066,40.45542 -0.64927,79.41124 c 1.3e-4,-4.67511 0.46815,-9.33845 1.39705,-13.92035 -0.9289,4.5819 -1.39692,9.24524 -1.39705,13.92035 -2.7e-4,38.69907 31.37159,70.07093 70.07065,70.07066 38.69872,-2.2e-4 70.07004,-31.37194 70.06977,-70.07066 l 0.64928,-79.41124 z"
       id="path8151"
       inkscape:connector-curvature="0" />
    <path
       style="opacity:1;fill:#000000;fill-opacity:1;stroke:none;stroke-width:6.8866396;stroke-miterlimit:4;stroke-dasharray:none;stroke-opacity:1"
       d="m 300.2824,288.3637 a 62.523034,74.824855 42.430655 0 1 8.1e-4,-1.6e-4 62.523034,74.824855 42.430655 0 0 -4.66096,5.84064 62.523034,74.824855 42.430655 0 1 4.66008,-5.84048 z"
       id="path8149"
       inkscape:connector-curvature="0" />
    <path
       style="opacity:1;fill:#000000;fill-opacity:1;stroke:none;stroke-width:6.8866396;stroke-miterlimit:4;stroke-dasharray:none;stroke-opacity:1"
       d="m 284.93754,313.55395 a 62.523034,74.824855 42.430655 0 0 -4.036,13.77222 62.523034,74.824855 42.430655 0 1 4.036,-13.77222 z"
       id="path8144"
       inkscape:connector-curvature="0" />
    <g
       transform="translate(419.85801,195.68075)"
       clip-path="url(#clipPath9429)"
       id="g9427">
      <rect
         width="267.96542"
         height="194.88394"
         id="rect8019"
         x="-211.95526"
         y="0"
         style="fill:#ffffff;stroke-width:1.21802461" />
      <rect
         width="267.96542"
         height="30.450615"
         y="18.270369"
         id="rect8021"
         x="-211.95526"
         style="fill:#0038b8;stroke-width:1.21802461" />
      <rect
         width="267.96542"
         height="30.450615"
         y="146.16295"
         id="rect8023"
         x="-211.95526"
         style="fill:#0038b8;stroke-width:1.21802461" />
    </g>
    <path
       style="color:#000000;font-style:normal;font-variant:normal;font-weight:normal;font-stretch:normal;font-size:medium;line-height:normal;font-family:sans-serif;text-indent:0;text-align:start;text-decoration:none;text-decoration-line:none;text-decoration-style:solid;text-decoration-color:#000000;letter-spacing:normal;word-spacing:normal;text-transform:none;writing-mode:lr-tb;direction:ltr;baseline-shift:baseline;text-anchor:start;white-space:normal;clip-rule:nonzero;display:inline;overflow:visible;visibility:visible;opacity:1;isolation:auto;mix-blend-mode:normal;color-interpolation:sRGB;color-interpolation-filters:linearRGB;solid-color:#000000;solid-opacity:1;fill:#000000;fill-opacity:1;fill-rule:nonzero;stroke:none;stroke-width:11.0186224;stroke-linecap:butt;stroke-linejoin:miter;stroke-miterlimit:4;stroke-dasharray:none;stroke-dashoffset:0;stroke-opacity:1;color-rendering:auto;image-rendering:auto;shape-rendering:auto;text-rendering:auto;enable-background:accumulate"
       d="m 242.10309,302.05048 v 5.37784 32.63024 l 202.1588,-36.35962 v -38.00806 z"
       id="path8197"
       inkscape:connector-curvature="0" />
    <rect
       style="opacity:1;fill:#ffffff;fill-opacity:1;stroke:none;stroke-width:9.18218613;stroke-miterlimit:4;stroke-dasharray:none;stroke-opacity:1"
       id="rect8189"
       width="194.47374"
       height="27.252686"
       x="251.45209"
       y="350.97192"
       transform="matrix(0.98420791,-0.17701633,0,1,0,0)" />
    <text
       transform="matrix(0.9939753,-0.18094678,0,1.0060612,0,0)"
       x="252.59871"
       y="370.11017"
       xml:space="preserve"
       style="font-style:normal;font-variant:normal;font-weight:bold;font-stretch:normal;font-size:4.45391798px;line-height:0%;font-family:Aharoni;-inkscape-font-specification:'Aharoni, Bold';text-align:start;letter-spacing:0px;word-spacing:0px;writing-mode:lr-tb;text-anchor:start;opacity:1;fill:#0038b8;fill-opacity:1;stroke:none;stroke-width:0.37115985px;stroke-linecap:butt;stroke-linejoin:miter;stroke-opacity:1"
       id="text8185"><tspan
         style="font-size:17.04817772px;line-height:1.25;font-family:sans-serif;fill:#0038b8;fill-opacity:1;stroke-width:0.37115985px"
         sodipodi:role="line"
         id="tspan8187"
         x="252.59871"
         y="370.11017">TRIFECTA BARBELL</tspan></text>
    <g
       style="font-style:normal;font-weight:normal;font-size:35.39293289px;line-height:125%;font-family:sans-serif;letter-spacing:9.21000004px;word-spacing:0px;display:inline;opacity:1;fill:#000000;fill-opacity:1;stroke:none;stroke-width:0.34632277;stroke-linecap:butt;stroke-linejoin:miter;stroke-miterlimit:4;stroke-dasharray:none;stroke-opacity:1"
       id="text13433"
       transform="matrix(0.4591093,0,0,0.4591093,111.41106,20.441088)">
      <path
         inkscape:connector-curvature="0"
         d="m 436.31693,735.62878 -24.37274,12.48454 -3.34347,-3.10426 10.64425,-25.23082 2.68491,2.49282 -9.48932,22.08195 21.31811,-11.09945 z"
         style="letter-spacing:9.21000004px;fill:#000000;stroke:none;stroke-width:0.34632277;stroke-miterlimit:4;stroke-dasharray:none;stroke-opacity:1"
         id="path13443" />
      <path
         inkscape:connector-curvature="0"
         d="m 437.63492,766.33032 -8.74449,-5.17618 1.33807,-2.26048 2.89995,1.71659 10.4316,-17.62282 -2.89995,-1.71659 1.33806,-2.26048 8.74449,5.17618 -1.33807,2.26048 -2.89995,-1.71659 -10.4316,17.62282 2.89995,1.71659 z"
         style="letter-spacing:9.21000004px;fill:#000000;stroke:none;stroke-width:0.34632277;stroke-miterlimit:4;stroke-dasharray:none;stroke-opacity:1"
         id="path13445" />
      <path
         inkscape:connector-curvature="0"
         d="m 471.27353,771.84199 q -0.47315,1.42711 -1.60797,2.59845 -1.11842,1.17677 -2.63676,1.74757 -1.66036,0.61475 -3.61133,0.62337 -1.93458,0.014 -4.39513,-0.80173 -2.64099,-0.8756 -4.5939,-2.06928 -1.93651,-1.18824 -3.79733,-2.87938 l 1.34875,-4.0681 0.22965,0.0761 q 1.3424,2.15649 3.49277,3.79798 2.15038,1.64148 4.28286,2.34849 3.01827,1.00069 5.0667,0.42356 2.06483,-0.57168 2.69026,-2.4581 0.53841,-1.62397 -0.01,-2.66143 -0.53176,-1.03202 -2.01432,-1.99692 -1.12151,-0.73596 -2.49433,-1.4278 -1.35641,-0.6864 -2.8552,-1.54745 -3.01951,-1.76578 -4.04497,-3.94464 -1.00362,-2.18983 -0.11714,-4.86363 1.017,-3.06748 4.25596,-4.16023 3.2444,-1.10916 7.23049,0.2124 2.57537,0.85385 4.56109,2.0584 1.98573,1.20456 3.4032,2.47561 l -1.27261,3.83845 -0.22965,-0.0761 q -1.00274,-1.64333 -3.02724,-3.17026 -2.00265,-1.53789 -4.38118,-2.32647 -2.60818,-0.86473 -4.55828,-0.30962 -1.93369,0.56054 -2.4993,2.26652 -0.50578,1.52554 -0.007,2.65599 0.49913,1.13044 2.33169,2.2478 0.9737,0.57772 2.80056,1.54753 1.82686,0.96982 3.05775,1.76026 2.48372,1.62455 3.37759,3.54131 0.89388,1.91676 0.0237,4.54135 z"
         style="letter-spacing:9.21000004px;fill:#000000;stroke:none;stroke-width:0.34632277;stroke-miterlimit:4;stroke-dasharray:none;stroke-opacity:1"
         id="path13447" />
      <path
         inkscape:connector-curvature="0"
         d="m 503.63146,760.34113 -9.16297,-0.75308 -1.85865,22.61463 -3.41028,-0.28028 1.85865,-22.61463 -9.16297,-0.75309 0.24914,-3.03136 21.73622,1.78646 z"
         style="letter-spacing:9.21000004px;fill:#000000;stroke:none;stroke-width:0.34632277;stroke-miterlimit:4;stroke-dasharray:none;stroke-opacity:1"
         id="path13449" />
      <path
         inkscape:connector-curvature="0"
         d="m 534.56059,779.07538 -3.60229,0.56569 -3.60519,-6.69366 -10.99468,1.72654 -1.37998,7.4765 -3.43157,0.53888 5.26133,-26.87402 4.50713,-0.70777 z m -8.70466,-8.86676 -6.41571,-11.78025 -2.5132,13.1824 z"
         style="letter-spacing:9.21000004px;fill:#000000;stroke:none;stroke-width:0.34632277;stroke-miterlimit:4;stroke-dasharray:none;stroke-opacity:1"
         id="path13451" />
      <path
         inkscape:connector-curvature="0"
         d="m 551.35697,767.95234 -0.5501,12.31175 -2.3597,0.89332 -1.19543,-11.65095 z"
         style="letter-spacing:9.21000004px;fill:#000000;stroke:none;stroke-width:0.34632277;stroke-miterlimit:4;stroke-dasharray:none;stroke-opacity:1"
         id="path13453" />
      <path
         inkscape:connector-curvature="0"
         d="m 583.00563,753.73556 q -0.57575,0.86255 -1.03407,1.5881 -0.44379,0.71622 -1.27609,1.72295 -0.70967,0.84586 -1.63534,1.70717 -0.90179,0.86651 -2.15243,1.66949 -2.35585,1.51259 -4.71014,2.1 -2.34908,0.56353 -4.67991,0.0679 -2.28308,-0.48517 -4.43156,-2.10415 -2.15781,-1.63353 -3.96918,-4.45473 -1.718,-2.67579 -2.31565,-5.26995 -0.59766,-2.59415 -0.10621,-4.9634 0.47584,-2.29762 1.94832,-4.29043 1.48703,-2.00214 3.87197,-3.5334 1.74508,-1.12043 3.74638,-1.8098 2.01585,-0.69871 4.82062,-1.00032 l 2.19419,3.41745 -0.21814,0.14005 q -2.75041,-0.34941 -4.94886,0.0969 -2.19846,0.44628 -4.2053,1.73478 -1.64328,1.05507 -2.62116,2.4428 -0.97268,1.36385 -1.28624,3.14653 -0.30315,1.73492 0.20345,3.77143 0.51181,2.01263 1.91235,4.19397 1.4659,2.28315 3.13175,3.53428 1.68039,1.24179 3.31765,1.64872 1.7089,0.42254 3.39746,0.0777 1.69377,-0.36869 3.20617,-1.33974 2.07955,-1.33518 3.43983,-3.21487 1.36028,-1.87969 2.03037,-4.32257 l 0.20359,-0.13071 2.16618,3.37381 z"
         style="letter-spacing:9.21000004px;fill:#000000;stroke:none;stroke-width:0.34632277;stroke-miterlimit:4;stroke-dasharray:none;stroke-opacity:1"
         id="path13455" />
      <path
         inkscape:connector-curvature="0"
         d="m 608.56147,731.21252 -2.49215,2.66189 -6.95992,-3.05974 -7.60638,8.12446 3.51106,6.74351 -2.37404,2.53574 -12.38303,-24.42447 3.11815,-3.33053 z m -12.3172,-1.6362 -12.30474,-5.34127 6.1275,11.93925 z"
         style="letter-spacing:9.21000004px;fill:#000000;stroke:none;stroke-width:0.34632277;stroke-miterlimit:4;stroke-dasharray:none;stroke-opacity:1"
         id="path13457" />
    </g>
    <g
       id="g13501"
       style="display:inline;opacity:1;fill:#000000"
       transform="matrix(0.04383818,0,0,0.04383818,324.43628,326.71231)">
      <path
         style="fill:#000000;fill-opacity:1;fill-rule:nonzero;stroke:none"
         d="M 733.21972,-9.8409314 612.17479,111.20399 l -5.83983,-5.84472 -19.917,19.92187 12.73437,12.73438 -411.49901,411.49901 -12.73438,-12.73437 -19.92187,19.917 5.84472,5.83984 -121.044915,121.04495 22.9834,22.9834 121.044915,-121.04495 5.83984,5.84472 19.91699,-19.92187 -12.73438,-12.73438 411.49903,-411.49903 12.73437,12.73438 19.92188,-19.91699 -5.84473,-5.83984 121.04493,-121.044921 z m 0,0"
         id="path8425"
         inkscape:connector-curvature="0" />
      <path
         style="fill:#000000;fill-opacity:1;fill-rule:nonzero;stroke:none"
         d="m 756.20312,683.58195 -121.04493,-121.04496 5.84473,-5.83983 -19.92188,-19.917 -12.73437,12.73437 -411.49903,-411.49901 12.73438,-12.73438 -19.91699,-19.92187 -5.83984,5.84472 L 62.780275,-9.8409314 39.796875,13.142469 160.84179,134.18739 l -5.84472,5.83984 19.92187,19.91699 12.73438,-12.73438 411.49901,411.49903 -12.73437,12.73437 19.917,19.92188 5.83983,-5.84472 121.04493,121.04495 z m 0,0"
         id="path8427"
         inkscape:connector-curvature="0" />
    </g>
    <path
       style="display:inline;fill:#ffffff;stroke:#000000;stroke-width:0.48596072;stroke-miterlimit:4;stroke-dasharray:none;stroke-opacity:1"
       d="m 339.58933,276.01901 c -3.15739,-0.26124 -6.49644,-1.16218 -9.28276,-2.50465 -7.06538,-3.40417 -12.17002,-9.42299 -14.31195,-16.87507 -1.25779,-4.37601 -1.33184,-9.75899 -0.19526,-14.19504 0.91466,-3.5699 2.80919,-7.31268 5.22068,-10.3138 1.5154,-1.88594 4.17559,-4.24824 6.32068,-5.61288 3.1129,-1.98033 6.66964,-3.3234 10.36421,-3.91366 1.71684,-0.27429 5.44159,-0.33476 7.30141,-0.11853 8.86678,1.0309 16.55658,6.30187 20.69093,14.1826 3.95856,7.54567 4.10219,16.62973 0.38414,24.29436 -4.08517,8.4214 -12.32558,14.15931 -21.55938,15.01214 -1.17121,0.10816 -3.86922,0.13254 -4.9327,0.0445 z m 3.34114,-4.0266 c 0.48351,-8e-4 0.90765,-0.26233 1.83313,-1.1302 l 0.43605,-0.4089 -0.0727,-0.69957 c -0.04,-0.38476 -0.14541,-0.99217 -0.23433,-1.3498 -0.22263,-0.89544 -0.12333,-1.58214 0.51505,-3.56196 0.99679,-3.09133 1.07505,-3.84702 0.53956,-5.20981 -0.37458,-0.95327 -0.33626,-2.27695 0.10749,-3.71338 0.17893,-0.57918 0.38467,-1.33987 0.45721,-1.69042 0.0725,-0.35055 0.18465,-0.63737 0.24915,-0.63737 0.0645,0 0.30857,0.17284 0.54239,0.38408 0.45598,0.41195 1.27862,0.86287 1.81868,0.99689 0.1829,0.0454 1.21868,0.19382 2.30173,0.32983 2.99887,0.37662 3.85442,0.17232 5.34954,-1.27742 1.33085,-1.29045 1.98789,-2.91158 1.97272,-4.86726 -0.0139,-1.78994 -0.73521,-3.5005 -1.94716,-4.61757 -0.97856,-0.90196 -1.96832,-1.18659 -4.73938,-1.36291 -1.63382,-0.10396 -2.03267,-0.0979 -2.52842,0.0382 -0.48023,0.13188 -0.59886,0.13494 -0.64427,0.0166 -0.0942,-0.24539 0.23182,-0.85305 0.92891,-1.73155 0.80286,-1.01181 0.93596,-1.25969 1.37669,-2.56387 0.2998,-0.88716 0.33485,-1.11555 0.28427,-1.85227 -0.0701,-1.02082 -0.46973,-2.06989 -1.02089,-2.67996 -0.63822,-0.70644 -0.47409,-1.24665 0.56917,-1.87333 0.92445,-0.55531 1.20081,-1.13391 1.20081,-2.51408 0,-1.14403 -0.15395,-1.48737 -0.81917,-1.82685 -0.19802,-0.10105 -0.44388,-0.25758 -0.54636,-0.34785 -0.34338,-0.30245 -1.2724,-0.65492 -1.76965,-0.67141 -0.51903,-0.0172 -0.62462,0.0683 -0.73308,0.59333 -0.0362,0.17521 -0.28717,0.44018 -0.68246,0.72051 -0.83853,0.59466 -0.93569,0.6958 -0.93931,0.97783 -0.002,0.13282 -0.1433,0.65045 -0.31466,1.15029 -0.28535,0.83232 -0.29923,0.94425 -0.16484,1.33016 0.21413,0.61497 0.18517,1.06239 -0.0878,1.35533 -0.38402,0.4122 -1.22194,0.89502 -1.55329,0.89502 -0.16868,0 -0.59537,0.10676 -0.94821,0.23725 -0.8266,0.30569 -2.12072,1.59699 -2.59792,2.59226 -0.34213,0.71355 -1.33923,2.0914 -2.36428,3.26708 -0.83226,0.95456 -1.18265,1.5525 -2.33845,3.9905 -0.5347,1.12787 -1.05682,2.17537 -1.16026,2.32779 -0.10345,0.15241 -0.29704,0.49237 -0.43021,0.75547 -0.13317,0.26309 -0.29744,0.45991 -0.36505,0.43737 -0.0676,-0.0225 -0.20622,-0.34527 -0.30803,-0.7172 -0.29876,-1.09142 -0.77245,-1.91573 -1.55069,-2.69847 -1.27896,-1.28638 -2.11656,-1.52277 -4.69436,-1.32484 -2.70578,0.20774 -3.45426,0.46328 -4.47811,1.52886 -1.74513,1.81626 -2.07035,4.83867 -0.78094,7.25784 0.47268,0.88685 1.65455,1.98177 2.4867,2.30376 0.59363,0.2297 0.81046,0.24902 2.58774,0.23065 1.06691,-0.011 2.23912,-0.0727 2.60491,-0.13711 1.98081,-0.34868 3.59731,-2.17485 3.96373,-4.47787 0.0727,-0.45687 0.16927,-0.83067 0.21461,-0.83067 0.0454,0 0.28581,0.106 0.53436,0.23555 0.63647,0.33175 0.97801,0.30367 1.34838,-0.11085 0.3033,-0.33946 0.32953,-0.3464 1.30869,-0.3464 0.61775,0 0.99919,0.044 0.99919,0.11527 0,0.0634 -0.10304,0.31722 -0.22897,0.56407 -0.12593,0.24684 -0.38503,1.10531 -0.57579,1.9077 -0.37941,1.59601 -0.45158,3.22707 -0.18535,4.18915 0.0737,0.26637 0.14339,1.00805 0.15483,1.6482 0.0114,0.64014 0.081,1.60969 0.15448,2.15456 0.10414,0.77187 0.10425,1.12684 5.4e-4,1.60728 -0.0802,0.3711 -0.13968,1.69793 -0.14946,3.33237 -0.009,1.49367 -0.0546,2.82191 -0.10143,2.95165 -0.0469,0.12974 -0.20468,0.29034 -0.35072,0.35688 -0.15342,0.0699 -0.2412,0.18441 -0.2079,0.27118 0.092,0.2397 -0.36201,1.18672 -0.5689,1.18672 -0.13962,0 -0.16576,0.0656 -0.11182,0.28054 0.052,0.20714 -0.017,0.40753 -0.26354,0.76592 -0.27309,0.39693 -0.41581,0.49921 -0.7832,0.56129 -0.28762,0.0486 -0.50843,0.16621 -0.61374,0.32692 -0.37785,0.57669 0.16377,0.80672 1.59701,0.67828 0.68769,-0.0616 0.99547,-0.15625 1.62438,-0.49938 0.42676,-0.23285 0.94624,-0.46025 1.15439,-0.50534 0.20816,-0.0451 0.69915,-0.22586 1.0911,-0.40172 0.73273,-0.32875 1.02451,-0.39222 1.02451,-0.22285 0,0.17102 -0.56961,1.12244 -0.672,1.12244 -0.0543,0 -0.18069,0.12495 -0.28075,0.27767 -0.34438,0.52558 0.10292,0.73554 1.39614,0.65536 0.39628,-0.0246 0.92711,-0.045 1.17962,-0.0455 z m -1.42619,-3.0768 c -0.0935,-0.10668 -0.25353,-0.35866 -0.35552,-0.55993 -0.10199,-0.20128 -0.25977,-0.39449 -0.35063,-0.42935 -0.0909,-0.0349 -0.26946,-0.26778 -0.3969,-0.51758 -0.19899,-0.39005 -0.22265,-0.57989 -0.16749,-1.34421 0.0731,-1.01291 0.47143,-2.88237 0.68747,-3.2264 0.24628,-0.39219 0.49709,-1.39025 0.49732,-1.97906 1.1e-4,-0.309 -0.0817,-1.00809 -0.18178,-1.55351 -0.14378,-0.78338 -0.15756,-1.12099 -0.0656,-1.60729 0.32164,-1.70069 0.63209,-1.62152 1.49812,0.38203 0.32584,0.75381 0.3362,0.83123 0.36344,2.71575 0.0154,1.06691 0.0825,2.33002 0.14901,2.80691 0.2127,1.52445 0.15614,2.69573 -0.16686,3.45596 -0.15542,0.36579 -0.33346,0.83967 -0.39566,1.05305 -0.11956,0.41015 -0.60036,0.99762 -0.8165,0.99762 -0.0706,0 -0.20489,-0.0873 -0.29843,-0.19399 z m -4.63071,-21.71094 c 0,-1.10248 0.20988,-1.46932 1.29284,-2.25975 0.8544,-0.62362 1.40583,-1.23356 1.9547,-2.16216 0.17054,-0.28853 0.32572,-0.50619 0.34483,-0.48368 0.0191,0.0225 0.0671,0.25207 0.10659,0.51013 0.0702,0.45846 0.0627,0.47303 -0.3301,0.63714 -0.33558,0.14021 -0.39091,0.20917 -0.33506,0.41759 0.0368,0.13729 0.0676,0.43286 0.0684,0.6568 8.1e-4,0.26843 0.0938,0.51683 0.2723,0.72899 l 0.27079,0.32182 -0.26615,0.57447 c -0.27564,0.59494 -0.81023,1.42396 -1.11431,1.72804 -0.13419,0.13419 -0.41638,0.17458 -1.21971,0.17458 h -1.04513 z"
       id="path13516"
       inkscape:connector-curvature="0" />
    <circle
       r="26.937956"
       cy="249.46928"
       cx="341.92462"
       id="path22523"
       style="display:inline;fill:#ffffff;fill-opacity:1;stroke:#000000;stroke-width:0.34184265;stroke-miterlimit:4;stroke-dasharray:none;stroke-opacity:1" />
    <g
       transform="matrix(0.31731044,0,0,0.31731044,340.64828,199.62786)"
       id="g8037">
      <use
         xlink:href="#triangle"
         transform="matrix(1.963433,0,0,1.963433,4.0223712,157.07464)"
         id="use8025"
         x="0"
         y="0"
         width="100%"
         height="100%" />
      <use
         xlink:href="#triangle"
         transform="matrix(-1.963433,0,0,-1.963433,4.0223712,157.07464)"
         id="use8027"
         x="0"
         y="0"
         width="100%"
         height="100%" />
    </g>
  </g>
</svg>
