<?xml version="1.0" encoding="UTF-8" standalone="no"?>
<svg
   xmlns:dc="http://purl.org/dc/elements/1.1/"
   xmlns:cc="http://creativecommons.org/ns#"
   xmlns:rdf="http://www.w3.org/1999/02/22-rdf-syntax-ns#"
   xmlns:svg="http://www.w3.org/2000/svg"
   xmlns="http://www.w3.org/2000/svg"
   xmlns:xlink="http://www.w3.org/1999/xlink"
   xmlns:sodipodi="http://sodipodi.sourceforge.net/DTD/sodipodi-0.dtd"
   xmlns:inkscape="http://www.inkscape.org/namespaces/inkscape"
   width="606.47644"
   height="629.16675"
   version="1.1"
   id="svg21458"
   sodipodi:docname="japan.svg"
   inkscape:version="0.92.1 r"
   inkscape:export-filename="/Users/bmonro/Downloads/usa3.png"
   inkscape:export-xdpi="96"
   inkscape:export-ydpi="96">
  <metadata
     id="metadata21462">
    <rdf:RDF>
      <cc:Work
         rdf:about="">
        <dc:format>image/svg+xml</dc:format>
        <dc:type
           rdf:resource="http://purl.org/dc/dcmitype/StillImage" />
        <dc:title />
      </cc:Work>
    </rdf:RDF>
  </metadata>
  <sodipodi:namedview
     pagecolor="#ffffff"
     bordercolor="#666666"
     borderopacity="1"
     objecttolerance="10"
     gridtolerance="10"
     guidetolerance="10"
     inkscape:pageopacity="0"
     inkscape:pageshadow="2"
     inkscape:window-width="1436"
     inkscape:window-height="855"
     id="namedview21460"
     showgrid="true"
     inkscape:zoom="0.8340081"
     inkscape:cx="20.456042"
     inkscape:cy="372.60162"
     inkscape:window-x="327"
     inkscape:window-y="23"
     inkscape:window-maximized="0"
     inkscape:current-layer="svg21458"
     inkscape:snap-object-midpoints="true">
    <inkscape:grid
       type="xygrid"
       id="grid21633"
       originx="-187.31038"
       originy="-8.01577" />
  </sodipodi:namedview>
  <defs
     id="defs21436">
    <polygon
       id="pt"
       points="0,-0.5 0.16245985,0 -0.16245985,0 "
       transform="scale(0.0616)"
       style="fill:#ffffff" />
    <g
       id="star">
      <use
         xlink:href="#pt"
         transform="rotate(-144)"
         id="use21392"
         x="0"
         y="0"
         width="100%"
         height="100%" />
      <use
         xlink:href="#pt"
         transform="rotate(-72)"
         id="use21394"
         x="0"
         y="0"
         width="100%"
         height="100%" />
      <use
         xlink:href="#pt"
         id="use21396"
         x="0"
         y="0"
         width="100%"
         height="100%" />
      <use
         xlink:href="#pt"
         transform="rotate(72)"
         id="use21398"
         x="0"
         y="0"
         width="100%"
         height="100%" />
      <use
         xlink:href="#pt"
         transform="rotate(144)"
         id="use21400"
         x="0"
         y="0"
         width="100%"
         height="100%" />
    </g>
    <g
       id="s5">
      <use
         xlink:href="#star"
         x="-0.252"
         id="use21403"
         y="0"
         width="100%"
         height="100%" />
      <use
         xlink:href="#star"
         x="-0.126"
         id="use21405"
         y="0"
         width="100%"
         height="100%" />
      <use
         xlink:href="#star"
         id="use21407"
         x="0"
         y="0"
         width="100%"
         height="100%" />
      <use
         xlink:href="#star"
         x="0.126"
         id="use21409"
         y="0"
         width="100%"
         height="100%" />
      <use
         xlink:href="#star"
         x="0.252"
         id="use21411"
         y="0"
         width="100%"
         height="100%" />
    </g>
    <g
       id="s6">
      <use
         xlink:href="#s5"
         x="-0.063000001"
         id="use21414"
         y="0"
         width="100%"
         height="100%" />
      <use
         xlink:href="#star"
         x="0.315"
         id="use21416"
         y="0"
         width="100%"
         height="100%" />
    </g>
    <g
       id="x4">
      <use
         xlink:href="#s6"
         id="use21419"
         x="0"
         y="0"
         width="100%"
         height="100%" />
      <use
         xlink:href="#s5"
         y="0.054000001"
         id="use21421"
         x="0"
         width="100%"
         height="100%" />
      <use
         xlink:href="#s6"
         y="0.108"
         id="use21423"
         x="0"
         width="100%"
         height="100%" />
      <use
         xlink:href="#s5"
         y="0.162"
         id="use21425"
         x="0"
         width="100%"
         height="100%" />
    </g>
    <g
       id="u">
      <use
         xlink:href="#x4"
         y="-0.21600001"
         id="use21428"
         x="0"
         width="100%"
         height="100%" />
      <use
         xlink:href="#x4"
         id="use21430"
         x="0"
         y="0"
         width="100%"
         height="100%" />
      <use
         xlink:href="#s6"
         y="0.21600001"
         id="use21432"
         x="0"
         width="100%"
         height="100%" />
    </g>
    <rect
       id="stripe"
       width="1235"
       height="50"
       x="0"
       y="0"
       style="fill:#bb133e" />
    <clipPath
       clipPathUnits="userSpaceOnUse"
       id="clipPath21602">
      <path
         inkscape:connector-curvature="0"
         id="path21604"
         d="m 494,0 -204.96485,118.33683 -1.89921,232.28713 c 3.9e-4,-13.67524 1.3694,-27.31604 4.08654,-40.71864 -2.71714,13.4026 -4.08615,27.0434 -4.08654,40.71864 -7.8e-4,113.19929 91.76557,204.96564 204.96484,204.96485 113.19827,-6.3e-4 204.96304,-91.76659 204.96226,-204.96485 l 1.8992,-232.28713 z"
         style="opacity:1;fill:#000000;fill-opacity:1;stroke:none;stroke-width:20.14422417;stroke-miterlimit:4;stroke-dasharray:none;stroke-opacity:1" />
    </clipPath>
  </defs>
  <g
     id="g21898"
     inkscape:export-xdpi="96"
     inkscape:export-ydpi="96"
     transform="translate(-187.31038,-12.81751)">
    <path
       style="display:inline;opacity:1;fill:#000000;fill-rule:evenodd;stroke:none;stroke-width:1.37732792px;stroke-linecap:butt;stroke-linejoin:miter;stroke-opacity:1"
       d="m 793.78679,361.66512 -109.46684,79.1672 V 307.66214 Z"
       id="path8204"
       inkscape:connector-curvature="0" />
    <path
       style="opacity:1;fill:#000000;fill-rule:evenodd;stroke:none;stroke-width:1.37732792px;stroke-linecap:butt;stroke-linejoin:miter;stroke-opacity:1"
       d="m 188.69713,355.00096 c 61.35684,-61.35679 61.35684,-61.35679 61.35684,-61.35679 l 48.39403,83.82095 z"
       id="path8202"
       inkscape:connector-curvature="0" />
    <path
       inkscape:connector-curvature="0"
       style="color:#000000;font-style:normal;font-variant:normal;font-weight:normal;font-stretch:normal;font-size:medium;line-height:normal;font-family:sans-serif;text-indent:0;text-align:start;text-decoration:none;text-decoration-line:none;text-decoration-style:solid;text-decoration-color:#000000;letter-spacing:normal;word-spacing:normal;text-transform:none;writing-mode:lr-tb;direction:ltr;baseline-shift:baseline;text-anchor:start;white-space:normal;clip-rule:nonzero;display:inline;overflow:visible;visibility:visible;opacity:1;isolation:auto;mix-blend-mode:normal;color-interpolation:sRGB;color-interpolation-filters:linearRGB;solid-color:#000000;solid-opacity:1;fill:#000000;fill-opacity:1;fill-rule:nonzero;stroke:none;stroke-width:27.54655838;stroke-linecap:butt;stroke-linejoin:miter;stroke-miterlimit:4;stroke-dasharray:none;stroke-dashoffset:0;stroke-opacity:1;color-rendering:auto;image-rendering:auto;shape-rendering:auto;text-rendering:auto;enable-background:accumulate"
       d="m 487.62673,12.817542 -6.88665,3.975953 -6.88663,3.975962 L 250,150.01232 247.92325,404.18848 c -8e-4,0.16729 -0.002,-0.37101 -0.002,0.0372 v 0.0242 l -0.11033,13.63613 h 0.80167 c 7.15011,124.65038 110.67119,224.09911 237.06717,224.09822 131.00538,-7.2e-4 237.75678,-106.75309 237.75585,-237.75851 L 725.51464,150.16292 487.62697,12.81751 Z"
       id="path8182" />
    <path
       inkscape:connector-curvature="0"
       style="color:#000000;font-style:normal;font-variant:normal;font-weight:normal;font-stretch:normal;font-size:medium;line-height:normal;font-family:sans-serif;text-indent:0;text-align:start;text-decoration:none;text-decoration-line:none;text-decoration-style:solid;text-decoration-color:#000000;letter-spacing:normal;word-spacing:normal;text-transform:none;writing-mode:lr-tb;direction:ltr;baseline-shift:baseline;text-anchor:start;white-space:normal;clip-rule:nonzero;display:inline;overflow:visible;visibility:visible;opacity:1;isolation:auto;mix-blend-mode:normal;color-interpolation:sRGB;color-interpolation-filters:linearRGB;solid-color:#000000;solid-opacity:1;fill:#ffffff;fill-opacity:1;fill-rule:nonzero;stroke:none;stroke-width:27.54655838;stroke-linecap:butt;stroke-linejoin:miter;stroke-miterlimit:4;stroke-dasharray:none;stroke-dashoffset:0;stroke-opacity:1;color-rendering:auto;image-rendering:auto;shape-rendering:auto;text-rendering:auto;enable-background:accumulate"
       d="m 487.62673,28.721371 -6.88665,3.975962 -217.03136,125.304557 -2.01219,246.11128 h 0.002 c -3e-5,0.038 -0.006,0.0751 -0.006,0.11297 -8.1e-4,123.54089 100.44438,223.98606 223.98527,223.98525 123.53979,-7.3e-4 223.98344,-100.44549 223.98257,-223.98525 l 2.01493,-246.14892 z"
       id="path8173" />
    <path
       inkscape:export-ydpi="96"
       inkscape:export-xdpi="96"
       style="display:inline;opacity:1;fill:#ffffff;fill-opacity:1;stroke:#000000;stroke-width:4.04069328;stroke-miterlimit:4;stroke-dasharray:none;stroke-opacity:1"
       d="M 487.62796,44.625354 277.41598,165.99162 275.46816,404.22534 c 4e-4,-14.02533 1.40445,-28.01534 4.19115,-41.76105 -2.7867,13.74571 -4.19075,27.73572 -4.19115,41.76105 -8.1e-4,116.0972 94.11478,210.21278 210.21197,210.21197 116.09616,-6.4e-4 210.21012,-94.11583 210.20931,-210.21197 l 1.94783,-238.23372 z"
       id="path8151"
       inkscape:connector-curvature="0" />
    <path
       style="opacity:1;fill:#000000;fill-opacity:1;stroke:none;stroke-width:20.65991974;stroke-miterlimit:4;stroke-dasharray:none;stroke-opacity:1"
       d="m 361.84831,315.09799 a 187.5691,224.47457 42.430655 0 1 0.002,-4.9e-4 187.5691,224.47457 42.430655 0 0 -13.98288,17.5219 187.5691,224.47457 42.430655 0 1 13.98026,-17.52141 z"
       id="path8149"
       inkscape:connector-curvature="0" />
    <path
       style="opacity:1;fill:#000000;fill-opacity:1;stroke:none;stroke-width:20.65991974;stroke-miterlimit:4;stroke-dasharray:none;stroke-opacity:1"
       d="m 315.81374,390.66873 a 187.5691,224.47457 42.430655 0 0 -12.10799,41.31665 187.5691,224.47457 42.430655 0 1 12.10799,-41.31665 z"
       id="path8144"
       inkscape:connector-curvature="0" />
    <circle
       r="80.813866"
       cy="198.41472"
       cx="486.77493"
       id="path22523"
       style="display:inline;fill:#000000;fill-opacity:1;stroke:none;stroke-width:1.02552795;stroke-miterlimit:4;stroke-dasharray:none;stroke-opacity:1" />
    <path
       style="color:#000000;font-style:normal;font-variant:normal;font-weight:normal;font-stretch:normal;font-size:medium;line-height:normal;font-family:sans-serif;text-indent:0;text-align:start;text-decoration:none;text-decoration-line:none;text-decoration-style:solid;text-decoration-color:#000000;letter-spacing:normal;word-spacing:normal;text-transform:none;writing-mode:lr-tb;direction:ltr;baseline-shift:baseline;text-anchor:start;white-space:normal;clip-rule:nonzero;display:inline;overflow:visible;visibility:visible;opacity:1;isolation:auto;mix-blend-mode:normal;color-interpolation:sRGB;color-interpolation-filters:linearRGB;solid-color:#000000;solid-opacity:1;fill:#000000;fill-opacity:1;fill-rule:nonzero;stroke:none;stroke-width:33.05587006;stroke-linecap:butt;stroke-linejoin:miter;stroke-miterlimit:4;stroke-dasharray:none;stroke-dashoffset:0;stroke-opacity:1;color-rendering:auto;image-rendering:auto;shape-rendering:auto;text-rendering:auto;enable-background:accumulate"
       d="m 187.31038,356.1583 v 16.13352 97.89072 L 793.78679,361.1037 V 247.07952 Z"
       id="path8197"
       inkscape:connector-curvature="0" />
    <rect
       style="opacity:1;fill:#ffffff;fill-opacity:1;stroke:none;stroke-width:27.54655838;stroke-miterlimit:4;stroke-dasharray:none;stroke-opacity:1"
       id="rect8189"
       width="583.4212"
       height="81.758057"
       x="206.70886"
       y="405.9801"
       transform="matrix(0.98420792,-0.17701632,0,1,0,0)" />
    <text
       transform="matrix(0.97964889,-0.18359296,0,1.0207739,0,0)"
       x="222.07422"
       y="460.89188"
       xml:space="preserve"
       style="font-style:normal;font-variant:normal;font-weight:bold;font-stretch:normal;font-size:11.21834373px;line-height:0%;font-family:Aharoni;-inkscape-font-specification:'Aharoni, Bold';text-align:start;letter-spacing:0px;word-spacing:0px;writing-mode:lr-tb;text-anchor:start;opacity:1;fill:#000000;fill-opacity:1;stroke:none;stroke-width:0.93486208px;stroke-linecap:butt;stroke-linejoin:miter;stroke-opacity:1"
       id="text8185"><tspan
         style="font-size:42.94024658px;line-height:1.25;font-family:sans-serif;fill:#000000;fill-opacity:1;stroke-width:0.93486208px"
         sodipodi:role="line"
         id="tspan8187"
         x="222.07422"
         y="460.89188">トライフェクター・バーベル</tspan></text>
    <g
       style="font-style:normal;font-weight:normal;font-size:35.39293289px;line-height:125%;font-family:sans-serif;letter-spacing:9.21000004px;word-spacing:0px;display:inline;opacity:1;fill:#000000;fill-opacity:1;stroke:none;stroke-width:1px;stroke-linecap:butt;stroke-linejoin:miter;stroke-opacity:1"
       id="text13433"
       transform="matrix(1.3773279,0,0,1.3773279,-204.76571,-488.66987)">
      <path
         inkscape:connector-curvature="0"
         d="m 436.31693,735.62878 -24.37274,12.48454 -3.34347,-3.10426 10.64425,-25.23082 2.68491,2.49282 -9.48932,22.08195 21.31811,-11.09945 z"
         style="letter-spacing:9.21000004px;fill:#000000;fill-opacity:1"
         id="path13443" />
      <path
         inkscape:connector-curvature="0"
         d="m 437.63492,766.33032 -8.74449,-5.17618 1.33807,-2.26048 2.89995,1.71659 10.4316,-17.62282 -2.89995,-1.71659 1.33806,-2.26048 8.74449,5.17618 -1.33807,2.26048 -2.89995,-1.71659 -10.4316,17.62282 2.89995,1.71659 z"
         style="letter-spacing:9.21000004px;fill:#000000;fill-opacity:1"
         id="path13445" />
      <path
         inkscape:connector-curvature="0"
         d="m 471.27353,771.84199 q -0.47315,1.42711 -1.60797,2.59845 -1.11842,1.17677 -2.63676,1.74757 -1.66036,0.61475 -3.61133,0.62337 -1.93458,0.014 -4.39513,-0.80173 -2.64099,-0.8756 -4.5939,-2.06928 -1.93651,-1.18824 -3.79733,-2.87938 l 1.34875,-4.0681 0.22965,0.0761 q 1.3424,2.15649 3.49277,3.79798 2.15038,1.64148 4.28286,2.34849 3.01827,1.00069 5.0667,0.42356 2.06483,-0.57168 2.69026,-2.4581 0.53841,-1.62397 -0.01,-2.66143 -0.53176,-1.03202 -2.01432,-1.99692 -1.12151,-0.73596 -2.49433,-1.4278 -1.35641,-0.6864 -2.8552,-1.54745 -3.01951,-1.76578 -4.04497,-3.94464 -1.00362,-2.18983 -0.11714,-4.86363 1.017,-3.06748 4.25596,-4.16023 3.2444,-1.10916 7.23049,0.2124 2.57537,0.85385 4.56109,2.0584 1.98573,1.20456 3.4032,2.47561 l -1.27261,3.83845 -0.22965,-0.0761 q -1.00274,-1.64333 -3.02724,-3.17026 -2.00265,-1.53789 -4.38118,-2.32647 -2.60818,-0.86473 -4.55828,-0.30962 -1.93369,0.56054 -2.4993,2.26652 -0.50578,1.52554 -0.007,2.65599 0.49913,1.13044 2.33169,2.2478 0.9737,0.57772 2.80056,1.54753 1.82686,0.96982 3.05775,1.76026 2.48372,1.62455 3.37759,3.54131 0.89388,1.91676 0.0237,4.54135 z"
         style="letter-spacing:9.21000004px;fill:#000000;fill-opacity:1"
         id="path13447" />
      <path
         inkscape:connector-curvature="0"
         d="m 503.63146,760.34113 -9.16297,-0.75308 -1.85865,22.61463 -3.41028,-0.28028 1.85865,-22.61463 -9.16297,-0.75309 0.24914,-3.03136 21.73622,1.78646 z"
         style="letter-spacing:9.21000004px;fill:#000000;fill-opacity:1"
         id="path13449" />
      <path
         inkscape:connector-curvature="0"
         d="m 534.56059,779.07538 -3.60229,0.56569 -3.60519,-6.69366 -10.99468,1.72654 -1.37998,7.4765 -3.43157,0.53888 5.26133,-26.87402 4.50713,-0.70777 z m -8.70466,-8.86676 -6.41571,-11.78025 -2.5132,13.1824 z"
         style="letter-spacing:9.21000004px;fill:#000000;fill-opacity:1"
         id="path13451" />
      <path
         inkscape:connector-curvature="0"
         d="m 551.35697,767.95234 -0.5501,12.31175 -2.3597,0.89332 -1.19543,-11.65095 z"
         style="letter-spacing:9.21000004px;fill:#000000;fill-opacity:1"
         id="path13453" />
      <path
         inkscape:connector-curvature="0"
         d="m 583.00563,753.73556 q -0.57575,0.86255 -1.03407,1.5881 -0.44379,0.71622 -1.27609,1.72295 -0.70967,0.84586 -1.63534,1.70717 -0.90179,0.86651 -2.15243,1.66949 -2.35585,1.51259 -4.71014,2.1 -2.34908,0.56353 -4.67991,0.0679 -2.28308,-0.48517 -4.43156,-2.10415 -2.15781,-1.63353 -3.96918,-4.45473 -1.718,-2.67579 -2.31565,-5.26995 -0.59766,-2.59415 -0.10621,-4.9634 0.47584,-2.29762 1.94832,-4.29043 1.48703,-2.00214 3.87197,-3.5334 1.74508,-1.12043 3.74638,-1.8098 2.01585,-0.69871 4.82062,-1.00032 l 2.19419,3.41745 -0.21814,0.14005 q -2.75041,-0.34941 -4.94886,0.0969 -2.19846,0.44628 -4.2053,1.73478 -1.64328,1.05507 -2.62116,2.4428 -0.97268,1.36385 -1.28624,3.14653 -0.30315,1.73492 0.20345,3.77143 0.51181,2.01263 1.91235,4.19397 1.4659,2.28315 3.13175,3.53428 1.68039,1.24179 3.31765,1.64872 1.7089,0.42254 3.39746,0.0777 1.69377,-0.36869 3.20617,-1.33974 2.07955,-1.33518 3.43983,-3.21487 1.36028,-1.87969 2.03037,-4.32257 l 0.20359,-0.13071 2.16618,3.37381 z"
         style="letter-spacing:9.21000004px;fill:#000000;fill-opacity:1"
         id="path13455" />
      <path
         inkscape:connector-curvature="0"
         d="m 608.56147,731.21252 -2.49215,2.66189 -6.95992,-3.05974 -7.60638,8.12446 3.51106,6.74351 -2.37404,2.53574 -12.38303,-24.42447 3.11815,-3.33053 z m -12.3172,-1.6362 -12.30474,-5.34127 6.1275,11.93925 z"
         style="letter-spacing:9.21000004px;fill:#000000;fill-opacity:1"
         id="path13457" />
    </g>
    <path
       inkscape:connector-curvature="0"
       id="path8425"
       d="m 530.73899,428.84957 -15.91917,15.91917 -0.76802,-0.76867 -2.61938,2.62002 1.67476,1.67476 -54.1181,54.1181 -1.67476,-1.67476 -2.62001,2.61938 0.76866,0.76802 -15.91916,15.91917 3.02265,3.02265 15.91916,-15.91917 0.76803,0.76867 2.61937,-2.62002 -1.67476,-1.67476 54.11811,-54.1181 1.67475,1.67476 2.62002,-2.61937 -0.76867,-0.76803 15.91917,-15.91916 z m 0,0"
       style="fill:#bc002d;fill-opacity:1;fill-rule:nonzero;stroke:none;stroke-width:0.13151453" />
    <path
       inkscape:connector-curvature="0"
       id="path8427"
       d="m 533.76164,520.04476 -15.91917,-15.91917 0.76867,-0.76802 -2.62002,-2.61938 -1.67475,1.67476 -54.11811,-54.1181 1.67476,-1.67476 -2.61937,-2.62002 -0.76803,0.76867 -15.91916,-15.91917 -3.02265,3.02266 15.91916,15.91916 -0.76866,0.76803 2.62001,2.61937 1.67476,-1.67476 54.1181,54.1181 -1.67476,1.67476 2.61938,2.62002 0.76802,-0.76867 15.91917,15.91917 z m 0,0"
       style="fill:#bc002d;fill-opacity:1;fill-rule:nonzero;stroke:none;stroke-width:0.13151453" />
    <path
       style="display:inline;fill:#bc002d;fill-opacity:1;stroke:none;stroke-width:1.45788217;stroke-miterlimit:4;stroke-dasharray:none;stroke-opacity:1"
       d="m 479.7691,278.0639 c -9.47218,-0.78373 -19.48932,-3.48655 -27.84827,-7.51394 -21.19616,-10.21251 -36.51007,-28.26898 -42.93587,-50.62521 -3.77335,-13.12803 -3.9955,-29.27699 -0.58576,-42.58512 2.74397,-10.70972 8.42756,-21.93804 15.66203,-30.94142 4.54619,-5.65781 12.52677,-12.7447 18.96204,-16.83864 9.33869,-5.94098 20.00891,-9.9702 31.09262,-11.74098 5.15054,-0.82287 16.32477,-1.00426 21.90424,-0.35557 26.60035,3.09268 49.66976,18.90561 62.07279,42.5478 11.87568,22.637 12.30658,49.88917 1.15242,72.88306 -12.25552,25.26422 -36.97674,42.47795 -64.67815,45.03643 -3.51362,0.32447 -11.60765,0.39761 -14.79809,0.13359 z m 10.02342,-12.07979 c 1.45052,-0.002 2.72295,-0.78701 5.49939,-3.39061 l 1.30815,-1.22671 -0.21799,-2.09869 c -0.11997,-1.15429 -0.43626,-2.97652 -0.703,-4.04942 -0.6679,-2.68631 -0.37001,-4.74641 1.54513,-10.68586 2.99038,-9.274 3.22517,-11.54108 1.6187,-15.62945 -1.12373,-2.8598 -1.00878,-6.83084 0.32247,-11.14013 0.53677,-1.73753 1.154,-4.0196 1.37161,-5.07127 0.21761,-1.05165 0.55397,-1.9121 0.74745,-1.9121 0.19349,0 0.92572,0.51851 1.62719,1.15225 1.36793,1.23583 3.83584,2.5886 5.45604,2.99067 0.5487,0.13622 3.65604,0.58144 6.90519,0.98948 8.9966,1.12986 11.56324,0.51696 16.04862,-3.83225 3.99253,-3.87136 5.96367,-8.73475 5.91815,-14.6018 -0.0417,-5.36982 -2.20562,-10.5015 -5.84147,-13.8527 -2.9357,-2.70588 -5.90496,-3.55976 -14.21814,-4.08874 -4.90147,-0.31187 -6.09802,-0.2938 -7.58528,0.1146 -1.44068,0.39566 -1.79656,0.40483 -1.9328,0.0497 -0.28249,-0.73617 0.69547,-2.55915 2.78674,-5.19466 2.40858,-3.03542 2.80788,-3.77906 4.13006,-7.69161 0.89941,-2.66148 1.00456,-3.34666 0.85281,-5.55682 -0.2103,-3.06244 -1.40918,-6.20965 -3.06267,-8.03988 -1.91467,-2.1193 -1.42228,-3.73993 1.7075,-5.61997 2.77335,-1.66594 3.60245,-3.40175 3.60245,-7.54224 0,-3.43211 -0.46187,-4.46213 -2.45752,-5.48055 -0.59405,-0.30315 -1.33163,-0.77275 -1.63908,-1.04355 -1.03015,-0.90736 -3.81719,-1.96478 -5.30895,-2.01425 -1.55708,-0.0516 -1.87385,0.20478 -2.19924,1.78001 -0.10853,0.52561 -0.8615,1.32053 -2.04737,2.16152 -2.5156,1.78398 -2.80707,2.0874 -2.81793,2.9335 -0.006,0.39844 -0.42991,1.95134 -0.944,3.45085 -0.85604,2.49697 -0.89766,2.83277 -0.49452,3.9905 0.64242,1.84489 0.55552,3.18715 -0.26323,4.06597 -1.15207,1.2366 -3.66584,2.68506 -4.65987,2.68506 -0.50604,0 -1.78611,0.32028 -2.84464,0.71175 -2.47981,0.91708 -6.36216,4.79096 -7.79377,7.77678 -1.02638,2.14067 -4.01769,6.27421 -7.09282,9.80126 -2.49678,2.86368 -3.54795,4.65749 -7.01536,11.97148 -1.60409,3.38361 -3.17044,6.52612 -3.48078,6.98337 -0.31035,0.45724 -0.89112,1.47713 -1.29062,2.26641 -0.39951,0.78929 -0.89231,1.37975 -1.09516,1.31213 -0.20281,-0.0676 -0.61866,-1.03583 -0.92409,-2.15161 -0.89628,-3.27425 -2.31735,-5.74718 -4.65205,-8.09542 -3.83688,-3.85913 -6.34969,-4.56829 -14.0831,-3.97452 -8.11733,0.62324 -10.36278,1.38985 -13.43432,4.58658 -5.23541,5.44878 -6.21105,14.51603 -2.34284,21.77353 1.41806,2.66055 4.96367,5.94531 7.46011,6.91128 1.78089,0.68909 2.43138,0.74706 7.76324,0.69196 3.20071,-0.0331 6.71733,-0.21819 7.81472,-0.41135 5.94243,-1.04603 10.79192,-6.52453 11.8912,-13.43359 0.21806,-1.37063 0.5078,-2.49203 0.64382,-2.49203 0.13609,0 0.85741,0.318 1.60308,0.70665 1.90941,0.99525 2.93402,0.91101 4.04513,-0.33254 0.90991,-1.01837 0.98858,-1.03919 3.92608,-1.03919 1.85324,0 2.99756,0.13194 2.99756,0.34579 0,0.19018 -0.30911,0.95167 -0.6869,1.69221 -0.37779,0.74054 -1.1551,3.31593 -1.72736,5.7231 -1.13825,4.78805 -1.35477,9.68121 -0.55607,12.56745 0.22114,0.79911 0.43017,3.02416 0.4645,4.9446 0.0343,1.92042 0.2429,4.82908 0.46343,6.46368 0.31244,2.31562 0.31274,3.38054 0.002,4.82184 -0.24051,1.11332 -0.41905,5.09379 -0.44837,9.99713 -0.0268,4.48099 -0.16373,8.46572 -0.30429,8.85494 -0.14055,0.38923 -0.61404,0.87102 -1.05217,1.07065 -0.46025,0.2097 -0.7236,0.55322 -0.62371,0.81354 0.27594,0.71909 -1.08602,3.56015 -1.70668,3.56015 -0.41885,0 -0.49729,0.19679 -0.33545,0.84162 0.15597,0.62141 -0.051,1.2226 -0.79063,2.29777 -0.81929,1.19079 -1.24744,1.49763 -2.34961,1.68385 -0.86287,0.14577 -1.52529,0.49865 -1.8412,0.98078 -1.13357,1.73005 0.49129,2.42016 4.79101,2.03482 2.06309,-0.18487 2.98642,-0.46874 4.87315,-1.49814 1.28028,-0.69853 2.83871,-1.38074 3.46318,-1.516 0.62447,-0.13525 2.09745,-0.6776 3.27327,-1.20518 2.19819,-0.98623 3.07356,-1.17665 3.07356,-0.66854 0,0.51307 -1.70884,3.36731 -2.01603,3.36731 -0.16303,0 -0.54206,0.37485 -0.84225,0.83302 -1.03313,1.57674 0.30879,2.20663 4.18842,1.96607 1.18885,-0.0737 2.78134,-0.13512 3.53888,-0.13636 z m -4.27858,-9.2304 c -0.28062,-0.32006 -0.76058,-1.07598 -1.06654,-1.67981 -0.30597,-0.60383 -0.77933,-1.18345 -1.05189,-1.28804 -0.27258,-0.10454 -0.8084,-0.80334 -1.19072,-1.55275 -0.59696,-1.17013 -0.66792,-1.73965 -0.50246,-4.03262 0.21928,-3.03873 1.4143,-8.64711 2.06241,-9.67919 0.73885,-1.17657 1.49126,-4.17076 1.49197,-5.93718 3.4e-4,-0.92703 -0.24503,-3.02427 -0.54536,-4.66054 -0.43134,-2.35014 -0.47267,-3.36298 -0.19677,-4.82186 0.96492,-5.10207 1.89629,-4.86457 4.49439,1.14608 0.9775,2.26142 1.00859,2.4937 1.0903,8.14726 0.0463,3.20071 0.24743,6.99004 0.44704,8.42073 0.63808,4.57334 0.46842,8.08719 -0.50058,10.36786 -0.46626,1.09739 -1.0004,2.51901 -1.18699,3.15915 -0.35867,1.23046 -1.80109,2.99286 -2.44949,2.99286 -0.21178,0 -0.61466,-0.26187 -0.89531,-0.58195 z m -13.89211,-65.13283 c 0,-3.30743 0.62963,-4.40796 3.8785,-6.77925 2.56322,-1.87085 4.21751,-3.70068 5.86411,-6.48647 0.51164,-0.86561 0.97716,-1.51857 1.03449,-1.45104 0.0573,0.0675 0.20122,0.7562 0.31978,1.53038 0.21064,1.37538 0.18799,1.4191 -0.99031,1.91141 -1.00674,0.42065 -1.17273,0.62752 -1.00519,1.25277 0.11046,0.41188 0.20275,1.29858 0.20525,1.97041 0.002,0.8053 0.28134,1.55048 0.81691,2.18697 l 0.81236,0.96545 -0.79846,1.72341 c -0.82692,1.78482 -2.43067,4.2719 -3.34292,5.18414 -0.40256,0.40256 -1.24916,0.52373 -3.65913,0.52373 h -3.13539 z"
       id="path13516"
       inkscape:connector-curvature="0" />
  </g>
  <path
     inkscape:connector-curvature="0"
     style="display:none;fill:#000000;stroke-width:0.30340409"
     d="m 133.33461,811.65975 c 3.6621,-0.74029 7.67918,-0.47331 10.92257,1.52915 2.79737,-1.74456 6.2926,-1.93269 9.47833,-1.43206 3.38597,0.48544 6.48982,2.49095 8.44677,5.28227 2.80952,-0.60379 5.77376,-0.74639 8.54688,0.12748 4.00495,1.19847 7.33632,4.37813 8.82907,8.27385 1.35924,3.53768 1.2379,7.63971 -0.43084,11.05604 -0.26698,0.68266 -0.66445,1.36835 -0.65533,2.11775 1.88413,6.3381 1.00121,13.08278 -0.38836,19.42393 -0.87382,4.4115 -2.35444,8.66523 -3.88662,12.88556 -2.02673,5.06686 -4.31744,10.04571 -7.17247,14.70599 7.5851,4.28408 15.16415,8.59244 22.41549,13.42262 3.00067,2.07225 6.24709,4.11416 8.05234,7.40608 2.22092,3.4406 2.75795,7.72165 2.02068,11.69926 -0.97088,4.09293 -3.61657,7.843 -7.33934,9.86974 -4.33565,2.33318 -9.81815,2.11169 -14.08401,-0.27003 -2.34837,-1.49275 -4.89088,-2.64264 -7.2544,-4.1081 0.47331,4.21428 0.85256,8.44979 0.63411,12.69444 -0.0305,2.23305 -0.47029,4.4297 -0.65536,6.64455 0.41868,2.35442 1.23485,4.62387 1.82651,6.93885 0.5977,2.43026 1.45937,4.78163 2.02672,7.21799 0.86774,3.94728 2.36657,7.83386 2.15115,11.93892 -0.17286,3.07046 -1.31375,6.21676 -3.67425,8.27992 -3.55586,3.1918 -8.37394,4.63298 -13.07973,4.81805 -4.05955,0.13038 -8.48622,-0.5522 -11.63555,-3.33745 -2.77917,-2.4697 -4.23248,-6.03166 -5.24888,-9.52689 -0.86774,2.71245 -1.73851,5.57354 -3.75614,7.6822 -2.30285,2.72759 -5.8102,4.14753 -9.28721,4.58748 -4.38723,0.43992 -8.96256,-0.13668 -12.91592,-2.16632 -2.96121,-1.35925 -5.71611,-3.61051 -6.9085,-6.72343 -1.04068,-2.4879 -1.30159,-5.31566 -0.47634,-7.90367 1.49881,-6.76289 3.30406,-13.44991 5.11541,-20.1339 0.20631,-1.65355 0.9102,-3.31013 0.5097,-4.98795 -0.75851,-5.43397 -0.92841,-10.96504 -0.32161,-16.42023 -1.81435,0.79491 -3.49824,1.85379 -5.30047,2.68207 -2.14203,0.98609 -4.13538,2.38477 -6.49285,2.81561 -1.88716,0.36409 -3.83804,0.34587 -5.73432,0.0728 -4.278,-0.87682 -7.98256,-3.79557 -10.22471,-7.49104 -2.29676,-3.51949 -2.55771,-8.07662 -1.32588,-12.02086 1.45936,-4.2416 4.62082,-7.63973 8.17065,-10.26418 6.28654,-4.57532 13.14953,-8.27381 19.97612,-11.96928 1.7537,-0.8283 3.39814,-1.87504 5.18519,-2.63961 -0.47029,-1.17418 -1.18632,-2.22396 -1.80223,-3.31924 -2.53644,-4.5541 -4.68152,-9.32666 -6.35933,-14.26 -1.42904,-4.85446 -2.73672,-9.79995 -2.97033,-14.8759 -0.46422,-4.96368 -0.0637,-9.99717 1.00122,-14.86376 -1.69299,-3.23126 -2.41206,-7.05112 -1.53825,-10.63432 0.75852,-3.56196 3.14023,-6.65667 6.17428,-8.6106 3.4497,-2.06922 7.79747,-2.84896 11.66587,-1.55342 2.10866,-2.19665 4.74222,-4.03833 7.77017,-4.66028 z"
     id="path3793"
     sodipodi:insensitive="true" />
</svg>
