<?xml version="1.0" encoding="UTF-8" standalone="no"?>
<svg
   xmlns:dc="http://purl.org/dc/elements/1.1/"
   xmlns:cc="http://creativecommons.org/ns#"
   xmlns:rdf="http://www.w3.org/1999/02/22-rdf-syntax-ns#"
   xmlns:svg="http://www.w3.org/2000/svg"
   xmlns="http://www.w3.org/2000/svg"
   xmlns:xlink="http://www.w3.org/1999/xlink"
   xmlns:sodipodi="http://sodipodi.sourceforge.net/DTD/sodipodi-0.dtd"
   xmlns:inkscape="http://www.inkscape.org/namespaces/inkscape"
   width="600"
   height="400"
   version="1.1"
   id="svg13512"
   sodipodi:docname="portugal.svg"
   inkscape:version="0.92.1 r">
  <metadata
     id="metadata13518">
    <rdf:RDF>
      <cc:Work
         rdf:about="">
        <dc:format>image/svg+xml</dc:format>
        <dc:type
           rdf:resource="http://purl.org/dc/dcmitype/StillImage" />
        <dc:title></dc:title>
      </cc:Work>
    </rdf:RDF>
  </metadata>
  <defs
     id="defs13516">
    <clipPath
       clipPathUnits="userSpaceOnUse"
       id="clipPath21602">
      <path
         inkscape:connector-curvature="0"
         id="path21604"
         d="m 494,0 -204.96485,118.33683 -1.89921,232.28713 c 3.9e-4,-13.67524 1.3694,-27.31604 4.08654,-40.71864 -2.71714,13.4026 -4.08615,27.0434 -4.08654,40.71864 -7.8e-4,113.19929 91.76557,204.96564 204.96484,204.96485 113.19827,-6.3e-4 204.96304,-91.76659 204.96226,-204.96485 l 1.8992,-232.28713 z"
         style="opacity:1;fill:#000000;fill-opacity:1;stroke:none;stroke-width:20.14422417;stroke-miterlimit:4;stroke-dasharray:none;stroke-opacity:1" />
    </clipPath>
    <clipPath
       clipPathUnits="userSpaceOnUse"
       id="clipPath15614">
      <path
         inkscape:connector-curvature="0"
         id="path15616"
         d="m 65.106384,-194.32625 -210.212004,121.366272 -1.9478,238.233718 c 4e-4,-14.02533 1.4044,-28.01534 4.1911,-41.76105 -2.7867,13.74571 -4.1907,27.73572 -4.1911,41.76105 -8e-4,116.09726 94.114804,210.21286 210.212004,210.21206 116.096096,-7e-4 210.210096,-94.1159 210.209296,-210.21206 l 1.9478,-238.233718 z"
         style="display:inline;opacity:1;fill:#000000;fill-opacity:1;stroke:#000000;stroke-width:4.04069328;stroke-miterlimit:4;stroke-dasharray:none;stroke-opacity:1"
         inkscape:export-xdpi="96"
         inkscape:export-ydpi="96" />
    </clipPath>
  </defs>
  <sodipodi:namedview
     pagecolor="#ffffff"
     bordercolor="#666666"
     borderopacity="1"
     objecttolerance="10"
     gridtolerance="10"
     guidetolerance="10"
     inkscape:pageopacity="0"
     inkscape:pageshadow="2"
     inkscape:window-width="1683"
     inkscape:window-height="1046"
     id="namedview13514"
     showgrid="false"
     inkscape:zoom="1.994156"
     inkscape:cx="1136.9176"
     inkscape:cy="-112.16928"
     inkscape:window-x="287"
     inkscape:window-y="285"
     inkscape:window-maximized="0"
     inkscape:current-layer="svg13512" />
  <circle
     style="display:none;fill:#000000;fill-opacity:1;stroke:#000000;stroke-width:1.02552795;stroke-miterlimit:4;stroke-dasharray:none;stroke-opacity:1"
     id="path22523"
     cx="1121.7583"
     cy="126.33302"
     r="80.813866" />
  <path
     inkscape:connector-curvature="0"
     id="path13516"
     d="m 1114.7524,205.9822 c -9.4722,-0.78373 -19.4893,-3.48655 -27.8482,-7.51394 -21.1962,-10.21251 -36.5101,-28.26898 -42.9359,-50.62521 -3.7734,-13.12803 -3.9955,-29.27699 -0.5858,-42.58512 2.744,-10.709719 8.4276,-21.938038 15.6621,-30.941422 4.5461,-5.657803 12.5267,-12.744694 18.962,-16.838636 9.3387,-5.940983 20.0089,-9.970201 31.0926,-11.740978 5.1505,-0.822871 16.3248,-1.004266 21.9043,-0.355573 26.6003,3.092682 49.6697,18.905604 62.0727,42.547798 11.8757,22.637001 12.3066,49.889171 1.1525,72.883061 -12.2556,25.26422 -36.9768,42.47795 -64.6782,45.03643 -3.5136,0.32447 -11.6076,0.39761 -14.7981,0.13359 z m 10.0234,-12.07979 c 1.4506,-0.002 2.723,-0.78701 5.4994,-3.39061 l 1.3082,-1.22671 -0.218,-2.09869 c -0.12,-1.15429 -0.4363,-2.97652 -0.703,-4.04942 -0.6679,-2.68631 -0.37,-4.74641 1.5451,-10.68586 2.9904,-9.274 3.2252,-11.54108 1.6187,-15.62945 -1.1237,-2.8598 -1.0088,-6.83084 0.3225,-11.14013 0.5368,-1.73753 1.154,-4.0196 1.3716,-5.07127 0.2176,-1.05165 0.554,-1.9121 0.7475,-1.9121 0.1934,0 0.9257,0.51851 1.6271,1.15225 1.368,1.23583 3.8359,2.5886 5.4561,2.99067 0.5487,0.13622 3.656,0.58144 6.9052,0.98948 8.9966,1.12986 11.5632,0.51696 16.0486,-3.83225 3.9925,-3.87136 5.9637,-8.73475 5.9181,-14.6018 -0.042,-5.36982 -2.2056,-10.5015 -5.8414,-13.8527 -2.9357,-2.70588 -5.905,-3.55976 -14.2182,-4.08874 -4.9014,-0.31187 -6.098,-0.2938 -7.5852,0.1146 -1.4407,0.39566 -1.7966,0.40483 -1.9329,0.0497 -0.2824,-0.73617 0.6955,-2.55915 2.7868,-5.19466 2.4086,-3.035419 2.8079,-3.779061 4.1301,-7.691607 0.8994,-2.661484 1.0045,-3.346664 0.8528,-5.556818 -0.2103,-3.06245 -1.4092,-6.209657 -3.0627,-8.039889 -1.9147,-2.119295 -1.4223,-3.739928 1.7075,-5.619966 2.7733,-1.665937 3.6024,-3.401755 3.6024,-7.542237 0,-3.432108 -0.4618,-4.462129 -2.4575,-5.480554 -0.594,-0.303149 -1.3316,-0.77275 -1.6391,-1.043549 -1.0301,-0.907362 -3.8172,-1.964779 -5.3089,-2.014245 -1.5571,-0.05164 -1.8739,0.204774 -2.1992,1.780006 -0.1086,0.525613 -0.8615,1.320531 -2.0474,2.16152 -2.5156,1.783974 -2.8071,2.087398 -2.8179,2.933495 -0.01,0.398445 -0.43,1.95134 -0.9441,3.450849 -0.856,2.496971 -0.8976,2.832777 -0.4945,3.990508 0.6424,1.844892 0.5555,3.187145 -0.2632,4.065964 -1.1521,1.236605 -3.6658,2.685065 -4.6599,2.685065 -0.506,0 -1.7861,0.320281 -2.8446,0.711744 -2.4798,0.917083 -6.3622,4.790969 -7.7938,7.776783 -1.0264,2.14067 -4.0177,6.27421 -7.0928,9.801259 -2.4968,2.863682 -3.548,4.657492 -7.0154,11.971482 -1.6041,3.38361 -3.1704,6.52612 -3.4807,6.98337 -0.3104,0.45724 -0.8912,1.47713 -1.2907,2.26641 -0.3995,0.78929 -0.8923,1.37975 -1.0951,1.31213 -0.2028,-0.0676 -0.6187,-1.03583 -0.9241,-2.15161 -0.8963,-3.27425 -2.3174,-5.74718 -4.6521,-8.09542 -3.8368,-3.85913 -6.3496,-4.56829 -14.0831,-3.97452 -8.1173,0.62324 -10.3627,1.38985 -13.4343,4.58658 -5.2354,5.44878 -6.211,14.51603 -2.3428,21.77353 1.418,2.66055 4.9636,5.94531 7.4601,6.91128 1.7809,0.68909 2.4314,0.74706 7.7632,0.69196 3.2007,-0.0331 6.7174,-0.21819 7.8148,-0.41135 5.9424,-1.04603 10.7919,-6.52453 11.8911,-13.43359 0.2181,-1.37063 0.5078,-2.49203 0.6439,-2.49203 0.1361,0 0.8574,0.318 1.603,0.70665 1.9095,0.99525 2.9341,0.91101 4.0452,-0.33254 0.9099,-1.01837 0.9886,-1.03919 3.9261,-1.03919 1.8532,0 2.9975,0.13194 2.9975,0.34579 0,0.19018 -0.3091,0.95167 -0.6869,1.69221 -0.3778,0.74054 -1.1551,3.31593 -1.7273,5.7231 -1.1383,4.78805 -1.3548,9.68121 -0.5561,12.56745 0.2211,0.79911 0.4302,3.02416 0.4645,4.9446 0.034,1.92042 0.2429,4.82908 0.4634,6.46368 0.3125,2.31562 0.3128,3.38054 0,4.82184 -0.2405,1.11332 -0.419,5.09379 -0.4483,9.99713 -0.027,4.48099 -0.1638,8.46572 -0.3043,8.85494 -0.1406,0.38923 -0.6141,0.87102 -1.0522,1.07065 -0.4602,0.2097 -0.7236,0.55322 -0.6237,0.81354 0.2759,0.71909 -1.086,3.56015 -1.7067,3.56015 -0.4188,0 -0.4973,0.19679 -0.3354,0.84162 0.1559,0.62141 -0.051,1.2226 -0.7907,2.29777 -0.8193,1.19079 -1.2474,1.49763 -2.3496,1.68385 -0.8628,0.14577 -1.5253,0.49865 -1.8412,0.98078 -1.1335,1.73005 0.4913,2.42016 4.791,2.03482 2.0631,-0.18487 2.9865,-0.46874 4.8732,-1.49814 1.2803,-0.69853 2.8387,-1.38074 3.4632,-1.516 0.6244,-0.13525 2.0974,-0.6776 3.2732,-1.20518 2.1982,-0.98623 3.0736,-1.17665 3.0736,-0.66854 0,0.51307 -1.7088,3.36731 -2.016,3.36731 -0.1631,0 -0.5421,0.37485 -0.8423,0.83302 -1.0331,1.57674 0.3088,2.20663 4.1884,1.96607 1.1889,-0.0737 2.7814,-0.13512 3.5389,-0.13636 z m -4.2785,-9.2304 c -0.2807,-0.32006 -0.7606,-1.07598 -1.0666,-1.67981 -0.306,-0.60383 -0.7793,-1.18345 -1.0519,-1.28804 -0.2726,-0.10454 -0.8084,-0.80334 -1.1907,-1.55275 -0.5969,-1.17013 -0.6679,-1.73965 -0.5025,-4.03262 0.2193,-3.03873 1.4143,-8.64711 2.0625,-9.67919 0.7388,-1.17657 1.4912,-4.17076 1.4919,-5.93718 4e-4,-0.92703 -0.245,-3.02427 -0.5453,-4.66054 -0.4314,-2.35014 -0.4727,-3.36298 -0.1968,-4.82186 0.9649,-5.10207 1.8963,-4.86457 4.4944,1.14608 0.9775,2.26142 1.0086,2.4937 1.0903,8.14726 0.046,3.20071 0.2474,6.99004 0.447,8.42073 0.6381,4.57334 0.4685,8.08719 -0.5006,10.36786 -0.4662,1.09739 -1.0003,2.51901 -1.1869,3.15915 -0.3587,1.23046 -1.8011,2.99286 -2.4495,2.99286 -0.2118,0 -0.6147,-0.26187 -0.8953,-0.58195 z m -13.8921,-65.13283 c 0,-3.30743 0.6296,-4.40796 3.8785,-6.77925 2.5632,-1.87085 4.2175,-3.70068 5.8641,-6.48647 0.5116,-0.86561 0.9771,-1.51857 1.0344,-1.45104 0.057,0.0675 0.2013,0.7562 0.3198,1.53038 0.2107,1.37538 0.188,1.4191 -0.9903,1.91141 -1.0067,0.42065 -1.1727,0.62752 -1.0052,1.25277 0.1105,0.41188 0.2028,1.29858 0.2053,1.97041 0,0.8053 0.2813,1.55048 0.8169,2.18697 l 0.8124,0.96545 -0.7985,1.72341 c -0.8269,1.78482 -2.4307,4.2719 -3.3429,5.18414 -0.4026,0.40256 -1.2492,0.52373 -3.6592,0.52373 h -3.1353 z"
     style="display:none;fill:#ffffff;stroke:#000000;stroke-width:1.45788217;stroke-miterlimit:4;stroke-dasharray:none;stroke-opacity:1" />
  <path
     inkscape:connector-curvature="0"
     id="path8204"
     d="m 1428.7701,289.58342 -109.4668,79.1672 V 235.58044 Z"
     style="display:inline;opacity:1;fill:#000000;fill-rule:evenodd;stroke:none;stroke-width:1.37732792px;stroke-linecap:butt;stroke-linejoin:miter;stroke-opacity:1" />
  <path
     inkscape:connector-curvature="0"
     id="path8202"
     d="m 823.68045,282.91926 c 61.35684,-61.35679 61.35684,-61.35679 61.35684,-61.35679 l 48.39403,83.82095 z"
     style="opacity:1;fill:#000000;fill-rule:evenodd;stroke:none;stroke-width:1.37732792px;stroke-linecap:butt;stroke-linejoin:miter;stroke-opacity:1" />
  <path
     id="path8182"
     d="m 1122.61,-59.264158 -6.8866,3.975953 -6.8866,3.975962 -223.85348,129.24286 -2.07675,254.176163 c -8e-4,0.16729 -0.002,-0.37101 -0.002,0.0372 v 0.0242 l -0.11033,13.63613 h 0.80167 c 7.15011,124.65038 110.67119,224.09911 237.06719,224.09822 131.0053,-7.2e-4 237.7567,-106.75309 237.7558,-237.75851 L 1360.498,78.081222 1122.6103,-59.26419 Z"
     style="color:#000000;font-style:normal;font-variant:normal;font-weight:normal;font-stretch:normal;font-size:medium;line-height:normal;font-family:sans-serif;text-indent:0;text-align:start;text-decoration:none;text-decoration-line:none;text-decoration-style:solid;text-decoration-color:#000000;letter-spacing:normal;word-spacing:normal;text-transform:none;writing-mode:lr-tb;direction:ltr;baseline-shift:baseline;text-anchor:start;white-space:normal;clip-rule:nonzero;display:inline;overflow:visible;visibility:visible;opacity:1;isolation:auto;mix-blend-mode:normal;color-interpolation:sRGB;color-interpolation-filters:linearRGB;solid-color:#000000;solid-opacity:1;fill:#000000;fill-opacity:1;fill-rule:nonzero;stroke:none;stroke-width:27.54655838;stroke-linecap:butt;stroke-linejoin:miter;stroke-miterlimit:4;stroke-dasharray:none;stroke-dashoffset:0;stroke-opacity:1;color-rendering:auto;image-rendering:auto;shape-rendering:auto;text-rendering:auto;enable-background:accumulate"
     inkscape:connector-curvature="0" />
  <path
     id="path8173"
     d="m 1122.61,-43.360329 -6.8866,3.975962 -217.03136,125.304558 -2.01219,246.111279 h 0.002 c -3e-5,0.038 -0.006,0.0752 -0.006,0.11297 -8.1e-4,123.54089 100.44438,223.98606 223.98525,223.98525 123.5398,-7.3e-4 223.9834,-100.44549 223.9826,-223.98525 l 2.0149,-246.148923 z"
     style="color:#000000;font-style:normal;font-variant:normal;font-weight:normal;font-stretch:normal;font-size:medium;line-height:normal;font-family:sans-serif;text-indent:0;text-align:start;text-decoration:none;text-decoration-line:none;text-decoration-style:solid;text-decoration-color:#000000;letter-spacing:normal;word-spacing:normal;text-transform:none;writing-mode:lr-tb;direction:ltr;baseline-shift:baseline;text-anchor:start;white-space:normal;clip-rule:nonzero;display:inline;overflow:visible;visibility:visible;opacity:1;isolation:auto;mix-blend-mode:normal;color-interpolation:sRGB;color-interpolation-filters:linearRGB;solid-color:#000000;solid-opacity:1;fill:#ffffff;fill-opacity:1;fill-rule:nonzero;stroke:none;stroke-width:27.54655838;stroke-linecap:butt;stroke-linejoin:miter;stroke-miterlimit:4;stroke-dasharray:none;stroke-dashoffset:0;stroke-opacity:1;color-rendering:auto;image-rendering:auto;shape-rendering:auto;text-rendering:auto;enable-background:accumulate"
     inkscape:connector-curvature="0" />
  <path
     inkscape:connector-curvature="0"
     id="path8151"
     d="M 1122.6113,-27.456346 912.3993,93.909918 910.45148,332.14364 c 4e-4,-14.02533 1.40445,-28.01534 4.19115,-41.76105 -2.7867,13.74571 -4.19075,27.73572 -4.19115,41.76105 -8.1e-4,116.0972 94.11482,210.21278 210.21202,210.21197 116.0961,-6.4e-4 210.2101,-94.11583 210.2093,-210.21197 l 1.9478,-238.233722 z"
     style="display:inline;opacity:1;fill:#000000;fill-opacity:1;stroke:#000000;stroke-width:4.04069328;stroke-miterlimit:4;stroke-dasharray:none;stroke-opacity:1"
     inkscape:export-xdpi="96"
     inkscape:export-ydpi="96" />
  <path
     inkscape:connector-curvature="0"
     id="path8149"
     d="m 996.83163,243.01629 a 187.5691,224.47457 42.430655 0 1 0.002,-4.9e-4 187.5691,224.47457 42.430655 0 0 -13.98288,17.5219 187.5691,224.47457 42.430655 0 1 13.98026,-17.52141 z"
     style="opacity:1;fill:#000000;fill-opacity:1;stroke:none;stroke-width:20.65991974;stroke-miterlimit:4;stroke-dasharray:none;stroke-opacity:1" />
  <path
     inkscape:connector-curvature="0"
     id="path8144"
     d="m 950.79706,318.58703 a 187.5691,224.47457 42.430655 0 0 -12.10799,41.31665 187.5691,224.47457 42.430655 0 1 12.10799,-41.31665 z"
     style="opacity:1;fill:#000000;fill-opacity:1;stroke:none;stroke-width:20.65991974;stroke-miterlimit:4;stroke-dasharray:none;stroke-opacity:1" />
  <g
     id="g15612"
     clip-path="url(#clipPath15614)"
     transform="translate(1058.5133,167.02504)">
    <rect
       style="fill:#ff0000;stroke-width:1.48581564"
       y="-194.32625"
       x="-291.48935"
       id="rect13400"
       height="594.32623"
       width="891.48938" />
    <rect
       style="fill:#006600;stroke-width:1.48581564"
       y="-194.32625"
       x="-291.48935"
       id="rect13402"
       height="594.32623"
       width="356.59573" />
  </g>
  <path
     inkscape:connector-curvature="0"
     id="path8197"
     d="m 822.2937,284.0766 v 16.13352 97.89072 L 1428.7701,289.022 V 174.99782 Z"
     style="color:#000000;font-style:normal;font-variant:normal;font-weight:normal;font-stretch:normal;font-size:medium;line-height:normal;font-family:sans-serif;text-indent:0;text-align:start;text-decoration:none;text-decoration-line:none;text-decoration-style:solid;text-decoration-color:#000000;letter-spacing:normal;word-spacing:normal;text-transform:none;writing-mode:lr-tb;direction:ltr;baseline-shift:baseline;text-anchor:start;white-space:normal;clip-rule:nonzero;display:inline;overflow:visible;visibility:visible;opacity:1;isolation:auto;mix-blend-mode:normal;color-interpolation:sRGB;color-interpolation-filters:linearRGB;solid-color:#000000;solid-opacity:1;fill:#000000;fill-opacity:1;fill-rule:nonzero;stroke:none;stroke-width:33.05587006;stroke-linecap:butt;stroke-linejoin:miter;stroke-miterlimit:4;stroke-dasharray:none;stroke-dashoffset:0;stroke-opacity:1;color-rendering:auto;image-rendering:auto;shape-rendering:auto;text-rendering:auto;enable-background:accumulate" />
  <rect
     transform="matrix(0.98420792,-0.17701632,0,1,0,0)"
     y="448.10437"
     x="851.8808"
     height="81.758057"
     width="583.4212"
     id="rect8189"
     style="opacity:1;fill:#ffffff;fill-opacity:1;stroke:none;stroke-width:27.54655838;stroke-miterlimit:4;stroke-dasharray:none;stroke-opacity:1" />
  <text
     id="text8185"
     style="font-style:normal;font-variant:normal;font-weight:bold;font-stretch:normal;font-size:14.87255669px;line-height:0%;font-family:Aharoni;-inkscape-font-specification:'Aharoni, Bold';text-align:start;letter-spacing:0px;word-spacing:0px;writing-mode:lr-tb;text-anchor:start;opacity:1;fill:#003399;fill-opacity:1;stroke:none;stroke-width:1.23937988px;stroke-linecap:butt;stroke-linejoin:miter;stroke-opacity:1"
     xml:space="preserve"
     y="509.08813"
     x="855.04449"
     transform="matrix(0.99256736,-0.18120346,0,1.0074883,0,0)"><tspan
       y="509.08813"
       x="855.04449"
       id="tspan8187"
       sodipodi:role="line"
       style="font-size:56.92740631px;line-height:1.25;font-family:sans-serif;fill:#003399;fill-opacity:1;stroke-width:1.23937988px">BARRA TRIFECTA</tspan></text>
  <g
     transform="matrix(1.3773279,0,0,1.3773279,430.21761,-560.75157)"
     id="text13433"
     style="font-style:normal;font-weight:normal;font-size:35.39293289px;line-height:125%;font-family:sans-serif;letter-spacing:9.21000004px;word-spacing:0px;display:inline;opacity:1;fill:#ffff00;fill-opacity:1;stroke:none;stroke-width:1px;stroke-linecap:butt;stroke-linejoin:miter;stroke-opacity:1">
    <path
       id="path13443"
       style="letter-spacing:9.21000004px;fill:#ffff00;fill-opacity:1"
       d="m 436.31693,735.62878 -24.37274,12.48454 -3.34347,-3.10426 10.64425,-25.23082 2.68491,2.49282 -9.48932,22.08195 21.31811,-11.09945 z"
       inkscape:connector-curvature="0" />
    <path
       id="path13445"
       style="letter-spacing:9.21000004px;fill:#ffff00;fill-opacity:1"
       d="m 437.63492,766.33032 -8.74449,-5.17618 1.33807,-2.26048 2.89995,1.71659 10.4316,-17.62282 -2.89995,-1.71659 1.33806,-2.26048 8.74449,5.17618 -1.33807,2.26048 -2.89995,-1.71659 -10.4316,17.62282 2.89995,1.71659 z"
       inkscape:connector-curvature="0" />
    <path
       id="path13447"
       style="letter-spacing:9.21000004px;fill:#ffff00;fill-opacity:1"
       d="m 471.27353,771.84199 q -0.47315,1.42711 -1.60797,2.59845 -1.11842,1.17677 -2.63676,1.74757 -1.66036,0.61475 -3.61133,0.62337 -1.93458,0.014 -4.39513,-0.80173 -2.64099,-0.8756 -4.5939,-2.06928 -1.93651,-1.18824 -3.79733,-2.87938 l 1.34875,-4.0681 0.22965,0.0761 q 1.3424,2.15649 3.49277,3.79798 2.15038,1.64148 4.28286,2.34849 3.01827,1.00069 5.0667,0.42356 2.06483,-0.57168 2.69026,-2.4581 0.53841,-1.62397 -0.01,-2.66143 -0.53176,-1.03202 -2.01432,-1.99692 -1.12151,-0.73596 -2.49433,-1.4278 -1.35641,-0.6864 -2.8552,-1.54745 -3.01951,-1.76578 -4.04497,-3.94464 -1.00362,-2.18983 -0.11714,-4.86363 1.017,-3.06748 4.25596,-4.16023 3.2444,-1.10916 7.23049,0.2124 2.57537,0.85385 4.56109,2.0584 1.98573,1.20456 3.4032,2.47561 l -1.27261,3.83845 -0.22965,-0.0761 q -1.00274,-1.64333 -3.02724,-3.17026 -2.00265,-1.53789 -4.38118,-2.32647 -2.60818,-0.86473 -4.55828,-0.30962 -1.93369,0.56054 -2.4993,2.26652 -0.50578,1.52554 -0.007,2.65599 0.49913,1.13044 2.33169,2.2478 0.9737,0.57772 2.80056,1.54753 1.82686,0.96982 3.05775,1.76026 2.48372,1.62455 3.37759,3.54131 0.89388,1.91676 0.0237,4.54135 z"
       inkscape:connector-curvature="0" />
    <path
       id="path13449"
       style="letter-spacing:9.21000004px;fill:#ffff00;fill-opacity:1"
       d="m 503.63146,760.34113 -9.16297,-0.75308 -1.85865,22.61463 -3.41028,-0.28028 1.85865,-22.61463 -9.16297,-0.75309 0.24914,-3.03136 21.73622,1.78646 z"
       inkscape:connector-curvature="0" />
    <path
       id="path13451"
       style="letter-spacing:9.21000004px;fill:#ffff00;fill-opacity:1"
       d="m 534.56059,779.07538 -3.60229,0.56569 -3.60519,-6.69366 -10.99468,1.72654 -1.37998,7.4765 -3.43157,0.53888 5.26133,-26.87402 4.50713,-0.70777 z m -8.70466,-8.86676 -6.41571,-11.78025 -2.5132,13.1824 z"
       inkscape:connector-curvature="0" />
    <path
       id="path13453"
       style="letter-spacing:9.21000004px;fill:#ffff00;fill-opacity:1"
       d="m 551.35697,767.95234 -0.5501,12.31175 -2.3597,0.89332 -1.19543,-11.65095 z"
       inkscape:connector-curvature="0" />
    <path
       id="path13455"
       style="letter-spacing:9.21000004px;fill:#ffff00;fill-opacity:1"
       d="m 583.00563,753.73556 q -0.57575,0.86255 -1.03407,1.5881 -0.44379,0.71622 -1.27609,1.72295 -0.70967,0.84586 -1.63534,1.70717 -0.90179,0.86651 -2.15243,1.66949 -2.35585,1.51259 -4.71014,2.1 -2.34908,0.56353 -4.67991,0.0679 -2.28308,-0.48517 -4.43156,-2.10415 -2.15781,-1.63353 -3.96918,-4.45473 -1.718,-2.67579 -2.31565,-5.26995 -0.59766,-2.59415 -0.10621,-4.9634 0.47584,-2.29762 1.94832,-4.29043 1.48703,-2.00214 3.87197,-3.5334 1.74508,-1.12043 3.74638,-1.8098 2.01585,-0.69871 4.82062,-1.00032 l 2.19419,3.41745 -0.21814,0.14005 q -2.75041,-0.34941 -4.94886,0.0969 -2.19846,0.44628 -4.2053,1.73478 -1.64328,1.05507 -2.62116,2.4428 -0.97268,1.36385 -1.28624,3.14653 -0.30315,1.73492 0.20345,3.77143 0.51181,2.01263 1.91235,4.19397 1.4659,2.28315 3.13175,3.53428 1.68039,1.24179 3.31765,1.64872 1.7089,0.42254 3.39746,0.0777 1.69377,-0.36869 3.20617,-1.33974 2.07955,-1.33518 3.43983,-3.21487 1.36028,-1.87969 2.03037,-4.32257 l 0.20359,-0.13071 2.16618,3.37381 z"
       inkscape:connector-curvature="0" />
    <path
       id="path13457"
       style="letter-spacing:9.21000004px;fill:#ffff00;fill-opacity:1"
       d="m 608.56147,731.21252 -2.49215,2.66189 -6.95992,-3.05974 -7.60638,8.12446 3.51106,6.74351 -2.37404,2.53574 -12.38303,-24.42447 3.11815,-3.33053 z m -12.3172,-1.6362 -12.30474,-5.34127 6.1275,11.93925 z"
       inkscape:connector-curvature="0" />
  </g>
  <g
     transform="matrix(0.13151453,0,0,0.13151453,1071.2732,358.25048)"
     style="display:inline;opacity:1;fill:#ffff00;fill-opacity:1"
     id="g13501">
    <path
       inkscape:connector-curvature="0"
       id="path8425"
       d="M 733.21972,-9.8409314 612.17479,111.20399 l -5.83983,-5.84472 -19.917,19.92187 12.73437,12.73438 -411.49901,411.49901 -12.73438,-12.73437 -19.92187,19.917 5.84472,5.83984 -121.044915,121.04495 22.9834,22.9834 121.044915,-121.04495 5.83984,5.84472 19.91699,-19.92187 -12.73438,-12.73438 411.49903,-411.49903 12.73437,12.73438 19.92188,-19.91699 -5.84473,-5.83984 121.04493,-121.044921 z m 0,0"
       style="fill:#ffff00;fill-opacity:1;fill-rule:nonzero;stroke:none" />
    <path
       inkscape:connector-curvature="0"
       id="path8427"
       d="m 756.20312,683.58195 -121.04493,-121.04496 5.84473,-5.83983 -19.92188,-19.917 -12.73437,12.73437 -411.49903,-411.49901 12.73438,-12.73438 -19.91699,-19.92187 -5.83984,5.84472 L 62.780275,-9.8409314 39.796875,13.142469 160.84179,134.18739 l -5.84472,5.83984 19.92187,19.91699 12.73438,-12.73438 411.49901,411.49903 -12.73437,12.73437 19.917,19.92188 5.83983,-5.84472 121.04493,121.04495 z m 0,0"
       style="fill:#ffff00;fill-opacity:1;fill-rule:nonzero;stroke:none" />
  </g>
  <g
     id="g15604"
     transform="matrix(0.59400638,0,0,0.59400638,1083.053,39.753062)">
    <g
       transform="matrix(1.4858156,0,0,1.4858156,-291.48936,-194.32624)"
       style="fill:#ffff00;fill-rule:evenodd;stroke:#000000;stroke-width:0.57300001;stroke-linecap:round;stroke-linejoin:round"
       id="g13446">
      <path
         inkscape:connector-curvature="0"
         id="path13404"
         d="M 318.24,262.04 C 288.03,261.13 149.5,174.66 148.55,160.89 l 7.6496,-12.757 c 13.741,19.966 155.36,104.06 169.27,101.08 l -7.2299,12.823" />
      <path
         inkscape:connector-curvature="0"
         id="path13406"
         d="m 154.59,146.4 c -2.7101,7.2937 36.149,31.318 82.903,59.754 46.752,28.434 87.065,46.006 90.053,43.486 0.18256,-0.32544 1.4701,-2.5409 1.352,-2.5232 -0.56001,0.84402 -1.9234,1.1104 -4.0506,0.49741 -12.631,-3.6433 -45.575,-18.765 -86.374,-43.506 -40.798,-24.743 -76.294,-47.544 -81.811,-57.232 -0.38363,-0.67116 -0.65702,-1.8962 -0.60146,-2.8487 l -0.13405,-0.002 -1.1747,2.0532 -0.16139,0.32191 h -8.8e-4 z m 164.36,116.04 c -0.51238,0.92957 -1.4675,0.96044 -3.2816,0.76112 -11.3,-1.2506 -45.589,-17.925 -86.162,-42.213 -47.21,-28.26 -86.2,-54.01 -81.97,-60.74 l 1.1509,-2.0346 0.22665,0.0706 c -3.8037,11.405 76.948,57.578 81.702,60.522 46.724,28.947 86.115,45.851 89.601,41.458 l -1.2682,2.181 v -0.002 z" />
      <path
         inkscape:connector-curvature="0"
         id="path13408"
         d="m 240.17,169.23 c 30.237,-0.23901 67.55,-4.1319 89.023,-12.69 l -4.6265,-7.5168 c -12.692,7.0247 -50.21,11.644 -84.652,12.335 -40.736,-0.37483 -69.49,-4.1681 -83.897,-13.835 l -4.3672,8.0045 c 26.484,11.207 53.623,13.587 88.52,13.703" />
      <path
         inkscape:connector-curvature="0"
         id="path13410"
         d="m 330.44,156.71 c -0.73904,1.1818 -14.743,6.0113 -35.373,9.5753 -13.988,2.1325 -32.234,3.9555 -55.004,3.9776 -21.633,0.0203 -39.305,-1.5196 -52.684,-3.3329 -21.656,-3.3955 -32.833,-8.1201 -36.965,-9.7896 0.39509,-0.78581 0.64908,-1.337 1.0301,-2.0708 11.895,4.736 23.124,7.5918 36.279,9.6158 13.291,1.8 30.75,3.362 52.276,3.3417 22.664,-0.0229 40.709,-1.9844 54.616,-4.0534 21.155,-3.4122 32.711,-7.8034 34.334,-9.8425 l 1.494,2.5788 h -0.002 z m -4.0603,-7.6226 c -2.293,1.8415 -13.718,5.8932 -33.819,9.1034 -13.415,1.9226 -30.472,3.6433 -52.265,3.6645 -20.704,0.0203 -37.619,-1.375 -50.485,-3.2491 -20.414,-2.6661 -31.279,-7.4754 -35.196,-8.8776 0.3898,-0.67381 0.78666,-1.3423 1.1941,-2.0135 3.0479,1.5346 13.533,5.7909 34.226,8.7224 12.72,1.8036 29.661,3.1477 50.262,3.1265 21.69,-0.0221 38.553,-1.7762 51.883,-3.6883 20.205,-2.7799 31.077,-7.9472 32.728,-9.241 l 1.4728,2.4509 v 0.002 z" />
      <path
         inkscape:connector-curvature="0"
         id="path13412"
         d="m 140.88,205.66 c 18.598,10.003 59.905,15.044 98.994,15.391 35.591,0.0564 81.958,-5.5016 99.297,-14.69 l -0.47712,-10.012 c -5.4246,8.4773 -55.113,16.609 -99.206,16.276 -44.093,-0.3325 -85.038,-7.1429 -98.687,-15.959 l 0.0794,8.9914" />
      <path
         inkscape:connector-curvature="0"
         id="path13414"
         d="m 340.12,204.22 8.8e-4,2.3874 c -2.606,3.1159 -18.946,7.8255 -39.437,11.142 -15.595,2.391 -35.927,4.1945 -61.262,4.1945 -24.069,0 -43.263,-1.7163 -58.148,-4.0014 -23.529,-3.4264 -38.579,-9.4262 -41.6,-11.217 l 0.0132,-2.7852 c 9.0748,6.0334 33.661,10.447 41.917,11.798 14.788,2.2701 33.868,3.9732 57.817,3.9732 25.216,0 45.434,-1.7912 60.931,-4.1663 14.701,-2.1237 35.644,-7.6465 39.767,-11.324 h 8.8e-4 z m 0.01,-8.4922 8.8e-4,2.3874 c -2.606,3.1142 -18.946,7.8237 -39.437,11.14 -15.595,2.391 -35.927,4.1945 -61.262,4.1945 -24.069,0 -43.263,-1.7145 -58.148,-4.0014 -23.529,-3.4246 -38.579,-9.4245 -41.6,-11.216 l 0.0132,-2.7852 c 9.0748,6.0325 33.661,10.447 41.917,11.796 14.788,2.2719 33.868,3.9758 57.817,3.9758 25.216,0 45.434,-1.7921 60.931,-4.169 14.701,-2.1237 35.644,-7.6465 39.767,-11.324 l 8.8e-4,0.002 z" />
      <path
         inkscape:connector-curvature="0"
         id="path13416"
         d="m 239.79,260.32 c -42.772,-0.25489 -79.421,-11.659 -87.16,-13.544 l 5.6433,8.8344 c 13.67,5.7503 49.424,14.32 81.927,13.371 32.504,-0.94809 60.91,-3.466 80.928,-13.211 l 5.7862,-9.1555 c -13.642,6.425 -60.068,13.639 -87.125,13.705" />
      <path
         style="stroke-width:0.55000001"
         inkscape:connector-curvature="0"
         id="path13418"
         d="m 323.3,253.72 c -0.85016,1.2991 -1.7171,2.5823 -2.5963,3.8294 -9.4417,3.3293 -24.319,6.8245 -30.597,7.844 -12.824,2.6423 -32.665,4.594 -50.274,4.6029 -37.89,-0.55474 -68.905,-7.9719 -83.496,-14.299 l -1.1773,-2.0241 0.19225,-0.30427 1.9966,0.77435 c 25.948,9.2834 55.091,12.987 82.698,13.652 17.538,0.0617 35.095,-2.01 49.292,-4.5491 21.771,-4.3621 30.574,-7.65 33.275,-9.1405 l 0.68701,-0.38541 h -8.8e-4 z m 5.0172,-8.2753 c 0.022,0.0256 0.0441,0.0503 0.0653,0.0776 -0.63585,1.0733 -1.2911,2.1652 -1.9622,3.2623 -5.0357,1.8 -18.702,5.7988 -38.659,8.5893 -13.149,1.7912 -21.322,3.526 -47.479,4.034 -49.015,-1.2471 -80.75,-10.831 -88.289,-13.195 l -1.1174,-2.1431 c 28.406,7.4154 57.422,12.592 89.408,13.121 23.931,-0.50976 34.112,-2.2719 47.152,-4.0499 23.271,-3.6186 34.996,-7.4498 38.515,-8.5558 -0.0441,-0.0635 -0.0961,-0.13053 -0.15433,-0.19932 l 2.5231,-0.9428 -0.002,0.002 z" />
      <path
         inkscape:connector-curvature="0"
         id="path13420"
         d="m 328.83,197.76 c 0.13873,28.137 -14.26,53.386 -25.858,64.525 -16.408,15.759 -38.163,25.896 -63.569,26.363 -28.37,0.52117 -55.12,-17.974 -62.295,-26.099 -14.028,-15.885 -25.449,-36.057 -25.815,-63.243 1.7376,-30.709 13.793,-52.1 31.268,-66.769 17.475,-14.669 40.743,-21.813 60.121,-21.302 22.358,0.59003 48.475,11.558 66.521,33.332 11.823,14.266 16.943,29.748 19.627,53.193 z m -89.186,-96.342 c 54.485,0 99.296,44.338 99.296,98.703 0,54.364 -44.811,98.704 -99.296,98.704 -54.485,0 -98.924,-44.339 -98.924,-98.704 0,-54.365 44.439,-98.703 98.924,-98.703" />
      <path
         inkscape:connector-curvature="0"
         id="path13422"
         d="m 239.91,101.08 c 54.534,0 99.011,44.483 99.011,99.022 0,54.538 -44.478,99.02 -99.011,99.02 -54.534,0 -99.011,-44.481 -99.011,-99.02 0,-54.539 44.478,-99.022 99.011,-99.022 z m -96.832,99.0224 c 0,53.26 43.736,96.842 96.832,96.842 53.097,0 96.833,-43.582 96.833,-96.842 0,-53.262 -43.737,-96.844 -96.833,-96.844 -53.096,0 -96.832,43.584 -96.832,96.844 z" />
      <path
         inkscape:connector-curvature="0"
         id="path13424"
         d="m 239.99,109.31 c 49.731,0 90.693,40.821 90.693,90.704 0,49.884 -40.963,90.703 -90.693,90.703 -49.73,0 -90.693,-40.819 -90.693,-90.703 0,-49.883 40.964,-90.704 90.693,-90.704 z m -88.515,90.7034 c 0,48.685 39.979,88.524 88.515,88.524 48.536,0 88.515,-39.839 88.515,-88.524 0,-48.686 -39.978,-88.525 -88.515,-88.525 -48.536,0 -88.515,39.839 -88.515,88.525 z" />
      <path
         inkscape:connector-curvature="0"
         id="path13426"
         d="m 243.98,100.68 h -8.48545 l 0.01,198.96 h 8.51455 z" />
      <path
         inkscape:connector-curvature="0"
         id="path13428"
         d="m 243.13,99.546 h 2.1598 l 0.0185,201.25 h -2.1616 l -0.0159,-201.25 z m -8.4213,0.0018 h 2.1766 l 0.003,201.25 H 234.71 v -201.25 z" />
      <path
         inkscape:connector-curvature="0"
         id="path13430"
         d="m 338.99,203.935 v -7.3554 l -5.99,-5.58 -34,-9 -49,-5 -59,3 -42,10 -8.48,6.28 v 7.3572 l 21.48,-9.637 51,-8 h 49 l 36,4 25,6 z" />
      <path
         inkscape:connector-curvature="0"
         id="path13432"
         d="m 239.95,184.77 c 23.383,-0.0432 46.07,2.2154 64.065,5.7194 18.569,3.7121 31.637,8.3556 36.105,13.571 l -0.005,2.5823 c -5.3884,-6.4902 -22.973,-11.248 -36.518,-13.968 -17.858,-3.474 -40.393,-5.7168 -63.647,-5.6736 -24.538,0.0459 -47.387,2.3698 -64.984,5.8032 -14.12,2.8019 -32.951,8.3679 -35.302,13.858 v -2.689 c 1.2911,-3.8003 15.313,-9.4792 34.984,-13.417 17.729,-3.4572 40.62,-5.7415 65.302,-5.7864 z m 0.01,-8.4922 c 23.383,-0.0423 46.07,2.2172 64.065,5.7194 18.569,3.7139 31.637,8.3556 36.105,13.571 l -0.005,2.5823 c -5.3884,-6.4885 -22.973,-11.247 -36.518,-13.966 -17.858,-3.4757 -40.393,-5.7185 -63.647,-5.6736 -24.538,0.0441 -47.276,2.3698 -64.875,5.8014 -13.626,2.5832 -33.226,8.3696 -35.412,13.86 v -2.6908 c 1.2911,-3.7588 15.597,-9.6414 34.985,-13.417 17.729,-3.4572 40.62,-5.7397 65.302,-5.7864 z" />
      <path
         inkscape:connector-curvature="0"
         id="path13434"
         d="m 239.48,132.96 c 36.849,-0.18433 68.99,5.1523 83.695,12.685 l 5.3638,9.279 c -12.781,-6.888 -47.456,-14.05 -89.005,-12.979 -33.854,0.20814 -70.027,3.7271 -88.176,13.41 l 6.4035,-10.709 c 14.895,-7.7241 50.022,-11.643 81.72,-11.684" />
      <path
         inkscape:connector-curvature="0"
         id="path13436"
         d="m 239.97,140.62 c 21.017,-0.0556 41.325,1.1298 57.476,4.0437 15.041,2.7993 29.385,7.0009 31.436,9.2604 l 1.5901,2.8099 c -4.9881,-3.257 -17.401,-6.8836 -33.339,-9.906 -16.006,-3.0083 -36.3,-4.0049 -57.2,-3.9502 -23.722,-0.0811 -42.152,1.1712 -57.969,3.9291 -16.728,3.13 -28.334,7.6015 -31.197,9.7261 l 1.5583,-2.9704 c 5.5631,-2.8381 14.39,-6.2592 29.223,-8.9297 16.357,-2.988 34.983,-3.8841 58.423,-4.0128 h -8.8e-4 z m -0.009,-8.4843 c 20.113,-0.0529 39.972,1.068 55.452,3.8506 12.209,2.3768 24.283,6.0872 28.704,9.3892 l 2.3256,3.6954 c -3.9536,-4.3947 -18.836,-8.5593 -31.974,-10.892 -15.361,-2.6494 -34.395,-3.698 -54.508,-3.8656 -21.108,0.0591 -40.615,1.352 -55.752,4.1081 -14.441,2.7481 -23.76,6.0016 -27.703,8.5425 l 2.0451,-3.0868 c 5.4414,-2.8646 14.232,-5.4954 25.303,-7.6465 15.249,-2.7764 34.876,-4.0358 56.108,-4.0949 z" />
      <path
         inkscape:connector-curvature="0"
         id="path13438"
         d="m 289.15,241.26 c -18.218,-3.4008 -36.469,-3.8947 -49.217,-3.7447 -61.407,0.71967 -81.244,12.609 -83.665,16.209 l -4.5894,-7.4815 c 15.634,-11.332 49.073,-17.687 88.587,-17.037 20.518,0.33602 38.224,1.6986 53.119,4.5835 l -4.2358,7.4727" />
      <path
         style="stroke-width:0.55000001"
         inkscape:connector-curvature="0"
         id="path13440"
         d="m 239.58,236.46 c 17.082,0.25488 33.849,0.96044 50.033,3.9784 l -1.172,2.069 c -15.031,-2.7746 -31.055,-3.8365 -48.803,-3.75 -22.663,-0.17727 -45.585,1.9394 -65.541,7.6668 -6.2968,1.7524 -16.721,5.8006 -17.784,9.1458 l -1.1659,-1.9226 c 0.33601,-1.9773 6.6363,-6.081 18.414,-9.3901 22.858,-6.5458 44.239,-7.6491 66.019,-7.799 v 0.002 z m 0.77519,-8.5963 c 17.698,0.33073 35.975,1.1492 53.74,4.6681 l -1.2206,2.1537 c -16.042,-3.1847 -31.369,-4.2466 -52.415,-4.5702 -22.735,0.0414 -46.851,1.6625 -68.778,8.0372 -7.0791,2.062 -19.297,6.5202 -19.704,10.05 l -1.1659,-2.0655 c 0.26545,-3.2059 10.842,-7.388 20.358,-10.156 22.096,-6.4241 46.275,-8.076 69.186,-8.1174 z" />
      <path
         inkscape:connector-curvature="0"
         id="path13442"
         d="M 327.58,247.38 320.201,258.829 299,240 244,203 182,169 149.81,157.99 156.67,145.27 159,144 l 20,5 66,34 38,24 32,23 13,15 z" />
      <path
         inkscape:connector-curvature="0"
         id="path13444"
         d="m 148.65,158.29 c 5.646,-3.8294 47.139,14.655 90.555,40.834 43.301,26.254 84.677,55.921 80.942,61.473 l -1.2285,1.9323 -0.56354,0.4445 c 0.12083,-0.0864 0.74345,-0.84755 -0.0609,-2.906 -1.8449,-6.0704 -31.195,-29.491 -79.894,-58.895 -47.475,-28.309 -87.041,-45.371 -90.997,-40.494 l 1.247,-2.3892 h -8.9e-4 z m 180.44,88.927 c 3.57,-7.052 -34.916,-36.044 -82.632,-64.272 -48.813,-27.666 -83.994,-43.951 -90.42,-39.095 l -1.4278,2.5991 c -0.0124,0.14287 0.052,-0.17727 0.35364,-0.4101 1.1685,-1.0195 3.1052,-0.95074 3.9792,-0.96662 11.065,0.16581 42.667,14.709 87.006,40.128 19.428,11.315 82.071,51.491 81.832,62.789 0.0168,0.97102 0.0803,1.1712 -0.28485,1.6519 l 1.5936,-2.4236 v -0.002 z" />
    </g>
    <g
       transform="matrix(1.4858156,0,0,1.4858156,-291.48936,-194.32624)"
       id="g13510">
      <path
         style="fill:#ffffff;stroke:#000000;stroke-width:0.67036998"
         inkscape:connector-curvature="0"
         id="path13448"
         d="m 180.6,211.01 c 0,16.271 6.6628,30.987 17.457,41.742 10.815,10.778 25.512,17.579 41.809,17.579 16.381,0 31.247,-6.6525 42.016,-17.389 10.769,-10.735 17.443,-25.552 17.446,-41.88 h -0.002 v -79.189 l -118.74,-0.14111 0.0123,79.278 h 0.002 z" />
      <path
         style="fill:#ff0000;stroke:#000000;stroke-width:0.50734001"
         inkscape:connector-curvature="0"
         id="path13450"
         d="m 182.82,211.12 v 0.045 c 0,15.557 6.4414,29.724 16.775,40.009 10.354,10.305 24.614,16.712 40.214,16.712 15.681,0 29.912,-6.3606 40.222,-16.626 10.308,-10.265 16.697,-24.433 16.699,-40.044 h -0.002 V 134.39 l -113.84,-0.0185 -0.0697,76.748 m 91.022,-53.747 0.004,48.891 -0.0414,5.1717 h 8.8e-4 c 0,1.3608 -0.082,2.9122 -0.24076,4.2333 -0.92512,7.7294 -4.4801,14.467 -9.7451,19.708 -6.1636,6.1357 -14.671,9.9413 -24.047,9.9413 -9.327,0 -17.639,-3.9379 -23.829,-10.1 -6.3497,-6.32 -10.03,-14.986 -10.03,-23.947 l -0.0132,-54.023 67.94,0.12259 0.002,0.002 z" />
      <g
         id="castle3">
        <g
           style="fill:#ffff00;stroke:#000000;stroke-width:0.5"
           id="castle">
          <path
             style="stroke:none"
             inkscape:connector-curvature="0"
             id="path13452"
             d="m 190.19,154.43 c 0.13493,-5.521 4.0524,-6.828 4.0806,-6.8474 0.0282,-0.0185 4.2314,1.4076 4.2173,6.8986 l -8.2978,-0.0512" />
          <path
             inkscape:connector-curvature="0"
             id="path13454"
             d="m 186.81,147.69 -0.68172,6.3447 4.1406,0.009 c 0.0397,-5.2493 3.9739,-6.1225 4.0691,-6.1031 0.0891,-0.005 3.9889,1.1606 4.0929,6.1031 h 4.1511 l -0.74962,-6.3932 -15.022,0.0379 v 0.002 z" />
          <path
             inkscape:connector-curvature="0"
             id="path13456"
             d="m 185.85,154.06 h 16.946 c 0.35717,0 0.64908,0.35277 0.64908,0.78404 0,0.43039 -0.29191,0.78141 -0.64908,0.78141 H 185.85 c -0.35717,0 -0.64908,-0.35102 -0.64908,-0.78141 0,-0.43127 0.29191,-0.78404 0.64908,-0.78404 z" />
          <path
             inkscape:connector-curvature="0"
             id="path13458"
             d="m 192.01,154.03 c 0.0185,-3.3126 2.2621,-4.2501 2.2736,-4.2483 8.8e-4,0 2.3423,0.96661 2.3609,4.2483 h -4.6344" />
          <path
             inkscape:connector-curvature="0"
             id="path13460"
             d="m 186.21,145.05 h 16.245 c 0.34218,0 0.62263,0.31839 0.62263,0.70468 0,0.38717 -0.28045,0.70467 -0.62263,0.70467 H 186.21 c -0.34218,0 -0.62263,-0.31573 -0.62263,-0.70467 0,-0.38629 0.28045,-0.70468 0.62263,-0.70468 z" />
          <path
             inkscape:connector-curvature="0"
             id="path13462"
             d="m 186.55,146.47 h 15.538 c 0.32719,0 0.59529,0.31662 0.59529,0.70379 0,0.38805 -0.2681,0.70467 -0.59529,0.70467 H 186.55 c -0.32719,0 -0.59529,-0.31662 -0.59529,-0.70467 0,-0.38717 0.2681,-0.70379 0.59529,-0.70379 z" />
          <path
             inkscape:connector-curvature="0"
             id="path13464"
             d="m 191.57,135.88 1.2267,0.002 v 0.87136 h 0.89513 v -0.89076 l 1.2567,0.004 v 0.88723 h 0.89778 v -0.89076 h 1.2576 l -0.002,2.0117 c 0,0.31574 -0.25398,0.52035 -0.54854,0.52035 h -4.4113 c -0.29633,0 -0.56972,-0.23724 -0.5706,-0.52652 l -0.003,-1.9879 h 8.8e-4 z" />
          <path
             inkscape:connector-curvature="0"
             id="path13466"
             d="m 196.19,138.57 0.27691,6.4514 -4.3028,-0.0159 0.28486,-6.4523 3.741,0.0168" />
          <path
             inkscape:connector-curvature="0"
             d="m 190.94,141.56 0.13141,3.4775 -4.1256,0.002 0.11641,-3.4793 h 3.8786 -8.9e-4 z"
             id="cp1" />
          <use
             height="100%"
             width="100%"
             y="0"
             id="use13469"
             x="10.609"
             xlink:href="#cp1" />
          <path
             inkscape:connector-curvature="0"
             d="m 186.3,139.04 1.1994,0.003 v 0.87224 h 0.8775 v -0.89253 l 1.2294,0.004 v 0.889 h 0.87926 v -0.89253 l 1.2302,0.002 -0.002,2.0117 c 0,0.31398 -0.2487,0.51859 -0.5362,0.51859 h -4.3169 c -0.28926,0 -0.55824,-0.23548 -0.55913,-0.52564 l -0.003,-1.9888 h 8.8e-4 z"
             id="cp2" />
          <use
             height="100%"
             width="100%"
             y="0"
             id="use13472"
             x="10.609"
             xlink:href="#cp2" />
          <path
             style="fill:#000000;stroke:none"
             inkscape:connector-curvature="0"
             id="path13474"
             d="m 193.9,140.61 c -0.0265,-0.62706 0.87661,-0.63411 0.86603,0 v 1.5364 h -0.866 v -1.536" />
          <path
             style="fill:#000000;stroke:none"
             inkscape:connector-curvature="0"
             d="m 188.57,142.84 c -0.003,-0.6059 0.83693,-0.61824 0.82635,0 v 1.1871 h -0.826 v -1.187"
             id="cp3" />
          <use
             height="100%"
             width="100%"
             y="0"
             id="use13477"
             x="10.641"
             xlink:href="#cp3" />
        </g>
        <use
           height="100%"
           width="100%"
           x="0"
           id="use13480"
           y="46.319801"
           xlink:href="#castle" />
        <use
           height="100%"
           width="100%"
           y="0"
           x="0"
           id="use13482"
           transform="rotate(-45.202042,312.76611,180.00356)"
           xlink:href="#castle" />
      </g>
      <use
         height="100%"
         width="100%"
         y="0"
         id="use13485"
         x="45.713799"
         xlink:href="#castle" />
      <use
         height="100%"
         width="100%"
         y="0"
         x="0"
         id="use13487"
         transform="matrix(-1,0,0,1,479.79195,0)"
         xlink:href="#castle3" />
      <g
         style="fill:#ffffff"
         id="quina">
        <path
           style="fill:#003399"
           inkscape:connector-curvature="0"
           id="path13489"
           d="m 232.636,202.406 v 0.005 c 0,2.2119 0.84927,4.2272 2.2118,5.6894 1.3652,1.4667 3.2454,2.3777 5.302,2.3777 2.0672,0 3.9439,-0.90487 5.3029,-2.3654 1.3581,-1.4587 2.2021,-3.47219 2.2021,-5.693 v -10.768 l -14.992,-0.0123 -0.0273,10.766" />
        <circle
           id="circle13491"
           r="1.4859999"
           cy="195.735"
           cx="236.07401" />
        <circle
           id="circle13493"
           r="1.4859999"
           cy="195.742"
           cx="244.392" />
        <circle
           id="circle13495"
           r="1.4859999"
           cy="199.735"
           cx="240.22501" />
        <circle
           id="circle13497"
           r="1.4859999"
           cy="203.916"
           cx="236.07401" />
        <circle
           id="circle13499"
           r="1.4859999"
           cy="203.905"
           cx="244.383" />
      </g>
      <use
         height="100%"
         width="100%"
         x="0"
         id="use13502"
         y="-26.016001"
         xlink:href="#quina" />
      <use
         height="100%"
         width="100%"
         y="0"
         id="use13504"
         x="-20.799"
         xlink:href="#quina" />
      <use
         height="100%"
         width="100%"
         y="0"
         id="use13506"
         x="20.745001"
         xlink:href="#quina" />
      <use
         height="100%"
         width="100%"
         x="0"
         id="use13508"
         y="25.784"
         xlink:href="#quina" />
    </g>
  </g>
</svg>
