<?xml version="1.0" encoding="UTF-8" standalone="no"?>
<svg
   xmlns:dc="http://purl.org/dc/elements/1.1/"
   xmlns:cc="http://creativecommons.org/ns#"
   xmlns:rdf="http://www.w3.org/1999/02/22-rdf-syntax-ns#"
   xmlns:svg="http://www.w3.org/2000/svg"
   xmlns="http://www.w3.org/2000/svg"
   xmlns:sodipodi="http://sodipodi.sourceforge.net/DTD/sodipodi-0.dtd"
   xmlns:inkscape="http://www.inkscape.org/namespaces/inkscape"
   viewBox="0 0 6.0647668 6.2916705"
   width="606.47668"
   height="629.16705"
   version="1.1"
   id="svg15865"
   sodipodi:docname="russia.svg"
   inkscape:version="0.92.1 r">
  <metadata
     id="metadata15871">
    <rdf:RDF>
      <cc:Work
         rdf:about="">
        <dc:format>image/svg+xml</dc:format>
        <dc:type
           rdf:resource="http://purl.org/dc/dcmitype/StillImage" />
        <dc:title />
      </cc:Work>
    </rdf:RDF>
  </metadata>
  <defs
     id="defs15869">
    <clipPath
       clipPathUnits="userSpaceOnUse"
       id="clipPath21602">
      <path
         inkscape:connector-curvature="0"
         id="path21604"
         d="m 494,0 -204.96485,118.33683 -1.89921,232.28713 c 3.9e-4,-13.67524 1.3694,-27.31604 4.08654,-40.71864 -2.71714,13.4026 -4.08615,27.0434 -4.08654,40.71864 -7.8e-4,113.19929 91.76557,204.96564 204.96484,204.96485 113.19827,-6.3e-4 204.96304,-91.76659 204.96226,-204.96485 l 1.8992,-232.28713 z"
         style="opacity:1;fill:#000000;fill-opacity:1;stroke:none;stroke-width:20.14422417;stroke-miterlimit:4;stroke-dasharray:none;stroke-opacity:1" />
    </clipPath>
    <clipPath
       clipPathUnits="userSpaceOnUse"
       id="clipPath17983">
      <path
         inkscape:connector-curvature="0"
         id="path17985"
         d="m 4.2224706,0.31207629 -2.102121,1.21366301 -0.01948,2.3823382 c 4e-6,-0.1402533 0.01404,-0.2801535 0.04191,-0.4176107 -0.02787,0.1374572 -0.04191,0.2773574 -0.04191,0.4176107 -8e-6,1.1609725 0.941148,2.1021287 2.102121,2.1021207 1.160962,-6.5e-6 2.102102,-0.9411587 2.102094,-2.1021207 l 0.01948,-2.3823382 z"
         style="display:inline;opacity:1;fill:#000000;fill-opacity:1;stroke:#000000;stroke-width:0.04040695;stroke-miterlimit:4;stroke-dasharray:none;stroke-opacity:1"
         inkscape:export-xdpi="96"
         inkscape:export-ydpi="96" />
    </clipPath>
  </defs>
  <sodipodi:namedview
     pagecolor="#ffffff"
     bordercolor="#666666"
     borderopacity="1"
     objecttolerance="10"
     gridtolerance="10"
     guidetolerance="10"
     inkscape:pageopacity="0"
     inkscape:pageshadow="2"
     inkscape:window-width="1330"
     inkscape:window-height="855"
     id="namedview15867"
     showgrid="false"
     inkscape:zoom="0.88355392"
     inkscape:cx="198.19691"
     inkscape:cy="-62.157761"
     inkscape:window-x="0"
     inkscape:window-y="23"
     inkscape:window-maximized="0"
     inkscape:current-layer="svg15865" />
  <g
     transform="matrix(0.00131515,0,0,0.00131515,2.4699966,4.1732643)"
     style="display:none;opacity:1;fill:#000000"
     id="g13501">
    <path
       inkscape:connector-curvature="0"
       id="path8425"
       d="M 733.21972,-9.8409314 612.17479,111.20399 l -5.83983,-5.84472 -19.917,19.92187 12.73437,12.73438 -411.49901,411.49901 -12.73438,-12.73437 -19.92187,19.917 5.84472,5.83984 -121.044915,121.04495 22.9834,22.9834 121.044915,-121.04495 5.83984,5.84472 19.91699,-19.92187 -12.73438,-12.73438 411.49903,-411.49903 12.73437,12.73438 19.92188,-19.91699 -5.84473,-5.83984 121.04493,-121.044921 z m 0,0"
       style="fill:#000000;fill-opacity:1;fill-rule:nonzero;stroke:none" />
    <path
       inkscape:connector-curvature="0"
       id="path8427"
       d="m 756.20312,683.58195 -121.04493,-121.04496 5.84473,-5.83983 -19.92188,-19.917 -12.73437,12.73437 -411.49903,-411.49901 12.73438,-12.73438 -19.91699,-19.92187 -5.83984,5.84472 L 62.780275,-9.8409314 39.796875,13.142469 160.84179,134.18739 l -5.84472,5.83984 19.92187,19.91699 12.73438,-12.73438 411.49901,411.49903 -12.73437,12.73437 19.917,19.92188 5.83983,-5.84472 121.04493,121.04495 z m 0,0"
       style="fill:#000000;fill-opacity:1;fill-rule:nonzero;stroke:none" />
  </g>
  <g
     id="g18722"
     inkscape:export-xdpi="96"
     inkscape:export-ydpi="96"
     transform="translate(-2.3931486,7.0713665)">
    <path
       style="display:inline;opacity:1;fill:#000000;fill-rule:evenodd;stroke:none;stroke-width:0.01377328px;stroke-linecap:butt;stroke-linejoin:miter;stroke-opacity:1"
       d="M 8.4579152,-3.5828893 7.3632464,-2.7912169 V -4.1229193 Z"
       id="path8204"
       inkscape:connector-curvature="0" />
    <path
       style="opacity:1;fill:#000000;fill-rule:evenodd;stroke:none;stroke-width:0.01377328px;stroke-linecap:butt;stroke-linejoin:miter;stroke-opacity:1"
       d="M 2.4070161,-3.6495308 C 3.0205847,-4.263099 3.0205847,-4.263099 3.0205847,-4.263099 l 0.4839405,0.8382098 z"
       id="path8202"
       inkscape:connector-curvature="0" />
    <path
       inkscape:connector-curvature="0"
       style="color:#000000;font-style:normal;font-variant:normal;font-weight:normal;font-stretch:normal;font-size:medium;line-height:normal;font-family:sans-serif;text-indent:0;text-align:start;text-decoration:none;text-decoration-line:none;text-decoration-style:solid;text-decoration-color:#000000;letter-spacing:normal;word-spacing:normal;text-transform:none;writing-mode:lr-tb;direction:ltr;baseline-shift:baseline;text-anchor:start;white-space:normal;clip-rule:nonzero;display:inline;overflow:visible;visibility:visible;opacity:1;isolation:auto;mix-blend-mode:normal;color-interpolation:sRGB;color-interpolation-filters:linearRGB;solid-color:#000000;solid-opacity:1;fill:#000000;fill-opacity:1;fill-rule:nonzero;stroke:none;stroke-width:0.2754657;stroke-linecap:butt;stroke-linejoin:miter;stroke-miterlimit:4;stroke-dasharray:none;stroke-dashoffset:0;stroke-opacity:1;color-rendering:auto;image-rendering:auto;shape-rendering:auto;text-rendering:auto;enable-background:accumulate"
       d="m 5.3963133,-7.0713665 -0.068867,0.03976 -0.068866,0.03976 -2.2385355,1.2924292 -0.020767,2.5417627 c -8.1e-6,0.00167 -2.43e-5,-0.00371 -2.43e-5,3.717e-4 v 2.425e-4 l -0.0011,0.1363613 h 0.00802 c 0.071501,1.2465043 1.1067124,2.24099209 2.3706727,2.2409832 1.3100543,-7.27e-6 2.3775688,-1.0675314 2.3775595,-2.3775862 L 7.7752007,-5.6979113 5.396323,-7.071366 Z"
       id="path8182" />
    <path
       inkscape:connector-curvature="0"
       style="color:#000000;font-style:normal;font-variant:normal;font-weight:normal;font-stretch:normal;font-size:medium;line-height:normal;font-family:sans-serif;text-indent:0;text-align:start;text-decoration:none;text-decoration-line:none;text-decoration-style:solid;text-decoration-color:#000000;letter-spacing:normal;word-spacing:normal;text-transform:none;writing-mode:lr-tb;direction:ltr;baseline-shift:baseline;text-anchor:start;white-space:normal;clip-rule:nonzero;display:inline;overflow:visible;visibility:visible;opacity:1;isolation:auto;mix-blend-mode:normal;color-interpolation:sRGB;color-interpolation-filters:linearRGB;solid-color:#000000;solid-opacity:1;fill:#ffffff;fill-opacity:1;fill-rule:nonzero;stroke:none;stroke-width:0.2754657;stroke-linecap:butt;stroke-linejoin:miter;stroke-miterlimit:4;stroke-dasharray:none;stroke-dashoffset:0;stroke-opacity:1;color-rendering:auto;image-rendering:auto;shape-rendering:auto;text-rendering:auto;enable-background:accumulate"
       d="m 5.3963133,-6.9123281 -0.068867,0.03976 -2.1703146,1.2530461 -0.020122,2.4611138 h 2.42e-5 c -2e-7,3.798e-4 -5.65e-5,7.516e-4 -5.65e-5,0.00113 -8.1e-6,1.2354094 1.0044442,2.23986148 2.2398536,2.2398534 1.2353984,-7.28e-6 2.2398353,-1.0044554 2.2398267,-2.2398534 l 0.020149,-2.4614903 z"
       id="path8173" />
    <path
       inkscape:export-ydpi="96"
       inkscape:export-xdpi="96"
       style="display:inline;opacity:1;fill:#000000;fill-opacity:1;stroke:#000000;stroke-width:0.04040695;stroke-miterlimit:4;stroke-dasharray:none;stroke-opacity:1"
       d="M 5.3963256,-6.7532882 3.294205,-5.5396251 3.274727,-3.1572869 c 4e-6,-0.1402533 0.014044,-0.2801535 0.041912,-0.4176107 -0.027867,0.1374572 -0.041908,0.2773574 -0.041912,0.4176107 -8.1e-6,1.1609725 0.9411482,2.1021287 2.1021206,2.1021207 1.1609621,-6.5e-6 2.1021021,-0.9411587 2.102094,-2.1021207 l 0.019478,-2.3823382 z"
       id="path8151"
       inkscape:connector-curvature="0" />
    <path
       style="opacity:1;fill:#000000;fill-opacity:1;stroke:none;stroke-width:0.20659928;stroke-miterlimit:4;stroke-dasharray:none;stroke-opacity:1"
       d="m 4.1385286,-4.0485608 a 1.8756918,2.2447466 42.430655 0 1 2.42e-5,-4.8e-6 1.8756918,2.2447466 42.430655 0 0 -0.1398289,0.1752191 1.8756918,2.2447466 42.430655 0 1 0.1398027,-0.1752143 z"
       id="path8149"
       inkscape:connector-curvature="0" />
    <path
       style="opacity:1;fill:#000000;fill-opacity:1;stroke:none;stroke-width:0.20659928;stroke-miterlimit:4;stroke-dasharray:none;stroke-opacity:1"
       d="m 3.6781827,-3.292853 a 1.8756918,2.2447466 42.430655 0 0 -0.12108,0.4131667 1.8756918,2.2447466 42.430655 0 1 0.12108,-0.4131667 z"
       id="path8144"
       inkscape:connector-curvature="0" />
    <g
       transform="translate(1.1738594,-7.0653644)"
       clip-path="url(#clipPath17983)"
       id="g17981">
      <rect
         style="fill:#ffffff"
         y="0"
         x="0"
         width="9"
         height="3"
         id="rect15859" />
      <rect
         style="fill:#d52b1e"
         x="0"
         y="3"
         width="9"
         height="3"
         id="rect15861" />
      <rect
         style="fill:#0039a6"
         x="0"
         y="2"
         width="9"
         height="2"
         id="rect15863" />
    </g>
    <path
       style="color:#000000;font-style:normal;font-variant:normal;font-weight:normal;font-stretch:normal;font-size:medium;line-height:normal;font-family:sans-serif;text-indent:0;text-align:start;text-decoration:none;text-decoration-line:none;text-decoration-style:solid;text-decoration-color:#000000;letter-spacing:normal;word-spacing:normal;text-transform:none;writing-mode:lr-tb;direction:ltr;baseline-shift:baseline;text-anchor:start;white-space:normal;clip-rule:nonzero;display:inline;overflow:visible;visibility:visible;opacity:1;isolation:auto;mix-blend-mode:normal;color-interpolation:sRGB;color-interpolation-filters:linearRGB;solid-color:#000000;solid-opacity:1;fill:#000000;fill-opacity:1;fill-rule:nonzero;stroke:none;stroke-width:0.33055884;stroke-linecap:butt;stroke-linejoin:miter;stroke-miterlimit:4;stroke-dasharray:none;stroke-dashoffset:0;stroke-opacity:1;color-rendering:auto;image-rendering:auto;shape-rendering:auto;text-rendering:auto;enable-background:accumulate"
       d="m 2.3931486,-3.6379575 v 0.1613353 0.9789076 l 6.0647666,-1.0907888 v -1.1402423 z"
       id="path8197"
       inkscape:connector-curvature="0" />
    <rect
       style="opacity:1;fill:#ffffff;fill-opacity:1;stroke:none;stroke-width:0.27546573;stroke-miterlimit:4;stroke-dasharray:none;stroke-opacity:1"
       id="rect8189"
       width="5.8342161"
       height="0.81758088"
       x="2.5954778"
       y="-3.0462053"
       transform="matrix(0.98420788,-0.17701653,0,1,0,0)" />
    <text
       transform="matrix(0.99397536,-0.18094665,0,1.0060612,0,0)"
       x="2.6784992"
       y="-2.4008601"
       xml:space="preserve"
       style="font-style:normal;font-variant:normal;font-weight:bold;font-stretch:normal;font-size:0.13361755px;line-height:0%;font-family:Aharoni;-inkscape-font-specification:'Aharoni, Bold';text-align:start;letter-spacing:0px;word-spacing:0px;writing-mode:lr-tb;text-anchor:start;opacity:1;fill:#000000;fill-opacity:1;stroke:none;stroke-width:0.0111348px;stroke-linecap:butt;stroke-linejoin:miter;stroke-opacity:1"
       id="text8185"><tspan
         style="font-size:0.5114454px;line-height:1.25;font-family:sans-serif;stroke-width:0.0111348px"
         sodipodi:role="line"
         id="tspan8187"
         x="2.6784992"
         y="-2.4008601">TRIFECTA BARBELL</tspan></text>
    <g
       style="font-style:normal;font-weight:normal;font-size:35.39293289px;line-height:125%;font-family:sans-serif;letter-spacing:9.21000004px;word-spacing:0px;display:inline;opacity:1;fill:#fcd116;fill-opacity:1;stroke:none;stroke-width:1px;stroke-linecap:butt;stroke-linejoin:miter;stroke-opacity:1"
       id="text13433"
       transform="matrix(0.01377329,0,0,0.01377329,-1.527614,-12.086243)">
      <path
         inkscape:connector-curvature="0"
         d="m 436.31693,735.62878 -24.37274,12.48454 -3.34347,-3.10426 10.64425,-25.23082 2.68491,2.49282 -9.48932,22.08195 21.31811,-11.09945 z"
         style="letter-spacing:9.21000004px;fill:#fcd116;fill-opacity:1"
         id="path13443" />
      <path
         inkscape:connector-curvature="0"
         d="m 437.63492,766.33032 -8.74449,-5.17618 1.33807,-2.26048 2.89995,1.71659 10.4316,-17.62282 -2.89995,-1.71659 1.33806,-2.26048 8.74449,5.17618 -1.33807,2.26048 -2.89995,-1.71659 -10.4316,17.62282 2.89995,1.71659 z"
         style="letter-spacing:9.21000004px;fill:#fcd116;fill-opacity:1"
         id="path13445" />
      <path
         inkscape:connector-curvature="0"
         d="m 471.27353,771.84199 q -0.47315,1.42711 -1.60797,2.59845 -1.11842,1.17677 -2.63676,1.74757 -1.66036,0.61475 -3.61133,0.62337 -1.93458,0.014 -4.39513,-0.80173 -2.64099,-0.8756 -4.5939,-2.06928 -1.93651,-1.18824 -3.79733,-2.87938 l 1.34875,-4.0681 0.22965,0.0761 q 1.3424,2.15649 3.49277,3.79798 2.15038,1.64148 4.28286,2.34849 3.01827,1.00069 5.0667,0.42356 2.06483,-0.57168 2.69026,-2.4581 0.53841,-1.62397 -0.01,-2.66143 -0.53176,-1.03202 -2.01432,-1.99692 -1.12151,-0.73596 -2.49433,-1.4278 -1.35641,-0.6864 -2.8552,-1.54745 -3.01951,-1.76578 -4.04497,-3.94464 -1.00362,-2.18983 -0.11714,-4.86363 1.017,-3.06748 4.25596,-4.16023 3.2444,-1.10916 7.23049,0.2124 2.57537,0.85385 4.56109,2.0584 1.98573,1.20456 3.4032,2.47561 l -1.27261,3.83845 -0.22965,-0.0761 q -1.00274,-1.64333 -3.02724,-3.17026 -2.00265,-1.53789 -4.38118,-2.32647 -2.60818,-0.86473 -4.55828,-0.30962 -1.93369,0.56054 -2.4993,2.26652 -0.50578,1.52554 -0.007,2.65599 0.49913,1.13044 2.33169,2.2478 0.9737,0.57772 2.80056,1.54753 1.82686,0.96982 3.05775,1.76026 2.48372,1.62455 3.37759,3.54131 0.89388,1.91676 0.0237,4.54135 z"
         style="letter-spacing:9.21000004px;fill:#fcd116;fill-opacity:1"
         id="path13447" />
      <path
         inkscape:connector-curvature="0"
         d="m 503.63146,760.34113 -9.16297,-0.75308 -1.85865,22.61463 -3.41028,-0.28028 1.85865,-22.61463 -9.16297,-0.75309 0.24914,-3.03136 21.73622,1.78646 z"
         style="letter-spacing:9.21000004px;fill:#fcd116;fill-opacity:1"
         id="path13449" />
      <path
         inkscape:connector-curvature="0"
         d="m 534.56059,779.07538 -3.60229,0.56569 -3.60519,-6.69366 -10.99468,1.72654 -1.37998,7.4765 -3.43157,0.53888 5.26133,-26.87402 4.50713,-0.70777 z m -8.70466,-8.86676 -6.41571,-11.78025 -2.5132,13.1824 z"
         style="letter-spacing:9.21000004px;fill:#fcd116;fill-opacity:1"
         id="path13451" />
      <path
         inkscape:connector-curvature="0"
         d="m 551.35697,767.95234 -0.5501,12.31175 -2.3597,0.89332 -1.19543,-11.65095 z"
         style="letter-spacing:9.21000004px;fill:#fcd116;fill-opacity:1"
         id="path13453" />
      <path
         inkscape:connector-curvature="0"
         d="m 583.00563,753.73556 q -0.57575,0.86255 -1.03407,1.5881 -0.44379,0.71622 -1.27609,1.72295 -0.70967,0.84586 -1.63534,1.70717 -0.90179,0.86651 -2.15243,1.66949 -2.35585,1.51259 -4.71014,2.1 -2.34908,0.56353 -4.67991,0.0679 -2.28308,-0.48517 -4.43156,-2.10415 -2.15781,-1.63353 -3.96918,-4.45473 -1.718,-2.67579 -2.31565,-5.26995 -0.59766,-2.59415 -0.10621,-4.9634 0.47584,-2.29762 1.94832,-4.29043 1.48703,-2.00214 3.87197,-3.5334 1.74508,-1.12043 3.74638,-1.8098 2.01585,-0.69871 4.82062,-1.00032 l 2.19419,3.41745 -0.21814,0.14005 q -2.75041,-0.34941 -4.94886,0.0969 -2.19846,0.44628 -4.2053,1.73478 -1.64328,1.05507 -2.62116,2.4428 -0.97268,1.36385 -1.28624,3.14653 -0.30315,1.73492 0.20345,3.77143 0.51181,2.01263 1.91235,4.19397 1.4659,2.28315 3.13175,3.53428 1.68039,1.24179 3.31765,1.64872 1.7089,0.42254 3.39746,0.0777 1.69377,-0.36869 3.20617,-1.33974 2.07955,-1.33518 3.43983,-3.21487 1.36028,-1.87969 2.03037,-4.32257 l 0.20359,-0.13071 2.16618,3.37381 z"
         style="letter-spacing:9.21000004px;fill:#fcd116;fill-opacity:1"
         id="path13455" />
      <path
         inkscape:connector-curvature="0"
         d="m 608.56147,731.21252 -2.49215,2.66189 -6.95992,-3.05974 -7.60638,8.12446 3.51106,6.74351 -2.37404,2.53574 -12.38303,-24.42447 3.11815,-3.33053 z m -12.3172,-1.6362 -12.30474,-5.34127 6.1275,11.93925 z"
         style="letter-spacing:9.21000004px;fill:#fcd116;fill-opacity:1"
         id="path13457" />
    </g>
    <circle
       r="0.80813903"
       cy="-5.215394"
       cx="5.3877954"
       id="path22523"
       style="fill:#fcd116;fill-opacity:1;stroke:#000000;stroke-width:0.01025528;stroke-miterlimit:4;stroke-dasharray:none;stroke-opacity:1" />
    <path
       style="display:inline;fill:#d52b1e;fill-opacity:1;stroke:#000000;stroke-width:0.01457883;stroke-miterlimit:4;stroke-dasharray:none;stroke-opacity:1"
       d="m 5.317737,-4.4189018 c -0.094722,-0.00784 -0.1948933,-0.034865 -0.2784828,-0.075139 -0.2119617,-0.102125 -0.3651009,-0.2826898 -0.4293589,-0.5062522 -0.037734,-0.1312804 -0.039955,-0.2927701 -0.00586,-0.4258514 0.02744,-0.1070972 0.084276,-0.2193805 0.1566205,-0.3094144 0.045462,-0.056578 0.1252677,-0.127447 0.1896205,-0.1683864 0.093387,-0.05941 0.2000891,-0.099702 0.3109263,-0.1174098 0.051505,-0.00823 0.1632478,-0.010043 0.2190425,-0.00356 0.2660036,0.030927 0.4966978,0.1890561 0.6207281,0.4254781 0.1187568,0.2263702 0.1230659,0.4988919 0.011524,0.7288309 -0.1225552,0.2526423 -0.3697675,0.4247797 -0.6467817,0.4503646 -0.035136,0.00324 -0.1160766,0.00398 -0.147981,0.00134 z m 0.1002342,-0.1207979 c 0.014505,-2.43e-5 0.02723,-0.00787 0.054994,-0.033906 l 0.013081,-0.012267 -0.00218,-0.020987 c -0.0012,-0.011543 -0.00436,-0.029765 -0.00703,-0.040494 -0.00668,-0.026863 -0.0037,-0.047464 0.015451,-0.1068587 0.029904,-0.09274 0.032252,-0.1154109 0.016187,-0.1562946 -0.011237,-0.028598 -0.010088,-0.068308 0.00322,-0.1114013 0.00537,-0.017375 0.01154,-0.040196 0.013716,-0.050713 0.00218,-0.010517 0.00554,-0.019121 0.00747,-0.019121 0.00193,0 0.00926,0.00519 0.016272,0.011522 0.013679,0.012358 0.038359,0.025886 0.05456,0.029907 0.00549,0.00136 0.03656,0.00581 0.069052,0.00989 0.089966,0.011298 0.1156325,0.00517 0.1604863,-0.038323 0.039925,-0.038714 0.059637,-0.087347 0.059182,-0.146018 -4.17e-4,-0.053698 -0.022056,-0.105015 -0.058415,-0.1385271 -0.029357,-0.027059 -0.05905,-0.035598 -0.1421815,-0.040887 -0.049015,-0.00312 -0.06098,-0.00294 -0.075853,0.00115 -0.014407,0.00396 -0.017965,0.00405 -0.019328,4.97e-4 -0.00282,-0.00736 0.00695,-0.025591 0.027868,-0.051947 0.024086,-0.030354 0.028079,-0.037791 0.041301,-0.076916 0.00899,-0.026615 0.010046,-0.033467 0.00853,-0.055568 -0.0021,-0.030625 -0.014092,-0.062097 -0.030627,-0.080399 -0.019147,-0.021193 -0.014223,-0.037399 0.017075,-0.0562 0.027734,-0.016659 0.036025,-0.034018 0.036025,-0.075422 0,-0.034321 -0.00462,-0.044621 -0.024575,-0.054806 -0.00594,-0.00303 -0.013316,-0.00773 -0.016391,-0.010435 -0.010301,-0.00907 -0.038172,-0.019648 -0.05309,-0.020142 -0.015571,-5.164e-4 -0.018739,0.00205 -0.021992,0.0178 -0.00109,0.00526 -0.00861,0.013205 -0.020474,0.021615 -0.025156,0.01784 -0.028071,0.020874 -0.028179,0.029335 -5.66e-5,0.00398 -0.0043,0.019513 -0.00944,0.034509 -0.00856,0.02497 -0.00898,0.028328 -0.00495,0.039905 0.00642,0.018449 0.00556,0.031872 -0.00263,0.04066 -0.011521,0.012366 -0.036658,0.026851 -0.046599,0.026851 -0.00506,0 -0.017861,0.0032 -0.028446,0.00712 -0.024798,0.00917 -0.063622,0.04791 -0.077938,0.077768 -0.010264,0.021407 -0.040177,0.062742 -0.070928,0.098013 -0.024968,0.028637 -0.03548,0.046575 -0.070154,0.1197149 -0.016041,0.033836 -0.031704,0.065261 -0.034808,0.069834 -0.0031,0.00457 -0.00891,0.014771 -0.012906,0.022664 -0.004,0.00789 -0.00892,0.013798 -0.010952,0.013121 -0.00203,-6.764e-4 -0.00619,-0.010358 -0.00924,-0.021516 -0.00896,-0.032743 -0.023174,-0.057472 -0.046521,-0.080954 -0.038369,-0.038591 -0.063497,-0.045683 -0.140831,-0.039745 -0.081173,0.00623 -0.1036279,0.013898 -0.1343434,0.045866 -0.052354,0.054488 -0.062111,0.1451603 -0.023428,0.2177353 0.014181,0.026606 0.049637,0.059453 0.074601,0.069113 0.017809,0.00689 0.024314,0.00747 0.077632,0.00692 0.032007,-3.305e-4 0.067173,-0.00218 0.078147,-0.00411 0.059424,-0.01046 0.1079192,-0.065245 0.118912,-0.1343359 0.00218,-0.013706 0.00508,-0.02492 0.00644,-0.02492 0.00136,0 0.00857,0.00318 0.016031,0.00707 0.019094,0.00995 0.02934,0.00911 0.040451,-0.00333 0.0091,-0.010184 0.00989,-0.010392 0.039261,-0.010392 0.018532,0 0.029976,0.00132 0.029976,0.00346 0,0.0019 -0.00309,0.00952 -0.00687,0.016922 -0.00378,0.00741 -0.011551,0.033159 -0.017274,0.057231 -0.011382,0.04788 -0.013548,0.096812 -0.00556,0.1256745 0.00221,0.00799 0.0043,0.030242 0.00465,0.049446 3.427e-4,0.019204 0.00243,0.048291 0.00463,0.064637 0.00312,0.023156 0.00313,0.033805 1.62e-5,0.048218 -0.00241,0.011133 -0.00419,0.050938 -0.00448,0.099971 -2.683e-4,0.04481 -0.00164,0.084657 -0.00304,0.088549 -0.00141,0.00389 -0.00614,0.00871 -0.010522,0.010706 -0.0046,0.0021 -0.00724,0.00553 -0.00624,0.00814 0.00276,0.00719 -0.01086,0.035601 -0.017067,0.035601 -0.00419,0 -0.00497,0.00197 -0.00335,0.00842 0.00156,0.00621 -5.099e-4,0.012226 -0.00791,0.022978 -0.00819,0.011908 -0.012474,0.014976 -0.023496,0.016839 -0.00863,0.00146 -0.015253,0.00499 -0.018412,0.00981 -0.011336,0.0173 0.00491,0.024202 0.04791,0.020348 0.020631,-0.00185 0.029864,-0.00469 0.048731,-0.014981 0.012803,-0.00699 0.028387,-0.013807 0.034632,-0.01516 0.00624,-0.00135 0.020975,-0.00678 0.032733,-0.012052 0.021982,-0.00986 0.030736,-0.011767 0.030736,-0.00669 0,0.00513 -0.017088,0.033673 -0.02016,0.033673 -0.00163,0 -0.00542,0.00375 -0.00842,0.00833 -0.010331,0.015767 0.00309,0.022066 0.041884,0.019661 0.011888,-7.37e-4 0.027813,-0.00135 0.035389,-0.00136 z m -0.042786,-0.092304 c -0.00281,-0.0032 -0.00761,-0.01076 -0.010665,-0.016798 -0.00306,-0.00604 -0.00779,-0.011834 -0.010519,-0.01288 -0.00273,-0.00105 -0.00808,-0.00803 -0.011907,-0.015528 -0.00597,-0.011701 -0.00668,-0.017397 -0.00502,-0.040326 0.00219,-0.030387 0.014143,-0.086471 0.020624,-0.096792 0.00739,-0.011766 0.014913,-0.041708 0.01492,-0.059372 3.3e-6,-0.00927 -0.00245,-0.030243 -0.00545,-0.046605 -0.00431,-0.023501 -0.00473,-0.03363 -0.00197,-0.048219 0.00965,-0.051021 0.018963,-0.048646 0.044944,0.011461 0.00978,0.022614 0.010086,0.024937 0.010903,0.081473 4.63e-4,0.032007 0.00247,0.0699 0.00447,0.084207 0.00638,0.045733 0.00468,0.080872 -0.00501,0.1036786 -0.00466,0.010974 -0.010004,0.02519 -0.01187,0.031592 -0.00359,0.012305 -0.018011,0.029929 -0.024495,0.029929 -0.00212,0 -0.00615,-0.00262 -0.00895,-0.00582 z M 5.2362643,-5.2833323 c 0,-0.033074 0.0063,-0.04408 0.038785,-0.067793 0.025632,-0.018708 0.042175,-0.037007 0.058641,-0.064865 0.00512,-0.00866 0.00977,-0.015186 0.010345,-0.01451 5.729e-4,6.748e-4 0.00201,0.00756 0.0032,0.015304 0.00211,0.013754 0.00188,0.014191 -0.0099,0.019114 -0.010067,0.00421 -0.011727,0.00628 -0.010052,0.012528 0.0011,0.00412 0.00203,0.012986 0.00205,0.019704 2.42e-5,0.00805 0.00281,0.015505 0.00817,0.02187 l 0.00812,0.00965 -0.00798,0.017234 c -0.00827,0.017848 -0.024307,0.042719 -0.033429,0.051841 -0.00403,0.00403 -0.012492,0.00524 -0.036591,0.00524 h -0.031354 z"
       id="path13516"
       inkscape:connector-curvature="0" />
    <g
       style="display:inline"
       id="g18624"
       transform="matrix(0.01,0,0,0.01,4.3727061,-3.5101496)">
      <path
         style="fill:#fcd116"
         inkscape:connector-curvature="0"
         d="m 71.978,57.956 c 95.443,-14.517 75.03,108.526 5.263,64.064 0.86,-1.179 0.302,-0.562 1.211,-1.774 l -3.9,-3.787 c -0.429,0.188 -1.113,0.609 -1.712,1.022 -0.81,-0.842 -2.142,-1.857 -2.897,-2.85 l -4.605,3.806 c 0.564,0.76 2.14,2.357 2.744,3.055 -3.108,2.617 -10.89,9.378 -12.017,11.01 -4.805,5.998 4.248,13.716 8.724,8.797 1.758,-1.39 6.491,-8.792 9.638,-13.374 8.022,8.436 18.95,14.326 33.652,14.059 3.289,-0.06 22.546,-0.847 34.86,-21.51 9.008,-15.119 6.416,-37.823 -9.724,-53.498 -17.53,-17.027 -43.743,-15.704 -61.237,-9.02 z"
         id="path18049" />
      <path
         style="fill:#fcd116"
         inkscape:connector-curvature="0"
         d="m 94.345,84.279 12.08,-12.114 -3.992,-3.724 -15.822,-1.092 -22.633,21.14 12.727,12.616 10.89,-10.128 c 16.567,17.227 47.774,49.943 50.284,52.78 2.51,2.838 10.216,-3.871 7.648,-6.834 -2.568,-2.962 -39.732,-42.67 -51.182,-52.644 z"
         id="path18051" />
    </g>
  </g>
</svg>
