<?xml version="1.0" encoding="UTF-8" standalone="no"?>
<svg
   xmlns:dc="http://purl.org/dc/elements/1.1/"
   xmlns:cc="http://creativecommons.org/ns#"
   xmlns:rdf="http://www.w3.org/1999/02/22-rdf-syntax-ns#"
   xmlns:svg="http://www.w3.org/2000/svg"
   xmlns="http://www.w3.org/2000/svg"
   xmlns:sodipodi="http://sodipodi.sourceforge.net/DTD/sodipodi-0.dtd"
   xmlns:inkscape="http://www.inkscape.org/namespaces/inkscape"
   xml:space="preserve"
   width="606.47638"
   height="629.16724"
   style="clip-rule:evenodd;fill-rule:evenodd;image-rendering:optimizeQuality;shape-rendering:geometricPrecision;text-rendering:geometricPrecision"
   viewBox="0 0 171.54618 177.96445"
   id="svg2"
   sodipodi:version="0.32"
   inkscape:version="0.92.1 r"
   sodipodi:docname="sicily.svg"
   version="1.0"><metadata
     id="metadata71"><rdf:RDF><cc:Work
         rdf:about=""><dc:format>image/svg+xml</dc:format><dc:type
           rdf:resource="http://purl.org/dc/dcmitype/StillImage" /><dc:title></dc:title><dc:date>December 1, 2005</dc:date><dc:creator><cc:Agent><dc:title>Angelo Romano</dc:title></cc:Agent></dc:creator><cc:license
           rdf:resource="http://web.resource.org/cc/PublicDomain" /></cc:Work><cc:License
         rdf:about="http://web.resource.org/cc/PublicDomain"><cc:permits
           rdf:resource="http://web.resource.org/cc/Reproduction" /><cc:permits
           rdf:resource="http://web.resource.org/cc/Distribution" /><cc:permits
           rdf:resource="http://web.resource.org/cc/DerivativeWorks" /></cc:License></rdf:RDF></metadata><sodipodi:namedview
     inkscape:window-height="1181"
     inkscape:window-width="2275"
     inkscape:pageshadow="2"
     inkscape:pageopacity="0.0"
     borderopacity="1.0"
     bordercolor="#666666"
     pagecolor="#ffffff"
     id="base"
     inkscape:zoom="1.1010663"
     inkscape:cx="639.63379"
     inkscape:cy="410.83154"
     inkscape:window-x="310"
     inkscape:window-y="215"
     inkscape:current-layer="layer3"
     showgrid="true"
     inkscape:grid-bbox="true"
     inkscape:grid-points="true"
     gridtolerance="25px"
     inkscape:window-maximized="0"><inkscape:grid
       id="GridFromPre046Settings"
       type="xygrid"
       originx="199.36987"
       originy="-7.5376101"
       spacingx="50"
       spacingy="50"
       color="#0000ff"
       empcolor="#0000ff"
       opacity="0.2"
       empopacity="0.4"
       empspacing="5" /></sodipodi:namedview><defs
     id="defs4"><inkscape:perspective
       sodipodi:type="inkscape:persp3d"
       inkscape:vp_x="0 : 350.00001 : 1"
       inkscape:vp_y="0 : 1000 : 0"
       inkscape:vp_z="1050 : 350.00001 : 1"
       inkscape:persp3d-origin="525.00001 : 233.33333 : 1"
       id="perspective61" /><style
       type="text/css"
       id="style6">
   
    .str1 {stroke:#1F1A17;stroke-width:0.1764}
    .str2 {stroke:#1F1A17;stroke-width:0.3528}
    .str0 {stroke:#131516;stroke-width:0.3528}
    .str4 {stroke:#EEB300;stroke-width:0.3528}
    .str3 {stroke:#F5D300;stroke-width:0.3528}
    .fil6 {fill:none}
    .fil7 {fill:#1F1A17}
    .fil9 {fill:white}
    .fil12 {fill:#009F3C}
    .fil10 {fill:#00A03B}
    .fil5 {fill:#2DA638}
    .fil8 {fill:#4E9145}
    .fil11 {fill:#65B857}
    .fil1 {fill:#DA2724}
    .fil4 {fill:#E4A615}
    .fil3 {fill:#EFC899}
    .fil13 {fill:#F3E400}
    .fil0 {fill:#F5CB00}
    .fil2 {fill:#1F1A17;fill-rule:nonzero}
    .fil14 {fill:#EEB300;fill-rule:nonzero}
   
  </style><metadata
       id="ID_0-Layer" /><inkscape:perspective
       id="perspective2917"
       inkscape:persp3d-origin="0.50000001 : 0.33333334 : 1"
       inkscape:vp_z="1 : 0.50000001 : 1"
       inkscape:vp_y="0 : 1000 : 0"
       inkscape:vp_x="0 : 0.50000001 : 1"
       sodipodi:type="inkscape:persp3d" /><clipPath
       clipPathUnits="userSpaceOnUse"
       id="clipPath21602"><path
         inkscape:connector-curvature="0"
         id="path21604"
         d="m 494,0 -204.96485,118.33683 -1.89921,232.28713 c 3.9e-4,-13.67524 1.3694,-27.31604 4.08654,-40.71864 -2.71714,13.4026 -4.08615,27.0434 -4.08654,40.71864 -7.8e-4,113.19929 91.76557,204.96564 204.96484,204.96485 113.19827,-6.3e-4 204.96304,-91.76659 204.96226,-204.96485 l 1.8992,-232.28713 z"
         style="opacity:1;fill:#000000;fill-opacity:1;stroke:none;stroke-width:20.14422417;stroke-miterlimit:4;stroke-dasharray:none;stroke-opacity:1" /></clipPath><clipPath
       clipPathUnits="userSpaceOnUse"
       id="clipPath7238"><path
         inkscape:connector-curvature="0"
         id="path7240"
         d="M 148.7745,18.456509 89.314544,52.78583 88.763595,120.17194 c 1.08e-4,-3.96716 0.397259,-7.92434 1.185488,-11.81242 -0.788229,3.88808 -1.18538,7.84526 -1.185488,11.81242 -2.32e-4,32.83892 26.621035,59.46019 59.459955,59.45996 32.83862,-1.8e-4 59.45943,-26.62134 59.4592,-59.45996 l 0.55095,-67.38611 z"
         style="clip-rule:evenodd;display:inline;opacity:1;fill:#000000;fill-opacity:1;fill-rule:evenodd;stroke:#000000;stroke-width:1.14293897;stroke-miterlimit:4;stroke-dasharray:none;stroke-opacity:1;image-rendering:optimizeQuality;shape-rendering:geometricPrecision;text-rendering:geometricPrecision"
         inkscape:export-xdpi="96"
         inkscape:export-ydpi="96" /></clipPath></defs><g
     inkscape:groupmode="layer"
     id="layer3"
     inkscape:label="Face"
     transform="translate(199.36987,-12.497948)"><g
       id="g7359"
       inkscape:export-filename="/Users/bmonro/Documents/Code/trifectabarbell/png/sicily.png"
       inkscape:export-xdpi="96"
       inkscape:export-ydpi="96"><path
         style="display:inline;opacity:1;fill:#000000;fill-rule:evenodd;stroke:none;stroke-width:0.38958704px;stroke-linecap:butt;stroke-linejoin:miter;stroke-opacity:1"
         d="M -27.82369,111.17198 -58.78716,133.565 V 95.896856 Z"
         id="path8204"
         inkscape:connector-curvature="0" /><path
         style="opacity:1;fill:#000000;fill-rule:evenodd;stroke:none;stroke-width:0.38958704px;stroke-linecap:butt;stroke-linejoin:miter;stroke-opacity:1"
         d="m -198.97762,109.28698 c 17.35522,-17.355207 17.35522,-17.355207 17.35522,-17.355207 l 13.6886,23.709357 z"
         id="path8202"
         inkscape:connector-curvature="0" /><path
         inkscape:connector-curvature="0"
         style="color:#000000;font-style:normal;font-variant:normal;font-weight:normal;font-stretch:normal;font-size:medium;line-height:normal;font-family:sans-serif;text-indent:0;text-align:start;text-decoration:none;text-decoration-line:none;text-decoration-style:solid;text-decoration-color:#000000;letter-spacing:normal;word-spacing:normal;text-transform:none;writing-mode:lr-tb;direction:ltr;baseline-shift:baseline;text-anchor:start;white-space:normal;clip-rule:nonzero;display:inline;overflow:visible;visibility:visible;opacity:1;isolation:auto;mix-blend-mode:normal;color-interpolation:sRGB;color-interpolation-filters:linearRGB;solid-color:#000000;solid-opacity:1;fill:#000000;fill-opacity:1;fill-rule:nonzero;stroke:none;stroke-width:7.79174089;stroke-linecap:butt;stroke-linejoin:miter;stroke-miterlimit:4;stroke-dasharray:none;stroke-dashoffset:0;stroke-opacity:1;color-rendering:auto;image-rendering:auto;shape-rendering:auto;text-rendering:auto;enable-background:accumulate"
         d="m -114.42325,12.497958 -1.94793,1.12462 -1.94794,1.12463 -63.31854,36.55727 -0.58743,71.895542 c -2.2e-4,0.0473 -6.7e-4,-0.10494 -6.7e-4,0.0105 v 0.007 l -0.0312,3.85708 h 0.22675 c 2.02246,35.25825 31.30413,63.38804 67.05614,63.38779 37.05581,-2.1e-4 67.2512,-30.19588 67.25094,-67.2517 l 0.58819,-71.863612 -67.28823,-38.84913 z"
         id="path8182" /><path
         inkscape:connector-curvature="0"
         style="color:#000000;font-style:normal;font-variant:normal;font-weight:normal;font-stretch:normal;font-size:medium;line-height:normal;font-family:sans-serif;text-indent:0;text-align:start;text-decoration:none;text-decoration-line:none;text-decoration-style:solid;text-decoration-color:#000000;letter-spacing:normal;word-spacing:normal;text-transform:none;writing-mode:lr-tb;direction:ltr;baseline-shift:baseline;text-anchor:start;white-space:normal;clip-rule:nonzero;display:inline;overflow:visible;visibility:visible;opacity:1;isolation:auto;mix-blend-mode:normal;color-interpolation:sRGB;color-interpolation-filters:linearRGB;solid-color:#000000;solid-opacity:1;fill:#ffffff;fill-opacity:1;fill-rule:nonzero;stroke:none;stroke-width:7.79174089;stroke-linecap:butt;stroke-linejoin:miter;stroke-miterlimit:4;stroke-dasharray:none;stroke-dashoffset:0;stroke-opacity:1;color-rendering:auto;image-rendering:auto;shape-rendering:auto;text-rendering:auto;enable-background:accumulate"
         d="m -114.42325,16.996468 -1.94793,1.12463 -61.38888,35.44329 -0.56916,69.614332 h 6.8e-4 c 0,0.0108 -0.002,0.0213 -0.002,0.032 -2.3e-4,34.94442 28.41141,63.35605 63.35584,63.35582 34.9441,-2e-4 63.35531,-28.41172 63.35506,-63.35582 l 0.56994,-69.624992 z"
         id="path8173" /><path
         inkscape:export-ydpi="96"
         inkscape:export-xdpi="96"
         style="display:inline;opacity:1;fill:#000000;fill-opacity:1;stroke:#000000;stroke-width:1.14293897;stroke-miterlimit:4;stroke-dasharray:none;stroke-opacity:1"
         d="m -114.4229,21.495018 -59.45996,34.32932 -0.55095,67.386112 c 1.1e-4,-3.96716 0.39726,-7.92434 1.18549,-11.81242 -0.78823,3.88808 -1.18538,7.84526 -1.18549,11.81242 -2.3e-4,32.83892 26.62104,59.46019 59.45996,59.45996 32.83862,-1.8e-4 59.45943,-26.62134 59.4592,-59.45996 l 0.55095,-67.386112 z"
         id="path8151"
         inkscape:connector-curvature="0" /><path
         style="opacity:1;fill:#000000;fill-opacity:1;stroke:none;stroke-width:5.84380579;stroke-miterlimit:4;stroke-dasharray:none;stroke-opacity:1"
         d="M -150.00057,98.000139 A 53.05526,63.494236 42.430655 0 1 -150,98 a 53.05526,63.494236 42.430655 0 0 -3.95516,4.95619 53.05526,63.494236 42.430655 0 1 3.95442,-4.956051 z"
         id="path8149"
         inkscape:connector-curvature="0" /><path
         style="opacity:1;fill:#000000;fill-opacity:1;stroke:none;stroke-width:5.84380579;stroke-miterlimit:4;stroke-dasharray:none;stroke-opacity:1"
         d="m -163.02178,119.37587 a 53.05526,63.494236 42.430655 0 0 -3.42483,11.68671 53.05526,63.494236 42.430655 0 1 3.42483,-11.68671 z"
         id="path8144"
         inkscape:connector-curvature="0" /><g
         transform="translate(-263.1974,3.038508)"
         clip-path="url(#clipPath7238)"
         id="g7236"><g
           id="g7231"><rect
             y="0"
             x="0"
             height="198"
             width="297"
             id="rect1939"
             style="opacity:1;fill:#da272f;fill-opacity:1;fill-rule:nonzero;stroke:none;stroke-width:0.25;stroke-linecap:round;stroke-linejoin:round;stroke-miterlimit:4;stroke-dasharray:none;stroke-dashoffset:1;stroke-opacity:1" /></g><path
           style="fill:#f5ca00;fill-opacity:1;fill-rule:evenodd;stroke:none;stroke-width:1px;stroke-linecap:butt;stroke-linejoin:miter;stroke-opacity:1"
           d="M 0,0 V 198 H 297 Z"
           id="path2815"
           sodipodi:nodetypes="cccc"
           inkscape:connector-curvature="0" /></g><path
         style="color:#000000;font-style:normal;font-variant:normal;font-weight:normal;font-stretch:normal;font-size:medium;line-height:normal;font-family:sans-serif;text-indent:0;text-align:start;text-decoration:none;text-decoration-line:none;text-decoration-style:solid;text-decoration-color:#000000;letter-spacing:normal;word-spacing:normal;text-transform:none;writing-mode:lr-tb;direction:ltr;baseline-shift:baseline;text-anchor:start;white-space:normal;clip-rule:nonzero;display:inline;overflow:visible;visibility:visible;opacity:1;isolation:auto;mix-blend-mode:normal;color-interpolation:sRGB;color-interpolation-filters:linearRGB;solid-color:#000000;solid-opacity:1;fill:#000000;fill-opacity:1;fill-rule:nonzero;stroke:none;stroke-width:9.35008907;stroke-linecap:butt;stroke-linejoin:miter;stroke-miterlimit:4;stroke-dasharray:none;stroke-dashoffset:0;stroke-opacity:1;color-rendering:auto;image-rendering:auto;shape-rendering:auto;text-rendering:auto;enable-background:accumulate"
         d="m -199.36987,109.61434 v 4.56349 27.68909 L -27.82369,111.01318 V 78.760628 Z"
         id="path8197"
         inkscape:connector-curvature="0" /><rect
         style="opacity:1;fill:#ffffff;fill-opacity:1;stroke:none;stroke-width:7.79174089;stroke-miterlimit:4;stroke-dasharray:none;stroke-opacity:1"
         id="rect8189"
         width="165.02486"
         height="23.125851"
         x="-197.93198"
         y="78.319611"
         transform="matrix(0.98420792,-0.17701632,0,1,0,0)" /><text
         transform="matrix(0.99689199,-0.18041736,0,1.0031177,0,0)"
         x="-192.38414"
         y="95.48423"
         xml:space="preserve"
         style="font-style:normal;font-variant:normal;font-weight:bold;font-stretch:normal;font-size:14.34733295px;line-height:0%;font-family:sans-serif;-inkscape-font-specification:'sans-serif, Bold';font-variant-ligatures:normal;font-variant-caps:normal;font-variant-numeric:normal;font-feature-settings:normal;text-align:start;letter-spacing:0px;word-spacing:0px;writing-mode:lr-tb;text-anchor:start;opacity:1;fill:#000000;fill-opacity:1;stroke:none;stroke-width:0.34849015px;stroke-linecap:butt;stroke-linejoin:miter;stroke-opacity:1"
         id="text8185"><tspan
           style="font-style:normal;font-variant:normal;font-weight:bold;font-stretch:normal;font-size:14.34733295px;line-height:1.25;font-family:sans-serif;-inkscape-font-specification:'sans-serif, Bold';font-variant-ligatures:normal;font-variant-caps:normal;font-variant-numeric:normal;font-feature-settings:normal;text-align:start;writing-mode:lr-tb;text-anchor:start;stroke-width:0.34849015px"
           sodipodi:role="line"
           id="tspan8187"
           x="-192.38414"
           y="95.48423">TRIFECTA BARBELL</tspan></text>
<g
         style="font-style:normal;font-weight:normal;font-size:35.39293289px;line-height:125%;font-family:sans-serif;letter-spacing:9.21000004px;word-spacing:0px;display:inline;opacity:1;fill:#000000;fill-opacity:1;stroke:none;stroke-width:1px;stroke-linecap:butt;stroke-linejoin:miter;stroke-opacity:1"
         id="text13433"
         transform="matrix(0.38958703,0,0,0.38958703,-310.27139,-129.35134)"><path
           inkscape:connector-curvature="0"
           d="m 436.31693,735.62878 -24.37274,12.48454 -3.34347,-3.10426 10.64425,-25.23082 2.68491,2.49282 -9.48932,22.08195 21.31811,-11.09945 z"
           style="letter-spacing:9.21000004px;fill:#000000"
           id="path13443" /><path
           inkscape:connector-curvature="0"
           d="m 437.63492,766.33032 -8.74449,-5.17618 1.33807,-2.26048 2.89995,1.71659 10.4316,-17.62282 -2.89995,-1.71659 1.33806,-2.26048 8.74449,5.17618 -1.33807,2.26048 -2.89995,-1.71659 -10.4316,17.62282 2.89995,1.71659 z"
           style="letter-spacing:9.21000004px;fill:#000000"
           id="path13445" /><path
           inkscape:connector-curvature="0"
           d="m 471.27353,771.84199 q -0.47315,1.42711 -1.60797,2.59845 -1.11842,1.17677 -2.63676,1.74757 -1.66036,0.61475 -3.61133,0.62337 -1.93458,0.014 -4.39513,-0.80173 -2.64099,-0.8756 -4.5939,-2.06928 -1.93651,-1.18824 -3.79733,-2.87938 l 1.34875,-4.0681 0.22965,0.0761 q 1.3424,2.15649 3.49277,3.79798 2.15038,1.64148 4.28286,2.34849 3.01827,1.00069 5.0667,0.42356 2.06483,-0.57168 2.69026,-2.4581 0.53841,-1.62397 -0.01,-2.66143 -0.53176,-1.03202 -2.01432,-1.99692 -1.12151,-0.73596 -2.49433,-1.4278 -1.35641,-0.6864 -2.8552,-1.54745 -3.01951,-1.76578 -4.04497,-3.94464 -1.00362,-2.18983 -0.11714,-4.86363 1.017,-3.06748 4.25596,-4.16023 3.2444,-1.10916 7.23049,0.2124 2.57537,0.85385 4.56109,2.0584 1.98573,1.20456 3.4032,2.47561 l -1.27261,3.83845 -0.22965,-0.0761 q -1.00274,-1.64333 -3.02724,-3.17026 -2.00265,-1.53789 -4.38118,-2.32647 -2.60818,-0.86473 -4.55828,-0.30962 -1.93369,0.56054 -2.4993,2.26652 -0.50578,1.52554 -0.007,2.65599 0.49913,1.13044 2.33169,2.2478 0.9737,0.57772 2.80056,1.54753 1.82686,0.96982 3.05775,1.76026 2.48372,1.62455 3.37759,3.54131 0.89388,1.91676 0.0237,4.54135 z"
           style="letter-spacing:9.21000004px;fill:#000000"
           id="path13447" /><path
           inkscape:connector-curvature="0"
           d="m 503.63146,760.34113 -9.16297,-0.75308 -1.85865,22.61463 -3.41028,-0.28028 1.85865,-22.61463 -9.16297,-0.75309 0.24914,-3.03136 21.73622,1.78646 z"
           style="letter-spacing:9.21000004px;fill:#000000"
           id="path13449" /><path
           inkscape:connector-curvature="0"
           d="m 534.56059,779.07538 -3.60229,0.56569 -3.60519,-6.69366 -10.99468,1.72654 -1.37998,7.4765 -3.43157,0.53888 5.26133,-26.87402 4.50713,-0.70777 z m -8.70466,-8.86676 -6.41571,-11.78025 -2.5132,13.1824 z"
           style="letter-spacing:9.21000004px;fill:#000000"
           id="path13451" /><path
           inkscape:connector-curvature="0"
           d="m 551.35697,767.95234 -0.5501,12.31175 -2.3597,0.89332 -1.19543,-11.65095 z"
           style="letter-spacing:9.21000004px;fill:#000000"
           id="path13453" /><path
           inkscape:connector-curvature="0"
           d="m 583.00563,753.73556 q -0.57575,0.86255 -1.03407,1.5881 -0.44379,0.71622 -1.27609,1.72295 -0.70967,0.84586 -1.63534,1.70717 -0.90179,0.86651 -2.15243,1.66949 -2.35585,1.51259 -4.71014,2.1 -2.34908,0.56353 -4.67991,0.0679 -2.28308,-0.48517 -4.43156,-2.10415 -2.15781,-1.63353 -3.96918,-4.45473 -1.718,-2.67579 -2.31565,-5.26995 -0.59766,-2.59415 -0.10621,-4.9634 0.47584,-2.29762 1.94832,-4.29043 1.48703,-2.00214 3.87197,-3.5334 1.74508,-1.12043 3.74638,-1.8098 2.01585,-0.69871 4.82062,-1.00032 l 2.19419,3.41745 -0.21814,0.14005 q -2.75041,-0.34941 -4.94886,0.0969 -2.19846,0.44628 -4.2053,1.73478 -1.64328,1.05507 -2.62116,2.4428 -0.97268,1.36385 -1.28624,3.14653 -0.30315,1.73492 0.20345,3.77143 0.51181,2.01263 1.91235,4.19397 1.4659,2.28315 3.13175,3.53428 1.68039,1.24179 3.31765,1.64872 1.7089,0.42254 3.39746,0.0777 1.69377,-0.36869 3.20617,-1.33974 2.07955,-1.33518 3.43983,-3.21487 1.36028,-1.87969 2.03037,-4.32257 l 0.20359,-0.13071 2.16618,3.37381 z"
           style="letter-spacing:9.21000004px;fill:#000000"
           id="path13455" /><path
           inkscape:connector-curvature="0"
           d="m 608.56147,731.21252 -2.49215,2.66189 -6.95992,-3.05974 -7.60638,8.12446 3.51106,6.74351 -2.37404,2.53574 -12.38303,-24.42447 3.11815,-3.33053 z m -12.3172,-1.6362 -12.30474,-5.34127 6.1275,11.93925 z"
           style="letter-spacing:9.21000004px;fill:#000000"
           id="path13457" /></g><g
         id="g13501"
         style="display:inline;opacity:1;fill:#000000"
         transform="matrix(0.03719982,0,0,0.03719982,-129.50428,130.54167)"><path
           style="fill:#000000;fill-opacity:1;fill-rule:nonzero;stroke:none"
           d="M 733.21972,-9.8409314 612.17479,111.20399 l -5.83983,-5.84472 -19.917,19.92187 12.73437,12.73438 -411.49901,411.49901 -12.73438,-12.73437 -19.92187,19.917 5.84472,5.83984 -121.044915,121.04495 22.9834,22.9834 121.044915,-121.04495 5.83984,5.84472 19.91699,-19.92187 -12.73438,-12.73438 411.49903,-411.49903 12.73437,12.73438 19.92188,-19.91699 -5.84473,-5.83984 121.04493,-121.044921 z m 0,0"
           id="path8425"
           inkscape:connector-curvature="0" /><path
           style="fill:#000000;fill-opacity:1;fill-rule:nonzero;stroke:none"
           d="m 756.20312,683.58195 -121.04493,-121.04496 5.84473,-5.83983 -19.92188,-19.917 -12.73437,12.73437 -411.49903,-411.49901 12.73438,-12.73438 -19.91699,-19.92187 -5.83984,5.84472 L 62.780275,-9.8409314 39.796875,13.142469 160.84179,134.18739 l -5.84472,5.83984 19.92187,19.91699 12.73438,-12.73438 411.49901,411.49903 -12.73437,12.73437 19.917,19.92188 5.83983,-5.84472 121.04493,121.04495 z m 0,0"
           id="path8427"
           inkscape:connector-curvature="0" /></g><g
         id="g3000"
         transform="matrix(0.12206306,0,0,0.12206306,-163.31475,31.525635)"><path
           inkscape:connector-curvature="0"
           d="m 389.4,99.2 c 5,-1.4 10.3,-1.3 15.5,-0.9 2.8,0.2 4.4,2.9 6,4.9 1.7,2.2 4,4.1 4.6,6.9 3.9,14.6 12.6,27.7 13.8,43 0.6,7.8 2.1,15.5 4.1,23.1 0.8,6.9 0.5,13.9 0.6,20.9 0.1,3.6 -1.3,7 -1.6,10.6 1.6,4.5 5.4,7.7 8,11.6 1.8,-0.7 3.8,-1.2 5.3,-2.6 1.2,-1.7 1.7,-3.8 2.5,-5.8 0.4,0.6 0.9,1.2 1.3,1.8 0.2,-2 0.4,-4 1,-6 1.4,-0.9 3,-1.5 4.5,-2.1 -0.5,-5.3 0.3,-11.1 -2.8,-15.8 -2.5,-4 -5.6,-8 -6,-12.8 -0.6,-8.1 0.8,-16.2 2,-24.1 2.7,-1.4 6.3,-3.3 5.8,-6.9 -0.2,-4.6 -0.3,-9.2 0.4,-13.7 0.3,0 1,0.1 1.3,0.2 -0.4,3.9 -0.8,7.8 -1.1,11.7 0.8,0 2.2,0.1 2.9,0.2 -0.5,-2.5 0.6,-4.7 2.2,-6.5 1.3,0.6 2.5,1.2 3.7,1.9 0.1,-0.7 0.3,-2 0.4,-2.7 1.2,0.3 2.3,0.6 3.4,0.9 -0.4,-2.7 -0.7,-5.5 -0.8,-8.3 1.9,3.6 2.7,7.6 3.3,11.6 -1.8,0.1 -3.5,0.2 -5.3,0.3 0,0.5 -0.1,1.4 -0.1,1.9 -0.3,3.4 -0.5,6.8 0.6,10.1 1.1,-1.8 2.4,-3.5 2.9,-5.6 -0.4,-1.7 -1.2,-3.3 -1.8,-4.9 l 0.7,-0.2 c 2.6,1.6 5,3.3 7.6,4.8 0.5,-3.6 0.2,-7.2 0.2,-10.8 2.6,6.4 1.6,13.5 3.5,20.2 -0.9,0.1 -2.7,0.2 -3.6,0.3 1,2.4 2.1,4.7 3.2,6.9 0.6,-2.4 1,-4.9 1.6,-7.4 0.2,-0.7 0.6,-2.3 0.8,-3.1 0.4,3.3 0.6,6.5 0.8,9.8 -1.3,0.5 -2.6,1.1 -3.8,1.7 0.7,4.5 1.7,9 2.3,13.5 -0.5,3.1 -1.9,6.1 -4.4,8 -3.6,3 -7.1,6.3 -10.1,9.9 -1.7,4 -1.3,8.9 1,12.7 -0.1,-1.1 -0.2,-2.1 -0.3,-3.2 4.7,-5.1 10.6,-9.2 14.1,-15.4 1.6,6.9 1,14.8 -3.1,20.7 -2,2.9 -2,6.5 -3.4,9.6 -1.8,2.5 -3.8,4.8 -6.1,6.8 -4.6,3.2 -10.7,5.2 -12.9,10.9 6.1,2.9 10.8,8.6 12,15.2 1.5,9 6.4,17 7.5,26 0.4,2.3 0.4,5.4 2.9,6.6 3.1,1.4 6.2,2.8 8.5,5.4 5.2,5.2 11.6,9.1 16.2,14.9 2.4,3 5.3,5.7 8.4,8.2 0.4,-0.6 1.1,-1.7 1.5,-2.2 -2.8,-2.6 -5.8,-5 -7.6,-8.3 -1.9,-3.5 -3.8,-7.1 -5.8,-10.5 0.4,-0.8 0.9,-1.5 1.3,-2.3 -1.2,-1.4 -3,-2.8 -2.6,-4.8 1.3,-11.6 4.2,-23.1 3,-34.7 -0.8,-6.8 -1.1,-14 -4.7,-19.9 -2.4,-4.2 -3.5,-9 -6.1,-13 -2.5,-3.5 -0.6,-7.8 -1.3,-11.8 2.9,-2 6.6,-2.3 9.9,-3.6 5.5,-3.1 11.3,-6 15.6,-10.8 -0.6,-1.4 -1.2,-2.7 -1.8,-4.1 1,0.9 2,1.7 3,2.6 4.4,-5 10.7,-9.1 17.6,-7.6 -0.1,-0.5 -0.2,-1.6 -0.2,-2.1 3.6,0 7.1,0.1 10.7,0.1 -0.7,0.9 -1.5,1.8 -2.2,2.7 2.4,-1.3 4.8,-2.5 7.3,-3.8 1.5,2.5 2.8,5.1 3.6,7.9 -4.5,3.2 -8.7,6.8 -13.5,9.5 -5.4,3 -7.4,9.2 -11.2,13.7 -3,3.6 -4.8,8.1 -4.8,12.8 3.2,7.3 4,15.3 5.8,23 0.3,-0.1 1,-0.2 1.3,-0.3 0.7,4.4 2.3,8.6 3.3,12.9 2,6.7 3.5,13.5 6.8,19.7 -0.5,1.1 -1.1,2.2 -1.7,3.4 2.4,3.5 0.9,7.9 2.8,11.6 2.1,5 3.2,10.3 4.7,15.5 1.4,4.9 1.3,10.4 4.3,14.8 3.2,4.5 3.8,10.6 2.6,15.9 -3.5,6.9 -8.8,14.8 -17.5,14.9 -5.1,-2.3 -10.3,-4.7 -16,-5.2 -11.8,-1.4 -23.4,-4.4 -35.1,-6.3 -12.5,-1.1 -23.4,-7.8 -34.6,-12.8 -3,-1.6 -7.5,-2.4 -7.7,-6.5 -0.6,0.3 -1.3,0.6 -1.9,0.9 -2.2,-2.2 -5.4,-2.5 -8.1,-3.8 -3.6,-1.8 -6.7,-4.6 -9.7,-7.3 -1.7,1 -4.1,1.5 -4.6,3.6 -0.8,2.6 -2.1,5.2 -1.9,7.9 1,4.6 4.6,7.9 8,10.9 -1.7,-0.2 -3.3,-0.4 -5,-0.6 1.4,2.8 3.2,5.7 6.5,6.4 5,1.2 10.2,2 14.8,4.6 -4.6,2.5 -9.8,3.6 -14.1,6.5 3.3,1.7 6.2,4.1 9.9,5 4.8,1.3 9.9,1.6 14.8,1.4 2.1,0.1 4.4,-0.2 6.3,0.7 6.5,2.9 12.4,6.7 18,11 -1.4,-0.1 -2.9,-0.3 -4.3,-0.4 2.1,2.8 4.9,4.9 7.1,7.6 1.4,2.8 2,6.3 4.5,8.4 2.2,1.1 4.5,2 6.6,3.2 -1.9,-0.5 -3.9,-1.1 -5.8,-1.5 1.3,4 5.7,5.1 8.1,8.3 -2,-0.6 -4,-1.5 -6,-2.4 -0.8,2.7 0.7,4.9 2.3,6.9 -2.4,-1.2 -4.6,-2.9 -6.8,-4.3 -3.8,0.3 -7.1,2 -10.2,3.9 -2.7,0.1 -4.1,-2.6 -5.5,-4.4 -1.5,0.6 -3,1.2 -4.4,1.9 0.7,1.1 1.5,2.3 2.3,3.5 -3.4,-1 -6.7,-2.3 -10.3,-2.3 -1.7,0.2 -2.1,-1.8 -2.8,-3 -1,0.1 -2,0.3 -2.9,0.4 -5.1,-5.2 -12.9,-10 -12.6,-18.2 -2.9,-2 -5.4,-4.5 -6.2,-8 -0.3,-2 -2,-3.1 -3.7,-3.8 -0.7,4.4 -0.7,9.1 -2.8,13.2 -0.3,0 -1,-0.1 -1.3,-0.1 C 415.8,371 410,362.8 404,355 c -0.9,-1.9 -2.8,-2.2 -4.7,-1.7 -1.4,0.3 -2.7,0.1 -3.8,-0.5 -0.2,-0.6 -0.6,-1.6 -0.7,-2.2 2.1,-0.8 4.3,-1.6 6.4,-2.6 -3.4,-0.7 -6.9,-0.9 -10.3,-1.7 -0.3,-1.2 -0.6,-2.4 -0.8,-3.7 -0.8,1.3 -1.5,2.6 -2.3,3.8 -1.6,-6.2 -1,-12.7 -0.5,-19 0.5,-2.3 -1.6,-3.8 -2.4,-5.6 -0.7,-3.2 0.2,-6.7 -0.9,-9.9 -3,-2.1 -6,-4.4 -8.1,-7.5 -4.6,2.1 -9,4.4 -13,7.5 -4.4,3.4 -9.8,4.7 -14.5,7.5 -2.4,1.5 -5.2,2 -7.8,3.1 -2.8,1.6 -5.4,3.5 -8.5,4.5 -4.3,1.7 -9,1.2 -13.4,2.5 -5.4,1.5 -11.8,0.7 -16.3,4.7 8.6,-0.9 17.5,-2.1 26,0.5 3.2,1.1 7.1,2 8.7,5.3 3.3,0.3 6.1,2.2 8.1,4.7 3.4,3.6 8,5.4 11.9,8.1 7.9,5.1 17.4,5.8 26,9 5.2,2.1 11,1.1 16.4,1.8 4.9,2.6 6.1,9.2 5.5,14.2 -2.3,5.3 -3.1,11 -3.1,16.6 0.9,0 1.7,0 2.5,0 1.5,7.5 3.4,15.8 -0.4,23 -1.2,0 -2.4,-0.1 -3.6,-0.1 0.7,0.9 1.3,1.7 2,2.6 -4.9,3.9 -3.4,12.3 -9.8,14.8 -2.6,1 -5.8,-0.8 -5.9,-3.7 -0.2,-5.4 -0.2,-10.8 -1.7,-16 -1,-4.1 -4.3,-7.2 -5.9,-11 -1.8,-4.5 -5,-8.3 -8.1,-11.9 0.3,-1.2 0.6,-2.4 0.9,-3.6 -1.1,0.8 -2.1,1.7 -3.1,2.5 -7,-4.3 -15.2,-5.4 -22.9,-8.1 -3.9,-1.4 -8.1,-1.7 -12.2,-2.4 -5.5,-0.9 -10.7,-3.2 -16.1,-4.4 -6.9,-2.8 -15.7,-2.3 -20.3,-9 -0.2,1 -0.5,2 -0.8,3 -5.2,-3.8 -11.7,-3.8 -17.6,-5.8 -7.9,-1.2 -16.3,-2.4 -22.8,-7.4 -3.2,-4.3 -5.5,-9.4 -6.4,-14.8 1.2,-4.2 3.1,-8.2 5.8,-11.6 3.4,-4.3 7.9,-7.5 11.2,-11.8 5.4,-4.9 9.3,-11.4 15.6,-15.2 0.6,-3.2 3,-5.4 5.3,-7.5 0,1.2 0,2.4 0,3.6 1.3,-2.3 1.9,-5.1 3.9,-7.1 8.1,-8.4 17.7,-15.2 27.6,-21.2 2.8,-2.7 6.6,-4 10.3,-5 0,-1.6 0,-3.3 -0.1,-5 0.7,-0.1 2.1,-0.4 2.7,-0.5 -0.7,-1.2 -1.5,-2.4 -2.2,-3.6 1.5,-2.7 2.8,-5.4 3.5,-8.4 -7.7,0.3 -13.1,6.5 -20.1,9 1.2,-4.8 3.8,-9 5,-13.8 -2.7,1.5 -5.7,2.5 -8.2,4.2 -2.2,3.7 -3.9,7.8 -7,10.9 -2.3,2.5 -5.8,3.3 -8.3,5.6 -2.9,2.5 -5.6,5.2 -8.7,7.5 0.7,-1.5 1.4,-2.9 2.1,-4.4 -2.1,0.3 -4.4,0.2 -6.4,0.9 -1.2,0.9 -2.2,2.1 -3.2,3.2 -2.4,-1 -4.7,-2.4 -7.3,-2.8 -1.2,0.8 -2.2,1.8 -3.3,2.8 -1.6,-1.2 -3.3,-2.5 -4.9,-3.7 -3.2,0.9 -6.5,1.7 -9.6,2.7 -1.7,-1.5 -3.5,-2.9 -5.3,-4.3 3.5,-2 5.7,-5.5 7.4,-9.1 1.1,-1.6 -0.6,-3.1 -1.3,-4.5 2.1,-1.1 4.4,-2 6.4,-3.3 1,-1.5 1.4,-3.2 2,-4.9 -1.6,-0.2 -3.2,-0.4 -4.9,-0.6 3.9,-2.1 8.3,-2.2 12.6,-1.6 1,-1.6 2.1,-3 3.1,-4.5 -3.1,-2.1 -7.2,-0.4 -10.7,-0.8 3.2,-1.5 6.7,-2.1 10.2,-1.9 5.3,0.4 10.5,-0.8 15.8,-0.9 -3.2,-1.3 -6.7,-1.7 -10,-2.6 10.4,-1 20.1,4.3 30.4,5.1 0,-0.7 0.1,-2 0.1,-2.7 -3.9,-1.6 -5.6,-5.5 -6.7,-9.2 11.7,3.2 24,1.8 36,1.1 5.8,0.1 11.6,1.8 17.4,2.1 5.4,-4.8 9,-11.2 14,-16.5 1.3,0.8 2.7,1.6 4.1,2.3 3.6,-7.3 -0.2,-15.4 2.1,-23 1.8,-6.3 2.5,-12.9 4.8,-19.1 2.8,-7.1 6.7,-14 7.4,-21.7 -1.9,1.3 -3.8,2.9 -4.6,5.2 -2.5,6.7 -6.2,12.9 -11.3,17.9 -7.4,6 -16.8,8.2 -25.5,11.6 -10.7,5.7 -19.4,14.7 -26.7,24.3 -1,-0.6 -2,-1.2 -3,-1.8 0.8,1.7 1.6,3.5 2.6,5.2 -3.6,2.5 -6.3,6 -10,8.3 -2.8,0.4 -5.8,0.6 -8.5,-0.2 -4.8,-3.2 -8.9,-7.5 -10.9,-13 0.1,1.1 0.3,2.2 0.4,3.3 -3.5,-1 -7,-2 -10.6,-2.8 -0.1,-1 -0.3,-2 -0.4,-3 -1.5,0.6 -3.1,1.5 -4.8,1.7 -2.7,-0.6 -5,-2.1 -7.1,-3.8 -4.7,-4.1 -9.9,-8.9 -9.5,-15.6 -1.3,-0.8 -2.7,-1.5 -4,-2.2 0.1,-2.1 -0.3,-4.4 0.6,-6.4 1.3,-2.2 3.3,-3.9 5,-5.8 0.9,0.6 1.8,1.2 2.7,1.8 0.9,2.7 2.7,4.9 5,6.4 1.8,0.4 3.6,0.4 5.3,0.6 8.1,2.2 17,0.6 24.6,4.7 0.3,-0.2 1,-0.6 1.3,-0.8 -0.9,-0.3 -2.6,-1 -3.4,-1.4 3.5,-1.4 7.4,-1.8 11,-3 2.5,-1.4 4.4,-3.8 6.5,-5.7 1.9,-1.7 4.4,-2.7 6.4,-4.4 2.1,-3 2.9,-6.8 5.5,-9.5 2,-2 4.5,-3.4 6.6,-5.4 2.9,-2.5 4.8,-5.8 7.4,-8.6 2.8,-2.9 6,-5.4 9.1,-7.9 2.7,-2.3 4.3,-5.6 7.2,-7.8 4.1,-3.1 8.8,-5.9 11.7,-10.3 2.7,-4.2 8.8,-4.5 10.7,-9.3 3.1,-5.1 7.2,-9.6 11.8,-13.4 z"
           id="path8"
           style="fill:#000000;stroke:#000000;stroke-width:0.09375" /><path
           inkscape:connector-curvature="0"
           d="m 372,123 c 7.5,-6.7 14.5,-13.9 21,-21.5 3.6,0.3 7.5,-0.1 11,1.4 2.6,1.1 2.9,4.2 3.8,6.6 0.9,0.2 1.7,0.3 2.6,0.5 0.1,4.7 1,10 4.8,13.2 -1.1,0.4 -2.2,0.9 -3.3,1.3 1.2,0.5 2.3,1 3.5,1.6 -0.5,0.9 -0.9,1.8 -1.3,2.7 1,0.4 1.9,0.9 2.9,1.3 -0.6,0.8 -1.2,1.6 -1.9,2.3 0.8,0.6 2.2,1.6 3,2.2 -2.1,0.1 -4.2,0 -6.3,-0.1 2.4,1.2 5,2 7.2,3.5 1.4,1.7 2.2,3.9 3.2,5.8 -0.8,0.1 -2.5,0.4 -3.3,0.6 1,1 2.1,2 3.1,3 -1,0.8 -2,1.5 -3,2.3 1.2,0.2 2.5,0.4 3.8,0.6 0.6,2.4 1.1,4.8 1.7,7.2 -2.1,-0.4 -4.3,-0.8 -6.5,-1.2 3.6,1.8 7,4.2 9.1,7.8 -0.3,0.9 -0.7,1.9 -1.1,2.9 1.1,1.4 2.2,2.8 3.2,4.2 -1.4,-0.1 -2.9,-0.3 -4.4,-0.5 2.7,2.8 4.2,6.4 4.6,10.2 -0.9,0 -2.7,0.1 -3.7,0.1 1.6,1.4 3.1,2.7 4.1,4.6 -2.3,-0.4 -4.6,-1.1 -6.9,-1.6 2.1,1.7 4.5,2.9 6.6,4.4 -0.3,2.3 0,4.7 0.9,6.9 -1,1.4 -1.7,2.9 -2.7,4.3 1.3,2.4 1.5,5 1.5,7.6 -5.5,0.8 -12.5,1.4 -16.4,-3.5 -3.3,0.7 -6.5,1.8 -9.9,2.6 -4.1,0.7 -7.9,-1.5 -11.8,-2.2 -3.6,0.9 -6.8,2.8 -10.1,4.5 0.5,-9.7 0.7,-19.6 3.4,-29 0.7,-2.1 0.5,-4.3 0.1,-6.4 2.5,-3.6 3.5,-8 6.1,-11.5 1.1,-4 2.7,-7.8 3.8,-11.7 0.8,-3 -1.9,-5.1 -3.5,-7.2 -2.3,0.8 -4.5,1.6 -6.8,2.4 -2.1,6.5 -5,12.6 -8.6,18.4 -1.9,1.7 -3.8,3.4 -3.8,6.2 -3.1,1.3 -6.1,3.1 -8.5,5.4 -2.3,2.3 -5.8,1.5 -8.6,2.4 -3.4,2 -6.9,4.8 -11.2,4.1 -3.2,3.5 -7.5,5.6 -10.9,8.8 -3.2,2.9 -8.4,4.4 -8.8,9.4 -1,0.2 -2.1,0.4 -3.2,0.6 -3.3,5 -6.3,10.3 -9.6,15.4 -3.9,-0.3 -7.9,-0.4 -11.8,-1.2 1,-1.7 1.9,-3.5 2.2,-5.5 -1.1,0.7 -2.2,1.3 -3.3,1.9 -0.5,-1.4 -0.9,-2.7 -1.3,-4.1 -0.9,0.3 -1.8,0.6 -2.6,0.9 0.8,-1 1.7,-1.9 2.5,-2.9 -3.6,-0.1 -7.5,0 -10.4,-2.6 -0.7,0.9 -1.5,1.8 -2.3,2.8 -4.6,-3.8 -10.8,-5.6 -16.7,-4.8 1,-0.7 2,-1.4 3,-2.1 -2.2,-1.8 -3.9,-4.2 -5.8,-6.3 0.5,-1.1 1.2,-2 1.8,-3 -2.5,-2.5 -5.2,-4.8 -8.1,-6.7 0.7,-2.4 1.8,-4.7 2.7,-7.1 0.3,0.2 0.9,0.6 1.2,0.8 -0.1,1.6 -0.3,3.1 -0.4,4.7 6.3,2.6 12.3,6.7 19.3,7 7.6,0.2 15.5,1.9 22.8,-1 4.4,-1.5 7.5,-5.3 11.5,-7.6 3.4,-1.8 5.4,-5.3 7.4,-8.5 1.8,-3.2 5.8,-4.1 7.6,-7.3 2.1,-3.5 5.7,-5.8 8,-9.1 1.6,-2.1 3.4,-4.1 5.9,-5.2 0.5,-1.3 0.5,-3.1 2.1,-3.8 3.3,-1.9 5.4,-5.2 8.3,-7.7 1.8,-0.7 3.6,-1 5.4,-1.7 0.8,-1.3 1.1,-2.9 1.6,-4.3 4.2,-1.8 9.3,-3.6 10.5,-8.5 z"
           id="path10"
           style="fill:#ffcb99;stroke:#ffcb99;stroke-width:0.09375" /><path
           inkscape:connector-curvature="0"
           d="m 464.3,142.5 c 0.4,-0.1 1.3,-0.3 1.7,-0.4 0.6,1.6 1.4,3.2 1.8,4.9 -0.5,2.1 -1.8,3.8 -2.9,5.6 -1.1,-3.3 -0.9,-6.7 -0.6,-10.1 z"
           id="path12"
           style="fill:#f1c63c;stroke:#f1c63c;stroke-width:0.09375" /><path
           inkscape:connector-curvature="0"
           d="m 458.1,145.2 c 2.4,-1 1.5,3.1 -0.4,2.8 -1.6,-0.2 -0.9,-2.5 0.4,-2.8 z"
           id="path14"
           style="fill:#dcac34;stroke:#dcac34;stroke-width:0.09375" /><path
           inkscape:connector-curvature="0"
           d="m 452.6,151.6 c 0.7,-1 1.8,-2 3.2,-1.5 2.5,1.1 4.3,3.2 6.2,5.1 1.7,-0.6 3.4,-1.2 5.2,-1.8 2.9,2.8 5.8,5.8 6.4,10.1 0.8,0 1.6,0.1 2.4,0.1 -0.1,3.3 -0.5,6.6 -1.9,9.6 -1.4,-0.9 -2.7,-1.9 -4.1,-2.8 -1.5,3.4 -2.4,7.3 -0.8,10.8 0.9,-1.7 1.1,-3.9 2.6,-5.4 1.3,-0.4 2.7,-0.5 4,-0.8 -0.3,2.6 -0.6,5.1 -1,7.6 -4.6,2 -7,6.4 -10.1,10 -3.6,4 -3.2,9.7 -4.6,14.6 -1,5.4 -4.2,10 -8.2,13.8 -2,3.1 -5.2,6.5 -3.9,10.4 4.5,-5 9,-10 14.5,-13.9 2,-1.5 3.4,-3.5 4.9,-5.4 -0.3,-0.5 -0.9,-1.4 -1.2,-1.9 1.1,0.1 2.3,0.1 3.4,0.2 1.4,-3 3.3,-5.9 6.6,-7 -1,2.3 -2.1,4.5 -3.1,6.7 -1.5,4.2 -4.9,7.3 -6.6,11.4 -3.6,2.4 -6.8,5.2 -10.2,7.8 -3.4,2.7 -7.4,4.1 -11.4,5.8 -0.3,-5.2 1,-10.2 3.4,-14.7 -1.3,-0.1 -2.6,-0.2 -3.8,-0.3 1.8,-0.8 3.8,-1.1 5.5,-2.2 1.4,-1.5 1.7,-3.6 2.3,-5.5 1.4,-1 3,-1.8 3.6,-3.4 2.6,-5.8 2.7,-12.3 4.1,-18.4 -3.7,-1.1 -5.6,-4.9 -8.1,-7.6 0.5,-1 1.1,-2 1.6,-3 -3.7,-1.3 -5,-5.3 -4.6,-9 -0.2,-2.1 2,-3.2 2.6,-5 -0.3,-1.8 -0.9,-3.6 -1.1,-5.5 1.6,-2.1 3.7,-3.7 6.1,-4.6 0,-1.6 0.1,-3.2 0.1,-4.8 -1.4,0.2 -2.7,0.3 -4,0.5 z"
           id="path16-1"
           style="fill:#f1c63c;stroke:#f1c63c;stroke-width:0.09375" /><path
           inkscape:connector-curvature="0"
           d="m 466,159.7 c 0.3,-1.6 0.1,-3.5 2,-4.2 -0.1,1.4 -0.1,2.8 -0.2,4.2 -0.4,0 -1.3,0 -1.8,0 z"
           id="path20"
           style="fill:#020200;stroke:#020200;stroke-width:0.09375" /><path
           inkscape:connector-curvature="0"
           d="m 474.4,156.4 c 0.9,-0.1 2.7,-0.2 3.6,-0.3 l 1.2,-0.2 c -0.6,2.5 -1,5 -1.6,7.4 -1.1,-2.2 -2.2,-4.5 -3.2,-6.9 z"
           id="path22"
           style="fill:#b20000;stroke:#b20000;stroke-width:0.09375" /><path
           inkscape:connector-curvature="0"
           d="m 413.9,160.4 c 3.2,0.1 7,-0.3 9.3,2.3 -3.2,-0.4 -6.3,-1.2 -9.3,-2.3 z"
           id="path24"
           style="fill:#020200;stroke:#020200;stroke-width:0.09375" /><path
           inkscape:connector-curvature="0"
           d="m 453.1,168.8 c 0.8,-2.9 1.9,-5.8 4,-8 -0.5,2.7 -1.7,5.3 -1.8,8.1 -0.6,0 -1.7,-0.1 -2.2,-0.1 z"
           id="path26"
           style="fill:#020100;stroke:#020100;stroke-width:0.09375" /><path
           inkscape:connector-curvature="0"
           d="m 458.8,166.2 c -0.5,-2.8 1.3,-5.3 4.3,-5.4 0.5,2.9 -1.5,4.9 -4.3,5.4 z"
           id="path28"
           style="fill:#131005;stroke:#131005;stroke-width:0.09375" /><path
           inkscape:connector-curvature="0"
           d="m 465.2,161.8 c 2.1,2 4.1,4.2 5.2,7 -1.1,-0.7 -2.2,-1.4 -3.3,-2.2 -0.7,1.6 -1.4,3.2 -2.1,4.7 -0.5,-3.1 -0.2,-6.3 0.2,-9.5 z"
           id="path30"
           style="fill:#020100;stroke:#020100;stroke-width:0.09375" /><path
           inkscape:connector-curvature="0"
           d="m 481.9,173.9 c -1,-2.5 -0.7,-5.2 1,-7.3 0.6,2.5 0.5,5.1 -1,7.3 z"
           id="path32"
           style="fill:#020100;stroke:#020100;stroke-width:0.09375" /><path
           inkscape:connector-curvature="0"
           d="m 453.8,175.6 c 1.9,-1.3 4.1,-2.1 6.3,-2.5 1.8,0.1 3.3,1.4 4.9,2.2 -1.3,0.1 -2.6,0.3 -3.8,0.5 -1.9,1.6 -1.5,4.2 -1.8,6.3 -1.6,-2.4 -3.2,-4.8 -5.6,-6.5 z"
           id="path34"
           style="fill:#010100;stroke:#010100;stroke-width:0.09375" /><path
           inkscape:connector-curvature="0"
           d="m 418.9,173.9 c 2.8,0.2 5.2,1.5 7.3,3.1 -2.7,-0.2 -5.7,-0.6 -7.3,-3.1 z"
           id="path36"
           style="fill:#020200;stroke:#020200;stroke-width:0.09375" /><path
           inkscape:connector-curvature="0"
           d="m 262.7,175 c 3.5,2.3 6.9,4.6 10.3,7 -1.7,-0.2 -3.5,-0.2 -5.3,-0.6 -2.3,-1.5 -4.1,-3.7 -5,-6.4 z"
           id="path38"
           style="fill:#f5ca00;stroke:#f5ca00;stroke-width:0.09375" /><path
           inkscape:connector-curvature="0"
           d="m 463.1,188.5 c 0,-3.8 -0.3,-8 2.1,-11.2 0.6,3.4 -0.6,6.6 -1.2,9.9 2.3,-1.1 4.3,-2.8 6.3,-4.3 -0.9,3.3 -3.8,5.5 -7.2,5.6 z"
           id="path40"
           style="fill:#020100;stroke:#020100;stroke-width:0.09375" /><path
           inkscape:connector-curvature="0"
           d="m 519.4,189.9 c 2.9,-0.5 5.2,-2.6 7.7,-4.1 0.6,0.7 1.2,1.4 1.8,2.1 3,-3.3 7.4,-0.6 11.1,-0.8 2.7,-0.5 5.3,-1.4 8,-1.8 -5.2,7.7 -17.5,8.5 -19.8,18.5 -0.5,-0.5 -1.5,-1.4 -2.1,-1.9 0.1,1.8 0.7,3.6 0.1,5.4 -1.8,0.9 -3.6,-0.8 -5.3,-1.3 0.8,1.2 1.7,2.4 2.5,3.7 -1,1.2 -2.2,2.3 -3,3.7 -0.5,2.1 -0.1,4.6 -1.7,6.3 -1,1.7 -3.2,1.4 -4.8,1.8 1.7,1.8 3.6,3.5 5.9,4.7 -0.8,3.3 -0.7,6.7 -0.6,10.1 -1.5,-0.5 -3,-0.9 -4.5,-1.2 1.7,1.3 3.5,2.5 5.4,3.6 0.9,4.6 3.4,8.7 5.5,12.8 -0.8,0 -2.3,0 -3,0 1.5,1.8 3.1,3.6 4.5,5.6 -1.8,-0.3 -3.6,-0.7 -5.3,-1 2.3,2 5,3.8 6.8,6.4 1,2.4 1,5 1.8,7.5 -0.6,0 -1.9,-0.1 -2.5,-0.1 3.2,3.2 3.8,7.8 6.2,11.6 -2.2,-1.2 -4.3,-2.4 -6.6,-3.4 2,3.9 5.9,6.3 8,10.1 -2,-0.5 -3.9,-1.3 -5.9,-2 2.3,2.8 4.7,5.6 6.6,8.7 -1.8,-0.8 -3.6,-1.7 -5.5,-2.5 2,2.2 4.2,4.3 6,6.6 -0.7,1.1 -1.4,2.2 -2,3.3 0.9,0.3 2.7,0.7 3.6,0.9 -0.4,1.2 -0.9,2.3 -1.3,3.5 0.9,1 2.3,1.8 2.2,3.3 0,3.4 1.6,6.3 2.4,9.5 -1.3,-0.7 -2.6,-1.4 -3.8,-2.1 2.6,2.6 5.2,5.2 7.5,8.1 -0.7,0.3 -2,1 -2.7,1.3 1.6,2.4 3.1,4.8 4.6,7.3 -2,-1.3 -3.9,-2.9 -6.3,-3.3 2.6,2.8 6,5.4 6.5,9.5 -1.5,-1 -2.9,-2.1 -4.3,-3.2 0.7,1.7 1.4,3.4 2.1,5.2 -1.1,-0.4 -2.2,-0.8 -3.4,-1.2 0.8,1.2 1.5,2.4 2.2,3.6 -2.8,2 -5.6,4.4 -9,5.3 -8.2,-1.8 -16.5,-2.8 -24.5,-5.3 -6.8,-2.1 -14.2,-0.8 -21,-3.3 -4.3,-1.4 -9.1,-0.6 -13,-2.9 -1.5,-0.8 -3.1,-1.4 -4.6,-2.1 0.6,-1.1 1.2,-2.3 1.9,-3.5 -2.1,1.3 -4.3,2.6 -6.5,3.8 -1.2,-1.8 -2.1,-4.3 -4.5,-4.5 -3.2,-0.4 -6.4,-0.9 -9.6,-1.4 0.3,-1.5 0.6,-2.9 0.9,-4.3 -2.4,1 -4.4,3.5 -7.2,2.8 1.8,-2.1 3.7,-4.2 5.3,-6.4 -2.8,1.1 -5.1,3 -7.4,4.7 -0.5,-1.4 -0.9,-2.9 -1.3,-4.3 2.6,-0.9 5.5,-1.7 7,-4.3 -4.2,1 -8.4,3.7 -12.7,2.3 -0.6,-1 -0.9,-2.1 -1,-3.2 -1.3,0.4 -2.6,0.9 -3.9,1.3 0,-4.6 5.1,-5.3 7.1,-8.6 -4.2,0.9 -7.3,4.2 -11.6,5.1 0.3,-0.9 0.9,-2.7 1.2,-3.5 -1,0 -3.1,0.1 -4.1,0.2 1.5,-2.7 4.2,-4.5 6,-6.9 -3.4,1.5 -6.2,5.3 -10.3,3.9 1,-1.3 2.1,-2.5 3.2,-3.7 -2.1,0.3 -4.1,0.9 -6.2,1.1 2.3,-2 5.9,-2.4 7.5,-5.2 2.9,-4.4 7.1,-7.6 11.1,-10.8 -1.1,-0.1 -3.3,-0.3 -4.4,-0.4 1.1,-1.3 2.3,-2.6 3.6,-3.9 -0.6,-0.4 -1.2,-0.9 -1.8,-1.3 4.1,-0.3 4.5,-5 7.5,-7 2.6,2.5 5.8,3.9 9.2,4.7 -0.2,0.5 -0.7,1.5 -0.9,2 4.6,0.4 8.5,3.1 13.1,3.9 3,3 7.6,5.5 11.6,2.7 0.3,1.2 0.5,2.3 0.7,3.4 0.8,-0.7 1.6,-1.5 2.4,-2.2 0.1,0.5 0.4,1.4 0.5,1.9 0.4,-0.6 0.8,-1.2 1.3,-1.7 4.3,2.3 7.1,6.5 11.2,9.1 5.7,3.7 11.1,8.7 12.6,15.7 0.8,-0.6 1.6,-1.1 2.4,-1.6 1.3,1.2 2.6,2.4 3.9,3.6 1.7,-1.7 3.4,-3.5 5.1,-5.2 -0.8,-2.8 -1.5,-5.8 -3.5,-8.1 -2.5,-2.9 -4.3,-6.6 -7.6,-8.8 0.3,-2.5 -0.6,-4.8 -1.6,-7.1 -3.2,-13.5 2.3,-27.1 1,-40.7 -0.6,-9.8 -4.4,-18.9 -8.5,-27.6 -1.7,-4.2 -4.1,-8.5 -3.6,-13.2 2.6,-3.3 7.4,-1.5 10.8,-3.3 5.6,-2.2 12.4,-6 12.4,-12.8 1,0.6 1.9,1.2 2.8,1.7 0.9,-1.6 1.6,-3.2 2.4,-4.9 z"
           id="path42"
           style="fill:#ffcb99;stroke:#ffcb99;stroke-width:0.09375" /><path
           inkscape:connector-curvature="0"
           d="m 311.6,201.4 c 0.9,-3.3 3.1,-6.1 6,-7.7 0,0.7 -0.1,2 -0.1,2.7 -0.6,0.2 -1.7,0.7 -2.3,0.9 -0.1,2.2 -1,4 -3.6,4.1 z"
           id="path44"
           style="fill:#020200;stroke:#020200;stroke-width:0.09375" /><path
           inkscape:connector-curvature="0"
           d="m 309.4,201.6 c 1.9,-0.9 2.7,1.7 4,2.7 -3,0.2 -5.9,0 -8.8,-0.7 1.2,-1.4 3.1,-1.6 4.8,-2 z"
           id="path46"
           style="fill:#010101;stroke:#010101;stroke-width:0.09375" /><path
           inkscape:connector-curvature="0"
           d="m 385.3,211.2 c 1.8,-0.7 3.6,-1.6 5.6,-1.8 3.8,0.5 7.6,2.9 8.7,6.7 1.5,-1.5 2.5,-3.4 2.6,-5.6 4.2,1.2 8.6,-1.2 12.8,0.6 0.6,2.3 -2.4,2.7 -3.7,3.9 1.7,1.2 3.6,1.9 5.7,2.2 -0.8,-0.7 -1.6,-1.5 -2.5,-2.2 6.2,-6.1 17.2,0.6 16.3,8.7 -0.4,1.4 -0.4,4 -2.5,3 -0.9,-2.7 -0.7,-5.6 -1.4,-8.4 -1.9,-1.2 -3.8,-2.4 -5.9,-3 -2.3,0.8 -3.5,3.4 -5.4,4.8 0.9,1.5 1.8,3.1 2.7,4.6 2.5,-1.1 4.8,-3 7.7,-2.6 -0.1,2.2 -1.7,3.6 -3.2,5 2.1,1.4 3.1,3.7 4.2,5.9 -8,1.9 -16.4,2.1 -24.5,0.9 3.1,-3.8 8.3,-2.2 12.2,-0.8 -0.1,-0.5 -0.4,-1.6 -0.5,-2.2 1.2,0 2.4,0 3.6,-0.1 0,-0.4 0,-1.2 0,-1.7 -2.9,0 -5.7,0.1 -8.6,0.2 -1,-3.1 -3.7,-5 -5.7,-7.4 3.2,0.8 6,2.5 9.1,3.7 -1,-1.5 -2.1,-2.9 -3.2,-4.2 0.5,-0.3 1.5,-0.9 2,-1.3 -1.4,-1.8 -2.8,-3.5 -4.3,-5.2 -3,4.4 -5.6,9 -9,13.2 -1,1.5 -2.8,1.9 -4.4,2.4 0.9,-3.2 1.5,-6.5 3.8,-9 1,-1 1.1,-2.4 1.4,-3.6 -2.7,2 -5.2,4 -8,5.8 0.7,0.2 2.3,0.4 3.1,0.5 -3.6,1.3 -6.4,4 -8.3,7.4 2.1,0.1 4.2,0.1 6.3,0.4 2.7,0.3 5.2,1.9 8,1.4 2.4,2.6 4.5,5.5 6.2,8.6 3.7,-2.5 8.2,-3.5 12.7,-3.3 0.1,0.6 0.4,1.9 0.6,2.5 0.7,-1 1.5,-2 2.3,-3 -0.1,-0.7 -0.4,-2.1 -0.6,-2.7 0.9,1.1 1.8,2.4 2.7,3.6 2.7,-2.3 4.6,-5.2 5.6,-8.7 2.6,-3.3 3,-7.6 5.2,-11.2 1,1 2,2.1 3,3.2 -1.8,4.2 -2,9.3 0.6,13.3 1.7,-2.3 1.1,-5 0,-7.3 1.9,0.8 2.9,2.7 3.6,4.6 -0.5,0.9 -1.1,1.8 -1.6,2.7 1.5,2.2 3.4,3.9 5.1,6 -1.4,0.9 -2.8,1.7 -4.2,2.5 0.2,-1 0.3,-2 0.5,-3 -2.8,-2.9 -5.8,-5.5 -8.7,-8.3 -2.1,2.5 -4.1,5.1 -5.9,7.7 2.5,2.4 4,6.4 7.9,6.7 -2,-3.2 -4.9,-6.3 -4.1,-10.4 1.6,1.8 2.6,4.3 5,5.1 3.7,1.5 6.7,4.5 10.9,4.3 -0.7,1.8 -1.4,3.7 -1.9,5.6 -1.2,0 -2.4,0 -3.6,0.1 -0.7,3.1 -1.5,6.3 -3,9.3 -1.9,1.3 -4.5,0.7 -6.4,-0.3 -2.2,-0.9 -2.2,-3.8 -3,-5.7 2.9,1 5.6,2.5 8.6,3.4 -2.5,-2.2 -5.2,-5.3 -8.9,-4.6 -0.4,0.8 -1,2.3 -1.4,3.1 -1.2,-4.2 -2.3,-8.7 -5.5,-11.9 -3,-0.3 -6.5,-0.5 -7.4,-4 -1.8,0.3 -3.5,0.6 -5.3,0.8 3.2,1.9 6.7,3.6 8.6,6.8 -6.7,-1.9 -13.5,-4.8 -17.8,-10.7 -1.2,-2.1 -3.8,-2.6 -5.9,-3.6 0.3,1.1 0.7,2.3 1,3.5 -1.3,-0.1 -2.6,-0.1 -3.9,-0.1 0.4,-1.3 0.8,-2.7 1.1,-4 -5.4,1.8 -11.2,1.6 -16.7,2.9 0.6,-1.1 1.1,-2.2 1.7,-3.3 2.9,0.5 5.5,-1 7.1,-3.4 -2,0.7 -4,1.7 -5.9,2.5 1.6,-2.4 4.2,-4.6 3.5,-7.9 -2.7,0.8 -3.7,3.6 -5.5,5.5 -2.8,1.5 -5.8,2.8 -9,1.7 1.6,-1.6 3,-3.5 4.5,-5.1 2.7,-1.1 5.7,-2 6.8,-5.1 -3.7,-1.5 -7.7,0.4 -9.1,4 -1.1,-0.3 -2.2,-0.7 -3.3,-1 0.6,1.3 1.2,2.5 1.8,3.7 -1.5,-0.9 -5.1,-2.6 -3.1,-4.6 2.7,-2.5 6.1,-4.2 9.2,-6.1 1.9,-0.1 3.7,0.1 5.6,0.2 1.5,-2.5 2.7,-5.6 5.6,-6.8 z"
           id="path48"
           style="fill:#f1c63c;stroke:#f1c63c;stroke-width:0.09375" /><path
           inkscape:connector-curvature="0"
           d="m 382.8,219 c 1.9,-2.9 4.5,-5.9 8.3,-5.9 2.9,-0.3 5.1,2 6.8,4 -1.9,0.6 -3.7,1.1 -5.5,1.6 0.4,-0.7 1.1,-2.1 1.4,-2.8 -3.1,2.5 -7.3,2.5 -11,3.1 z"
           id="path50"
           style="fill:#010000;stroke:#010000;stroke-width:0.09375" /><path
           inkscape:connector-curvature="0"
           d="m 499.5,222 c 0.3,-2.7 1.4,-5.5 3.6,-7.2 -0.2,2.8 -2.2,5.3 -1.7,8.2 0.7,1.5 1.7,2.9 2.5,4.4 -2,-1.1 -4.4,-2.8 -4.4,-5.4 z"
           id="path52"
           style="fill:#010101;stroke:#010101;stroke-width:0.09375" /><path
           inkscape:connector-curvature="0"
           d="m 381,223.3 c 0.5,-1.2 1.1,-2.3 1.7,-3.5 2,1.3 4.3,2.2 6.4,3.4 0.5,2.2 -1.1,3.7 -2.8,4.8 -1.4,-2 -3.3,-3.5 -5.3,-4.7 z"
           id="path54"
           style="fill:#020100;stroke:#020100;stroke-width:0.09375" /><path
           inkscape:connector-curvature="0"
           d="m 360.9,228.1 c 0.8,0 2.5,0.1 3.3,0.1 -0.5,3 -1.4,6.1 -0.5,9.1 3.7,1.2 7.6,2.3 10.7,4.7 1.5,-4.5 7.1,-3.7 10.9,-3.6 0.1,0.8 0.1,1.6 0.2,2.4 1.4,0.7 2.7,1.5 3.9,2.5 -3.8,1.3 -8.2,1.3 -11.9,3.1 -0.2,0.4 -0.6,1.2 -0.9,1.6 3.3,-0.7 6.6,-1.8 10,-2.2 -0.2,0.5 -0.7,1.4 -0.9,1.8 -3.9,0.6 -8.2,2 -11.7,-0.4 0,0.6 0,2 -0.1,2.7 -0.8,0.5 -1.7,1 -2.5,1.6 0,2.5 -0.1,5 -0.3,7.5 -3.3,-1.7 -6.3,-3.8 -9.7,-5.4 1.1,1.7 1.5,3.8 3,5.1 2.2,0.9 4.7,1.2 7,1.8 -2.2,1.2 -4.6,2.1 -6.9,3.1 -2.7,-5.8 -6.6,-10.9 -10.7,-15.7 0.6,-1.1 1.3,-2.1 2,-3.1 -0.7,-0.4 -2,-1.2 -2.7,-1.6 0.5,-3.6 2.3,-6.7 5,-9.1 0.9,1 1.9,2 2.8,3 -0.1,-3 -0.1,-6 0,-9 z"
           id="path56"
           style="fill:#f1c63c;stroke:#f1c63c;stroke-width:0.09375" /><path
           inkscape:connector-curvature="0"
           d="m 305.5,228.3 c 4,0.3 7.3,3.7 11.5,3.2 8.9,-0.2 17.9,-0.7 26.8,0 2.8,0.3 5.9,0.4 8,2.5 -1.7,2.2 -4.8,2.3 -7.3,1.4 -4.4,-1.6 -9.1,-1.4 -13.8,-1.3 1.1,0.9 2.2,1.7 3.2,2.5 -4.5,2.9 -10.2,0.6 -14.7,3.6 -4.1,2.3 -10.2,1.6 -12.6,6.3 -1.6,2 -1.7,4.5 -2.2,6.9 -1.3,-3.8 -2.2,-7.8 -3.7,-11.5 -3.9,0.6 -7.8,0.9 -11.5,2.2 -2,0.6 -2.5,2.8 -3.4,4.4 -3,0 -6,0 -9,-0.2 1.4,-1.8 2.8,-3.5 4.2,-5.4 -4.2,-0.2 -5.8,3.7 -7.7,6.6 0.4,0.3 1.4,1 1.9,1.4 -0.2,2.3 -0.3,4.7 -0.5,7 2.5,-1.8 5.1,-0.4 7.4,1 2.3,-2.1 5,-4.1 8.4,-4.1 -0.1,3.4 -3.5,4.7 -5.6,6.6 3.2,-0.5 6.1,-2.4 9.5,-2.4 -2,3.2 -5.2,5.2 -8.5,6.7 -0.3,-0.7 -0.9,-2.1 -1.2,-2.8 -2.9,1.5 -5.7,3.1 -8.6,4.8 -0.9,-1.1 -1.9,-2.1 -2.8,-3.2 3,-1.4 6.9,-1.8 9.1,-4.7 -2.7,0.1 -4.8,1.9 -7.3,2.5 -2.2,-0.9 -4.6,-1.3 -7.1,-1 1.2,0.9 2.5,1.8 3.7,2.7 -1,1.4 -2.1,2.8 -3.2,4.1 -2.3,-1.4 -4,-3.9 -3.3,-6.7 1.7,-2 3.6,-3.8 4.9,-6.1 -4.3,-1.1 -6.5,3.7 -10.7,3.1 0.3,-3 2.1,-5.4 3.7,-7.8 1.8,1 3.6,2.1 5.4,3.2 -0.9,-1.8 -2,-3.5 -3.1,-5.1 2.2,-2.1 4.8,-3.6 7.8,-4.4 3,-0.6 3.5,-4.3 5.9,-5.7 2.1,-0.1 4.2,0.2 6.4,0.5 -0.7,2.1 -2.1,3.8 -3.5,5.4 5.1,0.4 6.7,-4.9 10.2,-7.4 1.9,0.3 3.2,2.2 4.7,3.2 1.4,-0.6 2.7,-1.3 4.1,-1.9 1.5,1.1 2.8,3.3 5,2.8 4.6,-0.8 9,-2.4 13.4,-3.8 -3.7,-4.4 -11.2,-3.4 -13.9,-9.1 z"
           id="path58"
           style="fill:#f1c63c;stroke:#f1c63c;stroke-width:0.09375" /><path
           inkscape:connector-curvature="0"
           d="m 318.2,234.1 c 3.4,0.1 7,-0.1 10.4,1 -2.4,1.8 -5.4,2.1 -8.3,2.8 -0.7,-1.3 -1.4,-2.5 -2.1,-3.8 z"
           id="path60"
           style="fill:#010000;stroke:#010000;stroke-width:0.09375" /><path
           inkscape:connector-curvature="0"
           d="m 336,237.1 c 2.5,-1.6 5.6,-1.3 8.4,-1.3 -2.4,3.1 -5.2,6.1 -8.8,7.8 -6,1.7 -11,5.5 -16.9,7.3 4.9,-5.6 11.2,-9.7 17.3,-13.8 z"
           id="path62"
           style="fill:#f1c63c;stroke:#f1c63c;stroke-width:0.09375" /><path
           inkscape:connector-curvature="0"
           d="m 406.4,236.4 c 0.8,-0.9 3.2,-1.5 3.5,0.2 -0.3,1.8 -4.9,2.2 -3.5,-0.2 z"
           id="path64"
           style="fill:#d3a231;stroke:#d3a231;stroke-width:0.09375" /><path
           inkscape:connector-curvature="0"
           d="m 388.7,247.2 c 2.1,-3.7 4.6,-7.1 8,-9.6 0.6,1.1 1.2,2.3 1.8,3.4 -4,0.8 -6.6,3.9 -9.8,6.2 z"
           id="path66"
           style="fill:#f1c53c;stroke:#f1c53c;stroke-width:0.09375" /><path
           inkscape:connector-curvature="0"
           d="m 338.2,249.2 c 2.6,-4.3 6.7,-8 11.8,-8.6 0.8,4.2 1,8.9 4,12.3 -5.6,1.7 -10.7,4.5 -15.8,7.2 -2.2,1 0.8,3.2 0.2,4.9 -2.5,6.8 -6.2,13 -8.4,19.9 -0.5,1.8 -1.7,3.1 -2.8,4.5 -1.3,-0.5 -2.6,-1 -3.9,-1.4 0.9,1.7 2,3.4 3.6,4.7 -0.4,0.1 -1.2,0.2 -1.5,0.3 -1.1,-1.5 -2.2,-2.8 -3.4,-4.2 2.6,-3.4 5,-7.1 6.9,-11 1,-4.3 2.8,-8.4 4.4,-12.5 1,-5.6 2.5,-11.1 4.9,-16.1 z"
           id="path68"
           style="fill:#f1c63c;stroke:#f1c63c;stroke-width:0.09375" /><path
           inkscape:connector-curvature="0"
           d="m 358.3,241.2 c 0.6,0 1.8,0 2.4,0 1.8,3.1 4,6 4.5,9.7 -2.5,-2.2 -5.4,-3.8 -8.8,-3 0.6,-2.2 1.3,-4.5 1.9,-6.7 z"
           id="path70"
           style="fill:#000000;stroke:#000000;stroke-width:0.09375" /><path
           inkscape:connector-curvature="0"
           d="m 447.6,242.3 c 4.2,-3.1 9.1,-0.1 12,3.2 1.5,2.7 3.6,5.3 3.6,8.5 0.6,6 3.9,11.8 3,17.9 0.3,-0.2 1.1,-0.5 1.5,-0.6 -0.2,1.4 -0.8,2.9 -0.5,4.4 1,2.1 3,3.9 3.2,6.3 0.4,2.5 0,4.9 -0.4,7.4 -5.2,-1.5 -6.1,-7.5 -6.7,-12 -1.5,-5 -3.1,-9.9 -5.4,-14.6 -0.7,-2.2 0,-4.7 -1.2,-6.7 -2.4,-0.1 -4.9,0.2 -7.3,0.6 -0.6,-0.7 -1.3,-1.5 -2,-2.2 2.1,-3.7 3.1,-8.6 0.2,-12.2 z"
           id="path72"
           style="fill:#f1c63c;stroke:#f1c63c;stroke-width:0.09375" /><path
           inkscape:connector-curvature="0"
           d="m 364,241.9 c 2.6,1.3 5.3,2.3 8.3,2.5 -1.2,2.9 -3.1,5.5 -5.3,7.8 0.2,-1.7 0.5,-3.4 0.8,-5.1 -1.4,-1.7 -2.7,-3.4 -3.8,-5.2 z"
           id="path74"
           style="fill:#020200;stroke:#020200;stroke-width:0.09375" /><path
           inkscape:connector-curvature="0"
           d="m 374.7,244.2 c 2,-1.3 4.3,-2 6.7,-2.1 -1.9,1.7 -4.3,2.1 -6.7,2.1 z"
           id="path76"
           style="fill:#020200;stroke:#020200;stroke-width:0.09375" /><path
           inkscape:connector-curvature="0"
           d="m 423.1,241.8 c 3.7,2.3 6.6,6 7.8,10.4 -2,-0.2 -2.3,-2.4 -3.2,-3.8 -1.3,-2.4 -3.2,-4.3 -4.6,-6.6 z"
           id="path78"
           style="fill:#020200;stroke:#020200;stroke-width:0.09375" /><path
           inkscape:connector-curvature="0"
           d="m 288.6,251 c 1.7,-4.1 5.7,-7.3 10.4,-6.4 0.1,1.8 0.3,3.6 0.5,5.4 -3.6,0.6 -7.2,1.9 -10.9,1 z"
           id="path80"
           style="fill:#f1c63c;stroke:#f1c63c;stroke-width:0.09375" /><path
           inkscape:connector-curvature="0"
           d="m 378.7,252.7 c 6.8,-3.5 15.2,-3.1 21.4,-8 2.4,1.9 4.9,3.8 8,4 7.6,0.7 14,6.1 17.7,12.6 0.7,6.3 0,12.9 -1.5,19.1 -4.1,8.7 -10.5,16 -15.9,24 -2.7,1.4 -5.2,3.7 -8.5,3.6 -3.6,0.1 -7,-1.5 -10.3,-2.9 -1.2,2.7 -4.8,2.8 -6.1,0.1 1.6,-0.1 3.3,-0.1 4.9,-0.1 -2.6,-4.6 -6.2,-8.3 -9.4,-12.4 -0.8,0.1 -2.4,0.2 -3.2,0.3 0.9,-1.1 1.7,-2.1 2.6,-3.2 -1.4,-1.4 -2.9,-2.7 -4.4,-4 -0.5,-5.8 -0.5,-11.6 -0.4,-17.3 1.1,-0.5 2.2,-0.9 3.4,-1.1 -0.1,3.1 1.5,5.7 3.7,7.7 -0.5,-1.5 -1,-3 -1.4,-4.5 3,-0.8 3.9,2.1 5.3,4 2.1,1.2 4.5,1.8 6.5,3.1 1.3,-0.8 2.5,-1.7 3.7,-2.7 -1.2,0.1 -3.5,0.3 -4.7,0.3 0.8,-1.8 3.3,-3.8 1.9,-6 -1.8,-2.5 -5.2,-2.8 -8,-2.4 -2.1,0.1 -5.5,1.3 -5.8,-1.9 1.1,0.2 2.2,0.3 3.3,0.5 1.4,-1.5 3.2,-3.1 5.4,-2.7 2.5,1.3 4.9,3 7.7,3.4 -1.4,-5.6 -8,-5.5 -12.6,-4.5 -3.8,0.2 -6,3.6 -8.4,6.1 -0.1,-3.3 -0.1,-6.6 -0.1,-9.9 1.8,-1.7 3.5,-3.5 5.2,-5.2 z"
           id="path82"
           style="fill:#ffcb99;stroke:#ffcb99;stroke-width:0.09375" /><path
           inkscape:connector-curvature="0"
           d="m 434.1,252.1 c 0.8,-2.6 1.7,-5.2 2.8,-7.6 0.8,1.6 2.1,3.3 2,5.2 -1.1,1.6 -3.1,1.8 -4.8,2.4 z"
           id="path84"
           style="fill:#020200;stroke:#020200;stroke-width:0.09375" /><path
           inkscape:connector-curvature="0"
           d="m 277.8,254.6 c 0.7,-4 5.6,-4.2 8.5,-5.9 -0.5,2.2 0.1,5.2 -1.9,6.8 -2.2,0.5 -4.5,-0.5 -6.6,-0.9 z"
           id="path86"
           style="fill:#f1c63c;stroke:#f1c63c;stroke-width:0.09375" /><path
           inkscape:connector-curvature="0"
           d="m 293.9,256.8 c -0.3,-3 1.8,-4.9 4.1,-6.3 1.9,1.8 1.5,4.2 0.8,6.4 -1.7,0 -3.3,-0.1 -4.9,-0.1 z"
           id="path88"
           style="fill:#f0c63c;stroke:#f0c63c;stroke-width:0.09375" /><path
           inkscape:connector-curvature="0"
           d="m 349.6,259.2 c 1.2,-2 3.1,-3.5 5.2,-4.5 1.1,2 2.2,4 3.4,6.1 -2.6,-1.7 -5.7,-1.8 -8.6,-1.6 z"
           id="path90"
           style="fill:#f1c63c;stroke:#f1c63c;stroke-width:0.09375" /><path
           inkscape:connector-curvature="0"
           d="m 450.7,258.9 c 1.7,-0.3 3.5,-0.4 5.2,0 -0.6,0.2 -1.9,0.7 -2.5,0.9 2.3,4 2.6,8.8 4.9,12.9 1.3,2.6 2.3,5.5 3.6,8.1 -0.7,0.6 -1.5,1.2 -2.2,1.9 -4.3,-7.4 -6.4,-15.7 -9,-23.8 z"
           id="path92"
           style="fill:#f1c53c;stroke:#f1c53c;stroke-width:0.09375" /><path
           inkscape:connector-curvature="0"
           d="m 254.8,261.4 c 3.2,-0.6 6.3,-1.5 9.4,-2.3 -0.7,3.7 -3.7,6.2 -7.3,7.1 -0.7,-1.6 -1.4,-3.2 -2.1,-4.8 z"
           id="path94"
           style="fill:#f1c63c;stroke:#f1c63c;stroke-width:0.09375" /><path
           inkscape:connector-curvature="0"
           d="m 342.5,261.4 c 0.6,-0.2 2,-0.7 2.7,-0.9 -0.2,3.1 0.2,6.5 -1.5,9.3 -1.8,3.4 -3.1,7.1 -4,10.9 -1.7,0.4 -3.5,0.8 -5.2,1.4 1.8,-2.2 1.6,-5 1.9,-7.6 3,-3.9 5.1,-8.3 6.1,-13.1 z"
           id="path96"
           style="fill:#f1c63c;stroke:#f1c63c;stroke-width:0.09375" /><path
           inkscape:connector-curvature="0"
           d="m 346.7,266.8 c 0.5,-2.2 0.3,-5.6 3.3,-6 1.6,2.3 -0.3,5 -0.8,7.4 -1.9,4.4 -2.6,10.2 -7,13 1.5,-4.8 4,-9.3 4.5,-14.4 z"
           id="path98"
           style="fill:#f1c63c;stroke:#f1c63c;stroke-width:0.09375" /><path
           inkscape:connector-curvature="0"
           d="m 401,267 c 3.2,-2.1 6.2,-5.2 10.2,-5.5 2.4,-0.1 4.8,-0.4 7.1,0.2 2.6,3 3.9,7.2 2.3,11 -1.3,3.7 -6.2,5.1 -9.7,3.4 -0.8,-1.4 -1.2,-2.9 -1.8,-4.4 -1.1,0.2 -5.1,0.2 -3.3,2.1 1.2,1.4 2.5,2.8 3.5,4.4 -2.3,-0.6 -4.4,-1.8 -6.6,-2.6 2.3,3.5 2.8,7.7 2.2,11.8 -2.4,-3.4 -3,-7.4 -3.3,-11.4 0.2,-1.6 -1,-3.8 0.4,-5 5.7,-2.8 12.3,-2.1 18.5,-2.6 -1.7,-2.5 -4.9,-2.7 -7.6,-2.9 -2.2,0 -4.7,-0.8 -6.3,1.1 -1.5,1 -2.5,3.1 -4.4,3.3 -0.3,-0.7 -0.9,-2.2 -1.2,-2.9 z"
           id="path100"
           style="fill:#000000;stroke:#000000;stroke-width:0.09375" /><path
           inkscape:connector-curvature="0"
           d="m 349.9,277.5 c 0.6,-5.4 1.6,-11.2 5,-15.8 -0.1,5.6 -1.6,11.3 -5,15.8 z"
           id="path102"
           style="fill:#f1c63c;stroke:#f1c63c;stroke-width:0.09375" /><path
           inkscape:connector-curvature="0"
           d="m 441,261.4 c 3.5,3.5 4.8,8.5 5.3,13.2 -3.7,-3.3 -4.1,-8.6 -5.3,-13.2 z"
           id="path104"
           style="fill:#f1c53c;stroke:#f1c53c;stroke-width:0.09375" /><path
           inkscape:connector-curvature="0"
           d="m 447,261.8 c 3.2,5.3 4.3,11.7 7.8,16.7 -0.3,0.8 -0.6,1.5 -0.8,2.3 -1.3,-0.4 -2.6,-0.8 -3.9,-1.1 0,-6.2 -3.4,-11.8 -3.1,-17.9 z"
           id="path106"
           style="fill:#f1c63c;stroke:#f1c63c;stroke-width:0.09375" /><path
           inkscape:connector-curvature="0"
           d="m 355.9,276.1 c 0.6,-4.6 0.9,-10.5 5,-13.5 0.2,2 1.3,4.2 -0.2,5.9 -1.8,2.4 -3.4,5 -4.8,7.6 z"
           id="path108"
           style="fill:#f1c63c;stroke:#f1c63c;stroke-width:0.09375" /><path
           inkscape:connector-curvature="0"
           d="m 360.8,273.6 c 0.6,-3.6 2.5,-9.3 7.2,-7.9 -2.2,3.8 -5,7.1 -7.8,10.3 -0.5,-0.8 -0.9,-1.6 -1.3,-2.4 0.4,0 1.4,0 1.9,0 z"
           id="path110"
           style="fill:#f1c63c;stroke:#f1c63c;stroke-width:0.09375" /><path
           inkscape:connector-curvature="0"
           d="m 437.3,264.7 c 1,1.3 1.9,2.6 2.8,3.9 -1.4,1 -2.7,2 -4.1,2.9 0.5,0.8 1.1,1.7 1.7,2.5 1.1,-0.5 2.2,-0.8 3.3,-1.2 0.1,0.6 0.3,1.7 0.4,2.3 -1.9,-0.3 -3.8,-0.4 -5.7,-0.9 -1.2,-1.5 -2,-3.2 -2.9,-4.8 -1.3,0.7 -2.5,1.4 -3.8,2 1.3,-2.3 3.1,-4.3 5,-6.1 0.8,1.5 1.5,3.2 3,4.3 0.1,-1.6 0.2,-3.3 0.3,-4.9 z"
           id="path112"
           style="fill:#f1c53c;stroke:#f1c53c;stroke-width:0.09375" /><path
           inkscape:connector-curvature="0"
           d="m 366.2,270.8 c 2.4,1.9 4.3,4.4 5.1,7.4 -3.1,-1.2 -4.3,-4.4 -5.1,-7.4 z"
           id="path114"
           style="fill:#f1c63c;stroke:#f1c63c;stroke-width:0.09375" /><path
           inkscape:connector-curvature="0"
           d="m 416.4,272.5 c 1.2,-1.7 3.5,0.3 1.6,1.6 -1.2,1.8 -3.4,-0.4 -1.6,-1.6 z"
           id="path116"
           style="fill:#f4c392;stroke:#f4c392;stroke-width:0.09375" /><path
           inkscape:connector-curvature="0"
           d="m 317.5,276.6 c 3.2,-1.3 6.1,-3.2 9.4,-4 -2.7,4.7 -3.5,10.3 -6.7,14.7 -2.3,3.4 1.9,6.7 5.2,5.7 0.3,-0.1 1.1,-0.2 1.5,-0.3 4.1,-3.3 9.1,-5.1 14,-6.6 2.4,-0.3 3.7,-2.5 5.8,-3.3 2.6,-1 5.3,-1.3 8,-1.4 2.7,0.1 4.6,-2.1 7,-2.9 0.3,3.3 -0.1,6.8 1,9.9 3.4,4.4 5.6,9.6 7.2,14.9 -3,-0.3 -4.5,-2.9 -5.8,-5.3 0.2,2.3 0.3,4.6 0.1,6.9 -1,-0.2 -1.9,-0.4 -2.9,-0.6 0.3,1.3 0.6,2.5 0.9,3.7 -3,-0.8 -5.9,-0.9 -8.2,1.4 -0.8,-2.7 -0.3,-6.2 -3.1,-7.9 0.1,3.7 1.4,7.3 1.2,11 -2.2,-3 -1.8,-7.5 -5.2,-9.8 0.1,3.2 1.2,6.2 2.3,9.2 -1.7,1.4 -3.3,2.8 -5.1,4.1 -1.3,-2.3 -2.4,-4.7 -3.6,-7 0,3.4 0.8,7.2 -1.5,10.1 -0.7,-2.5 -1.3,-5 -2.3,-7.3 -0.2,2.6 -0.3,5.3 -0.6,8 -0.6,-0.8 -1.2,-1.7 -1.8,-2.6 -0.1,2.5 -1.6,4.1 -4.2,3.1 0.7,1.2 1.4,2.4 2.1,3.6 -2.8,-0.8 -5.8,-1 -8.7,-1 0.2,-3.6 -0.3,-7.2 -2.3,-10.1 0.1,3.9 1.1,7.8 0.2,11.7 -2,-0.1 -4,-0.3 -5.9,-0.5 -0.6,-2.5 -1.1,-4.9 -2,-7.2 -0.4,3.3 0.9,7.3 -2,9.7 -0.1,-1.7 -0.3,-3.5 -0.5,-5.2 -1.5,0.8 -1.9,2.5 -2.5,4 -0.7,-1.5 -1.4,-3 -2.2,-4.5 0.2,3 -0.5,6 -2.5,8.3 -1.2,-1.4 -2.3,-2.8 -3.3,-4.2 -0.4,4.1 -4.2,6.4 -5.6,10 0.9,1.6 2,3.1 2.9,4.7 6.7,-0.5 13.9,-0.2 20,-3.4 4.4,5.3 12.2,3.8 17.8,7.2 4.5,4.1 9.4,7.7 15.1,9.9 2.3,2.1 4.3,4.3 6.6,6.4 0.9,-0.5 1.9,-1 2.8,-1.5 2.7,2.9 6.8,3.2 10.3,4.3 2.4,2 5.9,1 8.3,2.9 3.1,2.1 7,1.3 10.4,0.8 2.6,0.4 5.1,1.1 7.6,1.8 1.5,1 2.3,2.7 3.4,4.1 -1,2.4 -1.8,4.9 -3.4,6.9 0.8,1.5 1.5,3.2 1.1,4.9 -1.4,-0.5 -2.7,-1.1 -4,-1.7 0.3,1.6 0.7,3.1 1.2,4.6 0.4,-0.5 1.4,-1.3 1.9,-1.7 1.1,1.8 -0.1,3.9 0,5.9 0.3,1.4 1.8,2.2 2.7,3.2 -0.1,3.3 -0.1,6.7 -1.3,9.8 0.7,0 2.2,0 3,0 0,2.9 0,5.8 0,8.7 -0.5,0 -1.4,-0.2 -1.9,-0.3 -1,5.1 -3.8,9.6 -5.6,14.5 -0.6,1.7 -2.1,2.9 -3.4,4.2 0.2,-5.7 0.8,-11.4 -0.3,-17 -1.1,-3.3 -3.1,-6.2 -4.9,-9.2 -2.2,-3.9 -3,-9.2 -7.5,-11.2 0,-0.6 0.2,-1.8 0.2,-2.4 -0.8,0.2 -1.7,0.3 -2.5,0.4 -0.7,-1.3 -1.3,-2.7 -1.9,-4 -4.8,-0.8 -8.6,-4 -13.3,-5 -2.8,-0.5 -4.6,-4.1 -7.8,-3.1 -0.7,-0.8 -1.3,-2.1 -2.7,-2 -5.5,-0.7 -11.4,-0.5 -16.6,-2.7 -1.3,-0.5 -2,-1.8 -3,-2.8 -0.9,1.2 -1.7,2.4 -2.5,3.6 -1.8,-1.5 -3.7,-2.8 -5.3,-4.5 -0.5,0.6 -0.9,1.2 -1.3,1.8 -1.4,-1 -2.7,-2.1 -4.2,-2.8 -1.7,-0.4 -3.3,0.6 -4.9,1 -2.3,-2.3 -5,-4.2 -8,-5.4 -1.6,0 -2.7,1.4 -4,2.1 0.4,-1.1 0.8,-2.2 1.2,-3.3 -6.3,1.1 -11.5,-3.5 -17.5,-3.9 -3.3,-0.3 -6.5,-0.4 -9.6,-1.5 -4.4,-1.7 -9.6,-0.8 -13.6,-3.6 -4.5,-5.3 -6.4,-13.2 -3.8,-19.8 0.3,-3.9 5.4,-4.9 5.8,-8.7 3.7,-1.6 6.9,-4.3 9.3,-7.5 1.2,-1.4 1,-3.4 2,-4.9 2.2,-1.6 5.7,-1.4 6.9,-4.2 1.6,-4.4 6.3,-6.3 8.9,-10 3.2,-5.7 10.4,-7.7 13,-13.9 3.4,-0.5 5.7,-3 5.9,-6.4 3.7,2 6.7,-1.2 9.1,-3.6 z"
           id="path118"
           style="fill:#ffcb99;stroke:#ffcb99;stroke-width:0.09375" /><path
           inkscape:connector-curvature="0"
           d="m 427.3,278.1 c 1.4,-2 3.5,-3.2 6,-3.3 0.2,3.6 -3.3,3.6 -6,3.3 z"
           id="path120"
           style="fill:#e8bb39;stroke:#e8bb39;stroke-width:0.09375" /><path
           inkscape:connector-curvature="0"
           d="m 364.9,275.6 c 2.4,2.2 5.2,4 7.2,6.5 0.2,2.5 -2.4,3.2 -4,4.4 2.5,1.8 6.3,2.4 7.5,5.5 -0.7,1 -1.4,1.8 -2.1,2.7 4.6,1.1 7.8,4.9 11.1,8.1 -2.5,0.3 -5.1,0.5 -7.7,0.2 1.1,-0.9 2.2,-1.8 3.3,-2.8 -3,-1.4 -6.9,-1.6 -9.2,-4.3 0.2,-1 0.5,-2 0.7,-2.9 -1.9,-2.1 -4,-4.1 -6.2,-6 0.5,-1.4 1,-2.8 1.4,-4.2 -1.3,-2.2 -2.1,-4.6 -2,-7.2 z"
           id="path122"
           style="fill:#f0c63c;stroke:#f0c63c;stroke-width:0.09375" /><path
           inkscape:connector-curvature="0"
           d="m 424.9,284.9 c 2.5,-2.9 6,-4.7 9.6,-5.9 -1.5,2.3 -3.1,4.6 -4.4,7 -1.7,-0.4 -3.5,-0.8 -5.2,-1.1 z"
           id="path124"
           style="fill:#f1c53c;stroke:#f1c53c;stroke-width:0.09375" /><path
           inkscape:connector-curvature="0"
           d="m 390.9,282.8 c 1.5,1.6 2.7,3.6 4.5,5 2.2,1.4 4.6,-0.1 6.9,-0.5 -2.1,1.9 -4.9,3.4 -7.6,2 -2.9,-0.8 -3.8,-3.9 -3.8,-6.5 z"
           id="path126"
           style="fill:#010101;stroke:#010101;stroke-width:0.09375" /><path
           inkscape:connector-curvature="0"
           d="m 443.9,283.8 c 2.2,0.2 3.9,1.6 5.1,3.4 -2.2,-0.2 -4.2,-1.3 -5.1,-3.4 z"
           id="path128"
           style="fill:#010101;stroke:#010101;stroke-width:0.09375" /><path
           inkscape:connector-curvature="0"
           d="m 422.5,289 c 2.6,-1.1 5.5,-1.5 8.3,-1.9 -1.3,2.1 -2.9,4 -4.7,5.7 -1.4,-1.1 -4,-1.5 -3.6,-3.8 z"
           id="path130"
           style="fill:#f1c63c;stroke:#f1c63c;stroke-width:0.09375" /><path
           inkscape:connector-curvature="0"
           d="m 420.3,293.2 c 1.9,-0.5 5.9,-0.1 5.5,2.6 -2.3,0.9 -6.5,2.3 -7.6,-0.8 0.5,-0.5 1.5,-1.4 2.1,-1.8 z"
           id="path132"
           style="fill:#f1c63c;stroke:#f1c63c;stroke-width:0.09375" /><path
           inkscape:connector-curvature="0"
           d="m 390.7,295.3 c 3.9,-0.2 7.9,-0.2 11.7,0.2 -2.7,4.4 -8.2,1.7 -11.7,-0.2 z"
           id="path134"
           style="fill:#000000;stroke:#000000;stroke-width:0.09375" /><path
           inkscape:connector-curvature="0"
           d="m 391,298.9 c 2.4,0.7 4.7,1.8 6.9,2.9 2.1,-1 4.3,-1.9 6.5,-2.7 -1.4,4 -6.3,3.9 -9.7,3.2 -1.9,-0.3 -2.7,-2 -3.7,-3.4 z"
           id="path136"
           style="fill:#010101;stroke:#010101;stroke-width:0.09375" /><path
           inkscape:connector-curvature="0"
           d="m 417.2,304.2 c -1.2,-1.5 -4.8,-3.6 -2.2,-5.5 2.4,0.1 4.8,0.6 7.2,1 -1.6,1.6 -3.3,3.1 -5,4.5 z"
           id="path138"
           style="fill:#f1c63c;stroke:#f1c63c;stroke-width:0.09375" /><path
           inkscape:connector-curvature="0"
           d="m 484.1,300.1 c 0.5,0 1.5,-0.1 2,-0.1 -0.1,1.3 -0.1,2.6 -0.1,3.9 -0.5,0 -1.4,0 -1.9,-0.1 0,-1.2 0,-2.4 0,-3.7 z"
           id="path140"
           style="fill:#a58463;stroke:#a58463;stroke-width:0.09375" /><path
           inkscape:connector-curvature="0"
           d="m 426.5,305.3 c 1.2,-2 3.3,-3.2 5.7,-3.5 -1.5,1.8 -3.4,3 -5.7,3.5 z"
           id="path142"
           style="fill:#010101;stroke:#010101;stroke-width:0.09375" /><path
           inkscape:connector-curvature="0"
           d="m 410.7,304.5 c 1.5,-0.1 3.1,-0.1 4.6,0 -0.7,1 -1.4,2.7 -3,2.2 -0.6,-0.7 -1.1,-1.4 -1.6,-2.2 z"
           id="path144"
           style="fill:#f1c63c;stroke:#f1c63c;stroke-width:0.09375" /><path
           inkscape:connector-curvature="0"
           d="m 346.1,314.3 c -2.7,-1 -1.5,-4.1 -0.2,-5.7 0.2,1.9 0.3,3.8 0.2,5.7 z"
           id="path146"
           style="fill:#020200;stroke:#020200;stroke-width:0.09375" /><path
           inkscape:connector-curvature="0"
           d="m 388,310.8 c 2.3,-1 4.8,-2.1 7.2,-1.2 -1.1,1.6 -2.2,3 -3.3,4.6 1.5,-0.6 2.9,-1.4 4.3,-2.2 2.8,2.7 5.7,5.3 8.1,8.4 -2,0.3 -4.2,0.6 -5.8,-0.9 -3.3,-3.2 -7.7,-5 -10.5,-8.7 z"
           id="path148"
           style="fill:#f1c63c;stroke:#f1c63c;stroke-width:0.09375" /><path
           inkscape:connector-curvature="0"
           d="m 397.7,310.2 c 3.1,-0.4 6.3,-0.7 9.4,-0.7 2.4,3 3.5,7 3.1,10.8 -1.4,-0.3 -3.7,0.5 -4.2,-1.2 -0.6,-1.2 -0.9,-2.5 -1.3,-3.8 -2.5,-1.4 -4.9,-3.1 -7,-5.1 z"
           id="path150"
           style="fill:#f1c63c;stroke:#f1c63c;stroke-width:0.09375" /><path
           inkscape:connector-curvature="0"
           d="m 438.8,316.2 c 1.6,-1.8 3.5,-3.3 5.6,-4.3 -1.3,2 -3.2,3.6 -5.6,4.3 z"
           id="path152"
           style="fill:#010101;stroke:#010101;stroke-width:0.09375" /><path
           inkscape:connector-curvature="0"
           d="m 385.5,319.4 c 1.4,-1.2 2.9,-2.4 4.5,-3.5 2.2,2.2 2.6,6.8 -0.8,8.1 -1.7,-1.2 -0.9,-3.3 -1,-5.1 -0.7,0.2 -2,0.4 -2.7,0.5 z"
           id="path154"
           style="fill:#f1c63c;stroke:#f1c63c;stroke-width:0.09375" /><path
           inkscape:connector-curvature="0"
           d="m 401.2,324.5 c 1.4,-1.2 2.5,-3.1 4.5,-3.4 2.9,3.1 5.3,6.6 5.3,10.9 -1.8,0.2 -3.6,0.3 -5.4,0.5 0.2,-1.5 0.3,-2.9 0.3,-4.3 -1.1,-1.7 -3.1,-2.5 -4.7,-3.7 z"
           id="path156"
           style="fill:#f0c63c;stroke:#f0c63c;stroke-width:0.09375" /><path
           inkscape:connector-curvature="0"
           d="m 395.6,322.7 c 1.1,-0.2 2.2,-0.3 3.3,-0.5 -0.2,3.9 -0.7,7.8 -1,11.7 1.9,1.5 4.4,2.6 5.2,5 1,2.6 3.7,3.8 4.6,6.4 3.4,6.8 9.8,12.7 10.2,20.6 -0.5,0.1 -1.3,0.2 -1.7,0.3 -3.4,-6.4 -7.6,-12.4 -12.4,-17.8 -3.5,-5.6 -7.1,-11.5 -7.8,-18.2 -1,-2.5 -2,-5 -0.4,-7.5 z"
           id="path158"
           style="fill:#f1c63c;stroke:#f1c63c;stroke-width:0.09375" /><path
           inkscape:connector-curvature="0"
           d="m 389.9,327.9 c 1.6,1.1 3.5,2.2 4,4.2 -0.2,1.2 -0.5,2.4 -1,3.6 -1.8,-2.2 -3,-4.9 -3,-7.8 z"
           id="path160"
           style="fill:#f1c63c;stroke:#f1c63c;stroke-width:0.09375" /><path
           inkscape:connector-curvature="0"
           d="m 401.2,330.8 c 2.4,1.4 4.1,3.6 5,6.3 -3.3,-0.3 -4.6,-3.4 -5,-6.3 z"
           id="path162"
           style="fill:#f1c63c;stroke:#f1c63c;stroke-width:0.09375" /><path
           inkscape:connector-curvature="0"
           d="m 408.1,332.6 c 3.2,0.8 3.5,4.6 5.5,6.7 2.8,2.4 5.9,4.5 9.2,5.9 1.2,0.4 1.9,1.5 2.5,2.5 -3.9,0.5 -7.8,-0.8 -11.6,-1.5 -2.4,-4.3 -5,-8.6 -5.6,-13.6 z"
           id="path164"
           style="fill:#f1c63c;stroke:#f1c63c;stroke-width:0.09375" /><path
           inkscape:connector-curvature="0"
           d="m 390.8,340.4 c 2.9,0.3 6.1,0.3 8.1,2.6 -2.6,2.2 -6.3,-0.2 -8.1,-2.6 z"
           id="path166"
           style="fill:#f1c63c;stroke:#f1c63c;stroke-width:0.09375" /><path
           inkscape:connector-curvature="0"
           d="m 390.9,346.3 c 3.4,0.8 6.9,1 10.3,1.7 -2.1,1 -4.3,1.8 -6.4,2.6 0.1,0.6 0.5,1.6 0.7,2.2 1.1,0.6 2.4,0.8 3.8,0.5 -2.5,1.1 -5.8,1 -6.4,-2.3 -0.6,-1.3 -1.2,-2.6 -1.7,-4 z"
           id="path168"
           style="fill:#f5ca00;stroke:#f5ca00;stroke-width:0.09375" /><path
           inkscape:connector-curvature="0"
           d="m 388.1,347.5 c 0.8,-0.1 2.3,-0.4 3.1,-0.5 0.5,1.4 1.1,2.7 1.7,4 -1.3,-0.6 -2.7,-1.2 -4.1,-1.8 -0.2,-0.4 -0.5,-1.3 -0.7,-1.7 z"
           id="path170"
           style="fill:#020200;stroke:#020200;stroke-width:0.09375" /><path
           inkscape:connector-curvature="0"
           d="m 413.9,350.4 c 4,2.2 6.8,5.9 10.8,8 3.3,1.5 5.8,4.6 9.5,5.5 2.1,0.9 4.3,-0.1 6.4,-0.5 3.3,2.4 7.6,2 11.3,3.2 -0.2,1.4 -0.5,2.8 -0.7,4.3 1.2,-0.1 2.4,-0.1 3.6,-0.1 1.2,1.2 2.3,2.4 3.6,3.6 0.3,-0.8 1.1,-2.3 1.5,-3 2.9,1.4 5.7,3.2 8.2,5.3 -1.8,0.1 -3.6,0.2 -5.4,0.3 2.9,3.5 4.8,8 3.7,12.6 -2.2,-0.7 -4.3,-1.5 -6.4,-2.2 0.6,1.5 1.4,3 1.9,4.6 -0.5,1 -1.5,1.6 -2.3,2.3 -0.3,-0.7 -1,-2.1 -1.3,-2.8 -1.9,0.8 -3.9,2.4 -6.1,1.6 -0.8,-0.9 -1.4,-1.9 -2.1,-2.9 1.8,0.2 3.6,0.5 5.4,0.8 -0.1,-1.1 -0.3,-2.1 -0.4,-3.2 3.3,-1.3 5.7,-4.4 9.4,-4.6 -1.5,-0.6 -3,-1.2 -4.5,-1.8 -0.2,-1.3 -0.5,-2.7 -0.7,-4.1 -3.9,-0.5 -7.7,-2.4 -11.7,-1.7 0,-1.5 0.1,-3 0.2,-4.5 -3,-1 -5.8,-2.6 -7.1,-5.6 -4,1.9 -5,7 -8.9,8.8 -1.3,-5.6 -5.2,-9.9 -8.7,-14.1 -0.9,0.6 -1.8,1.2 -2.7,1.8 -0.5,-4.6 -4.3,-7.7 -6.5,-11.6 z"
           id="path172"
           style="fill:#f1c63c;stroke:#f1c63c;stroke-width:0.09375" /><path
           inkscape:connector-curvature="0"
           d="m 452.8,365.7 c 3.3,-0.6 5.7,1.9 6.7,4.7 -3.1,0.1 -5.5,-1.9 -6.7,-4.7 z"
           id="path174"
           style="fill:#f1c63c;stroke:#f1c63c;stroke-width:0.09375" /><path
           inkscape:connector-curvature="0"
           d="m 437.7,369 c 3.8,0.9 7.4,2.9 9.6,6.2 1.4,1.5 -0.8,2.9 -2.2,2.8 -3.7,-1.6 -6.9,-4.8 -7.4,-9 z"
           id="path176"
           style="fill:#f1c63c;stroke:#f1c63c;stroke-width:0.09375" /><path
           inkscape:connector-curvature="0"
           d="m 374.4,370.9 c 3.6,-0.4 7.1,-0.4 10.7,-0.4 1.4,1.9 2.8,3.9 3.1,6.2 -0.7,0 -2.2,0 -2.9,-0.1 -0.8,-1.3 -1.6,-2.6 -2.4,-3.9 -2.9,-0.1 -6.1,0.3 -8.5,-1.8 z"
           id="path178"
           style="fill:#010101;stroke:#010101;stroke-width:0.09375" /><path
           inkscape:connector-curvature="0"
           d="m 434.5,374.6 c 3.9,-0.2 6.7,2.8 7.7,6.2 1.2,3.8 4.3,6.4 6.1,9.8 -1.3,0.2 -2.7,0.3 -4,0.4 -1,-2.5 -3.1,-4.1 -5.3,-5.5 0.9,-0.6 1.8,-1.2 2.8,-1.8 -4.4,-0.8 -7.1,-5 -7.3,-9.1 z"
           id="path180"
           style="fill:#f1c63c;stroke:#f1c63c;stroke-width:0.09375" /><path
           inkscape:connector-curvature="0"
           d="m 443.9,382 c 2.5,-1.1 4.9,-2.4 7.3,-3.7 3.5,0.4 6.2,3.3 7.1,6.6 -3.2,0.7 -5.9,-1.2 -8.6,-2.8 1.3,2.1 2.8,4.1 3.8,6.3 -4.3,0.5 -7.8,-2.8 -9.6,-6.4 z"
           id="path182"
           style="fill:#f1c63c;stroke:#f1c63c;stroke-width:0.09375" /><path
           inkscape:connector-curvature="0"
           d="m 470.1,382.3 c 4.4,1.7 3.7,7.3 6.2,10.8 -3.2,1.9 -7.4,1.8 -10.8,0.5 -1.5,-0.4 -2.1,-1.5 -1.8,-3.1 2.2,-0.3 4.3,0.8 6.3,1.5 -0.7,-1.3 -1.3,-2.5 -1.9,-3.8 1.5,-1.6 1.6,-3.9 2,-5.9 z"
           id="path184"
           style="fill:#f1c63c;stroke:#f1c63c;stroke-width:0.09375" /><path
           inkscape:connector-curvature="0"
           d="m 472,401.3 c 2.4,0 4.9,0.3 6.1,2.8 -2.3,-0.3 -4.4,-1.3 -6.1,-2.8 z"
           id="path186"
           style="fill:#020100;stroke:#020100;stroke-width:0.09375" /></g></g></g></svg>