<?xml version="1.0" encoding="UTF-8" standalone="no"?>
<svg
   xmlns:dc="http://purl.org/dc/elements/1.1/"
   xmlns:cc="http://creativecommons.org/ns#"
   xmlns:rdf="http://www.w3.org/1999/02/22-rdf-syntax-ns#"
   xmlns:svg="http://www.w3.org/2000/svg"
   xmlns="http://www.w3.org/2000/svg"
   xmlns:sodipodi="http://sodipodi.sourceforge.net/DTD/sodipodi-0.dtd"
   xmlns:inkscape="http://www.inkscape.org/namespaces/inkscape"
   viewBox="0 0 60 30"
   width="1200"
   height="600"
   version="1.1"
   id="svg24787"
   sodipodi:docname="uk.svg"
   inkscape:export-filename="/Users/bmonro/Downloads/uk.png"
   inkscape:export-xdpi="96"
   inkscape:export-ydpi="96"
   inkscape:version="0.92.1 r">
  <metadata
     id="metadata24793">
    <rdf:RDF>
      <cc:Work
         rdf:about="">
        <dc:format>image/svg+xml</dc:format>
        <dc:type
           rdf:resource="http://purl.org/dc/dcmitype/StillImage" />
        <dc:title></dc:title>
      </cc:Work>
    </rdf:RDF>
  </metadata>
  <defs
     id="defs24791">
    <clipPath
       clipPathUnits="userSpaceOnUse"
       id="clipPath21602">
      <path
         inkscape:connector-curvature="0"
         id="path21604"
         d="m 494,0 -204.96485,118.33683 -1.89921,232.28713 c 3.9e-4,-13.67524 1.3694,-27.31604 4.08654,-40.71864 -2.71714,13.4026 -4.08615,27.0434 -4.08654,40.71864 -7.8e-4,113.19929 91.76557,204.96564 204.96484,204.96485 113.19827,-6.3e-4 204.96304,-91.76659 204.96226,-204.96485 l 1.8992,-232.28713 z"
         style="opacity:1;fill:#000000;fill-opacity:1;stroke:none;stroke-width:20.14422417;stroke-miterlimit:4;stroke-dasharray:none;stroke-opacity:1" />
    </clipPath>
    <clipPath
       clipPathUnits="userSpaceOnUse"
       id="clipPath27687">
      <path
         inkscape:connector-curvature="0"
         id="path27689"
         d="M 30,0 18.381757,6.3702589 18.274104,18.874645 c 2.2e-5,-0.73616 0.07762,-1.470466 0.231642,-2.191949 -0.154019,0.721483 -0.23162,1.45579 -0.231642,2.191949 -4.4e-5,6.093698 5.201646,11.033626 11.61824,11.033584 6.416538,-3.4e-5 11.618146,-4.939941 11.618102,-11.033584 L 41.61811,6.3702589 Z"
         style="display:inline;opacity:1;fill:#000000;fill-opacity:1;stroke:#000000;stroke-width:0.2176341;stroke-miterlimit:4;stroke-dasharray:none;stroke-opacity:1"
         inkscape:export-xdpi="96"
         inkscape:export-ydpi="96" />
    </clipPath>
  </defs>
  <sodipodi:namedview
     pagecolor="#ffffff"
     bordercolor="#666666"
     borderopacity="1"
     objecttolerance="10"
     gridtolerance="10"
     guidetolerance="10"
     inkscape:pageopacity="0"
     inkscape:pageshadow="2"
     inkscape:window-width="1491"
     inkscape:window-height="940"
     id="namedview24789"
     showgrid="false"
     inkscape:zoom="1.0500339"
     inkscape:cx="1803.8729"
     inkscape:cy="303.93142"
     inkscape:window-x="0"
     inkscape:window-y="23"
     inkscape:window-maximized="0"
     inkscape:current-layer="svg24787" />
  <clipPath
     id="t">
    <path
       d="M30,15 h30 v15 z v15 h-30 z h-30 v-15 z v-15 h30 z"
       id="path24774" />
  </clipPath>
  <path
     inkscape:connector-curvature="0"
     id="path8204"
     d="m 104.94914,17.245127 -5.473339,3.958359 v -6.658508 z"
     style="display:inline;opacity:1;fill:#000000;fill-rule:evenodd;stroke:none;stroke-width:0.06886639px;stroke-linecap:butt;stroke-linejoin:miter;stroke-opacity:1" />
  <path
     inkscape:connector-curvature="0"
     id="path8202"
     d="m 74.694662,16.911919 c 3.067842,-3.06784 3.067842,-3.06784 3.067842,-3.06784 l 2.419701,4.191047 z"
     style="opacity:1;fill:#000000;fill-rule:evenodd;stroke:none;stroke-width:0.06886639px;stroke-linecap:butt;stroke-linejoin:miter;stroke-opacity:1" />
  <path
     id="path8182"
     d="M 89.641141,-0.19725093 89.296809,0.00154672 88.952477,0.20034477 77.759805,6.6624873 77.655968,19.371295 c -4e-5,0.0084 -1.21e-4,-0.01855 -1.21e-4,0.0019 v 0.0012 l -0.0055,0.681806 h 0.04008 c 0.357505,6.232518 5.533559,11.204955 11.853357,11.20491 6.550269,-3.6e-5 11.887836,-5.337654 11.887786,-11.887925 L 101.53554,6.6700175 89.641153,-0.19725255 Z"
     style="color:#000000;font-style:normal;font-variant:normal;font-weight:normal;font-stretch:normal;font-size:medium;line-height:normal;font-family:sans-serif;text-indent:0;text-align:start;text-decoration:none;text-decoration-line:none;text-decoration-style:solid;text-decoration-color:#000000;letter-spacing:normal;word-spacing:normal;text-transform:none;writing-mode:lr-tb;direction:ltr;baseline-shift:baseline;text-anchor:start;white-space:normal;clip-rule:nonzero;display:inline;overflow:visible;visibility:visible;opacity:1;isolation:auto;mix-blend-mode:normal;color-interpolation:sRGB;color-interpolation-filters:linearRGB;solid-color:#000000;solid-opacity:1;fill:#000000;fill-opacity:1;fill-rule:nonzero;stroke:none;stroke-width:1.3773278;stroke-linecap:butt;stroke-linejoin:miter;stroke-miterlimit:4;stroke-dasharray:none;stroke-dashoffset:0;stroke-opacity:1;color-rendering:auto;image-rendering:auto;shape-rendering:auto;text-rendering:auto;enable-background:accumulate"
     inkscape:connector-curvature="0" />
  <path
     id="path8173"
     d="M 89.641141,0.59794048 89.296809,0.79673853 78.445241,7.061966 78.344632,19.367529 h 1.21e-4 c -10e-7,0.0019 -2.83e-4,0.0038 -2.83e-4,0.0056 -4e-5,6.177043 5.022219,11.199302 11.199263,11.199261 6.176989,-3.6e-5 11.199167,-5.022274 11.199127,-11.199261 l 0.10075,-12.3074457 z"
     style="color:#000000;font-style:normal;font-variant:normal;font-weight:normal;font-stretch:normal;font-size:medium;line-height:normal;font-family:sans-serif;text-indent:0;text-align:start;text-decoration:none;text-decoration-line:none;text-decoration-style:solid;text-decoration-color:#000000;letter-spacing:normal;word-spacing:normal;text-transform:none;writing-mode:lr-tb;direction:ltr;baseline-shift:baseline;text-anchor:start;white-space:normal;clip-rule:nonzero;display:inline;overflow:visible;visibility:visible;opacity:1;isolation:auto;mix-blend-mode:normal;color-interpolation:sRGB;color-interpolation-filters:linearRGB;solid-color:#000000;solid-opacity:1;fill:#ffffff;fill-opacity:1;fill-rule:nonzero;stroke:none;stroke-width:1.3773278;stroke-linecap:butt;stroke-linejoin:miter;stroke-miterlimit:4;stroke-dasharray:none;stroke-dashoffset:0;stroke-opacity:1;color-rendering:auto;image-rendering:auto;shape-rendering:auto;text-rendering:auto;enable-background:accumulate"
     inkscape:connector-curvature="0" />
  <path
     inkscape:connector-curvature="0"
     id="path8151"
     d="M 89.641203,1.3931396 79.130604,7.4614523 79.033213,19.373137 c 2e-5,-0.701266 0.07022,-1.400767 0.209558,-2.088052 -0.139335,0.687285 -0.209538,1.386786 -0.209558,2.088052 -4e-5,5.80486 4.705739,10.510639 10.510598,10.510598 5.804807,-3.2e-5 10.510509,-4.705791 10.510469,-10.510598 l 0.0974,-11.9116847 z"
     style="display:inline;opacity:1;fill:#000000;fill-opacity:1;stroke:#000000;stroke-width:0.20203465;stroke-miterlimit:4;stroke-dasharray:none;stroke-opacity:1"
     inkscape:export-xdpi="96"
     inkscape:export-ydpi="96" />
  <path
     inkscape:connector-curvature="0"
     id="path8149"
     d="m 83.35222,14.91677 a 9.3784545,11.223727 42.430655 0 1 1.22e-4,-2.4e-5 9.3784545,11.223727 42.430655 0 0 -0.699145,0.876095 9.3784545,11.223727 42.430655 0 1 0.699014,-0.876071 z"
     style="opacity:1;fill:#000000;fill-opacity:1;stroke:none;stroke-width:1.03299582;stroke-miterlimit:4;stroke-dasharray:none;stroke-opacity:1" />
  <path
     inkscape:connector-curvature="0"
     id="path8144"
     d="m 81.050492,18.695307 a 9.3784545,11.223727 42.430655 0 0 -0.6054,2.065833 9.3784545,11.223727 42.430655 0 1 0.6054,-2.065833 z"
     style="opacity:1;fill:#000000;fill-opacity:1;stroke:none;stroke-width:1.03299582;stroke-miterlimit:4;stroke-dasharray:none;stroke-opacity:1" />
  <g
     id="g27681"
     transform="matrix(0.90466348,0,0,0.95260056,62.501298,1.3931396)"
     clip-path="url(#clipPath27687)">
    <path
       id="path24777"
       d="M 0,0 V 30 H 60 V 0 Z"
       inkscape:connector-curvature="0"
       style="fill:#00247d" />
    <path
       id="path24779"
       d="M 0,0 60,30 M 60,0 0,30"
       inkscape:connector-curvature="0"
       style="stroke:#ffffff;stroke-width:6" />
    <path
       id="path24781"
       clip-path="url(#t)"
       d="M 0,0 60,30 M 60,0 0,30"
       inkscape:connector-curvature="0"
       style="stroke:#cf142b;stroke-width:4" />
    <path
       id="path24783"
       d="M 30,0 V 30 M 0,15 h 60"
       inkscape:connector-curvature="0"
       style="stroke:#ffffff;stroke-width:10" />
    <path
       id="path24785"
       d="M 30,0 V 30 M 0,15 h 60"
       inkscape:connector-curvature="0"
       style="stroke:#cf142b;stroke-width:6" />
  </g>
  <path
     inkscape:connector-curvature="0"
     id="path8197"
     d="m 74.625325,16.969786 v 0.806675 4.894536 l 30.323815,-5.453941 v -5.701209 z"
     style="color:#000000;font-style:normal;font-variant:normal;font-weight:normal;font-stretch:normal;font-size:medium;line-height:normal;font-family:sans-serif;text-indent:0;text-align:start;text-decoration:none;text-decoration-line:none;text-decoration-style:solid;text-decoration-color:#000000;letter-spacing:normal;word-spacing:normal;text-transform:none;writing-mode:lr-tb;direction:ltr;baseline-shift:baseline;text-anchor:start;white-space:normal;clip-rule:nonzero;display:inline;overflow:visible;visibility:visible;opacity:1;isolation:auto;mix-blend-mode:normal;color-interpolation:sRGB;color-interpolation-filters:linearRGB;solid-color:#000000;solid-opacity:1;fill:#000000;fill-opacity:1;fill-rule:nonzero;stroke:none;stroke-width:1.65279329;stroke-linecap:butt;stroke-linejoin:miter;stroke-miterlimit:4;stroke-dasharray:none;stroke-dashoffset:0;stroke-opacity:1;color-rendering:auto;image-rendering:auto;shape-rendering:auto;text-rendering:auto;enable-background:accumulate" />
  <rect
     transform="matrix(0.9842079,-0.17701642,0,1,0,0)"
     y="31.198292"
     x="76.642372"
     height="4.0879025"
     width="29.171059"
     id="rect8189"
     style="opacity:1;fill:#ffffff;fill-opacity:1;stroke:none;stroke-width:1.3773278;stroke-miterlimit:4;stroke-dasharray:none;stroke-opacity:1" />
  <text
     id="text8185"
     style="font-style:normal;font-variant:normal;font-weight:bold;font-stretch:normal;font-size:0.6680876px;line-height:0%;font-family:Aharoni;-inkscape-font-specification:'Aharoni, Bold';text-align:start;letter-spacing:0px;word-spacing:0px;writing-mode:lr-tb;text-anchor:start;opacity:1;fill:#000000;fill-opacity:1;stroke:none;stroke-width:0.05567398px;stroke-linecap:butt;stroke-linejoin:miter;stroke-opacity:1"
     xml:space="preserve"
     y="34.281502"
     x="76.43187"
     transform="matrix(0.99397536,-0.1809467,0,1.0060612,0,0)"><tspan
       y="34.281502"
       x="76.43187"
       id="tspan8187"
       sodipodi:role="line"
       style="font-size:2.55722642px;line-height:1.25;font-family:sans-serif;stroke-width:0.05567398px">TRIFECTA BARBELL</tspan></text>
  <g
     transform="matrix(0.06886639,0,0,0.06886639,55.021522,-25.27162)"
     id="text13433"
     style="font-style:normal;font-weight:normal;font-size:35.39293288999999731px;line-height:125%;font-family:sans-serif;letter-spacing:9.21000004000000061px;word-spacing:0px;display:inline;opacity:1;fill:#000000;fill-opacity:1;stroke:#ffffff;stroke-opacity:1">
    <path
       id="path13443"
       style="letter-spacing:9.21000004000000061px;fill:#000000;stroke:#ffffff;stroke-opacity:1"
       d="m 436.31693,735.62878 -24.37274,12.48454 -3.34347,-3.10426 10.64425,-25.23082 2.68491,2.49282 -9.48932,22.08195 21.31811,-11.09945 z"
       inkscape:connector-curvature="0" />
    <path
       id="path13445"
       style="letter-spacing:9.21000004000000061px;fill:#000000;stroke:#ffffff;stroke-opacity:1"
       d="m 437.63492,766.33032 -8.74449,-5.17618 1.33807,-2.26048 2.89995,1.71659 10.4316,-17.62282 -2.89995,-1.71659 1.33806,-2.26048 8.74449,5.17618 -1.33807,2.26048 -2.89995,-1.71659 -10.4316,17.62282 2.89995,1.71659 z"
       inkscape:connector-curvature="0" />
    <path
       id="path13447"
       style="letter-spacing:9.21000004000000061px;fill:#000000;stroke:#ffffff;stroke-opacity:1"
       d="m 471.27353,771.84199 q -0.47315,1.42711 -1.60797,2.59845 -1.11842,1.17677 -2.63676,1.74757 -1.66036,0.61475 -3.61133,0.62337 -1.93458,0.014 -4.39513,-0.80173 -2.64099,-0.8756 -4.5939,-2.06928 -1.93651,-1.18824 -3.79733,-2.87938 l 1.34875,-4.0681 0.22965,0.0761 q 1.3424,2.15649 3.49277,3.79798 2.15038,1.64148 4.28286,2.34849 3.01827,1.00069 5.0667,0.42356 2.06483,-0.57168 2.69026,-2.4581 0.53841,-1.62397 -0.01,-2.66143 -0.53176,-1.03202 -2.01432,-1.99692 -1.12151,-0.73596 -2.49433,-1.4278 -1.35641,-0.6864 -2.8552,-1.54745 -3.01951,-1.76578 -4.04497,-3.94464 -1.00362,-2.18983 -0.11714,-4.86363 1.017,-3.06748 4.25596,-4.16023 3.2444,-1.10916 7.23049,0.2124 2.57537,0.85385 4.56109,2.0584 1.98573,1.20456 3.4032,2.47561 l -1.27261,3.83845 -0.22965,-0.0761 q -1.00274,-1.64333 -3.02724,-3.17026 -2.00265,-1.53789 -4.38118,-2.32647 -2.60818,-0.86473 -4.55828,-0.30962 -1.93369,0.56054 -2.4993,2.26652 -0.50578,1.52554 -0.007,2.65599 0.49913,1.13044 2.33169,2.2478 0.9737,0.57772 2.80056,1.54753 1.82686,0.96982 3.05775,1.76026 2.48372,1.62455 3.37759,3.54131 0.89388,1.91676 0.0237,4.54135 z"
       inkscape:connector-curvature="0" />
    <path
       id="path13449"
       style="letter-spacing:9.21000004000000061px;fill:#000000;stroke:#ffffff;stroke-opacity:1"
       d="m 503.63146,760.34113 -9.16297,-0.75308 -1.85865,22.61463 -3.41028,-0.28028 1.85865,-22.61463 -9.16297,-0.75309 0.24914,-3.03136 21.73622,1.78646 z"
       inkscape:connector-curvature="0" />
    <path
       id="path13451"
       style="letter-spacing:9.21000004000000061px;fill:#000000;stroke:#ffffff;stroke-opacity:1"
       d="m 534.56059,779.07538 -3.60229,0.56569 -3.60519,-6.69366 -10.99468,1.72654 -1.37998,7.4765 -3.43157,0.53888 5.26133,-26.87402 4.50713,-0.70777 z m -8.70466,-8.86676 -6.41571,-11.78025 -2.5132,13.1824 z"
       inkscape:connector-curvature="0" />
    <path
       id="path13453"
       style="letter-spacing:9.21000004000000061px;fill:#000000;stroke:#ffffff;stroke-opacity:1"
       d="m 551.35697,767.95234 -0.5501,12.31175 -2.3597,0.89332 -1.19543,-11.65095 z"
       inkscape:connector-curvature="0" />
    <path
       id="path13455"
       style="letter-spacing:9.21000004000000061px;fill:#000000;stroke:#ffffff;stroke-opacity:1"
       d="m 583.00563,753.73556 q -0.57575,0.86255 -1.03407,1.5881 -0.44379,0.71622 -1.27609,1.72295 -0.70967,0.84586 -1.63534,1.70717 -0.90179,0.86651 -2.15243,1.66949 -2.35585,1.51259 -4.71014,2.1 -2.34908,0.56353 -4.67991,0.0679 -2.28308,-0.48517 -4.43156,-2.10415 -2.15781,-1.63353 -3.96918,-4.45473 -1.718,-2.67579 -2.31565,-5.26995 -0.59766,-2.59415 -0.10621,-4.9634 0.47584,-2.29762 1.94832,-4.29043 1.48703,-2.00214 3.87197,-3.5334 1.74508,-1.12043 3.74638,-1.8098 2.01585,-0.69871 4.82062,-1.00032 l 2.19419,3.41745 -0.21814,0.14005 q -2.75041,-0.34941 -4.94886,0.0969 -2.19846,0.44628 -4.2053,1.73478 -1.64328,1.05507 -2.62116,2.4428 -0.97268,1.36385 -1.28624,3.14653 -0.30315,1.73492 0.20345,3.77143 0.51181,2.01263 1.91235,4.19397 1.4659,2.28315 3.13175,3.53428 1.68039,1.24179 3.31765,1.64872 1.7089,0.42254 3.39746,0.0777 1.69377,-0.36869 3.20617,-1.33974 2.07955,-1.33518 3.43983,-3.21487 1.36028,-1.87969 2.03037,-4.32257 l 0.20359,-0.13071 2.16618,3.37381 z"
       inkscape:connector-curvature="0" />
    <path
       id="path13457"
       style="letter-spacing:9.21000004000000061px;fill:#000000;stroke:#ffffff;stroke-opacity:1"
       d="m 608.56147,731.21252 -2.49215,2.66189 -6.95992,-3.05974 -7.60638,8.12446 3.51106,6.74351 -2.37404,2.53574 -12.38303,-24.42447 3.11815,-3.33053 z m -12.3172,-1.6362 -12.30474,-5.34127 6.1275,11.93925 z"
       inkscape:connector-curvature="0" />
  </g>
  <g
     transform="matrix(0.00657573,0,0,0.00657573,86.975302,20.66906)"
     style="display:inline;opacity:1;fill:#000000;stroke:#ffffff;stroke-opacity:1;stroke-width:4.04517825;stroke-miterlimit:4;stroke-dasharray:none"
     id="g13501">
    <path
       inkscape:connector-curvature="0"
       id="path8425"
       d="M 733.21972,-9.8409314 612.17479,111.20399 l -5.83983,-5.84472 -19.917,19.92187 12.73437,12.73438 -411.49901,411.49901 -12.73438,-12.73437 -19.92187,19.917 5.84472,5.83984 -121.044915,121.04495 22.9834,22.9834 121.044915,-121.04495 5.83984,5.84472 19.91699,-19.92187 -12.73438,-12.73438 411.49903,-411.49903 12.73437,12.73438 19.92188,-19.91699 -5.84473,-5.83984 121.04493,-121.044921 z m 0,0"
       style="fill:#000000;fill-opacity:1;fill-rule:nonzero;stroke:#ffffff;stroke-opacity:1;stroke-width:4.04517825;stroke-miterlimit:4;stroke-dasharray:none" />
    <path
       inkscape:connector-curvature="0"
       id="path8427"
       d="m 756.20312,683.58195 -121.04493,-121.04496 5.84473,-5.83983 -19.92188,-19.917 -12.73437,12.73437 -411.49903,-411.49901 12.73438,-12.73438 -19.91699,-19.92187 -5.83984,5.84472 L 62.780275,-9.8409314 39.796875,13.142469 160.84179,134.18739 l -5.84472,5.83984 19.92187,19.91699 12.73438,-12.73438 411.49901,411.49903 -12.73437,12.73437 19.917,19.92188 5.83983,-5.84472 121.04493,121.04495 z m 0,0"
       style="fill:#000000;fill-opacity:1;fill-rule:nonzero;stroke:#ffffff;stroke-opacity:1;stroke-width:4.04517825;stroke-miterlimit:4;stroke-dasharray:none" />
  </g>
  <circle
     style="fill:#000000;fill-opacity:1;stroke:#000000;stroke-width:0.0512764;stroke-miterlimit:4;stroke-dasharray:none;stroke-opacity:1"
     id="path22523"
     cx="89.598549"
     cy="9.0826073"
     r="4.0406928" />
  <path
     inkscape:connector-curvature="0"
     id="path13516"
     d="m 89.248259,13.065066 c -0.473608,-0.03919 -0.974465,-0.174328 -1.392413,-0.375697 -1.059808,-0.510625 -1.825503,-1.413449 -2.146793,-2.53126 -0.188668,-0.6564017 -0.199775,-1.4638497 -0.02929,-2.1292561 0.137198,-0.535486 0.421378,-1.0969019 0.783101,-1.547071 0.22731,-0.2828902 0.626339,-0.6372347 0.948102,-0.8419318 0.466935,-0.2970491 1.000446,-0.49851 1.554631,-0.5870488 0.257527,-0.041144 0.816239,-0.050213 1.095212,-0.017779 1.330017,0.1546341 2.483488,0.9452802 3.103639,2.1273897 0.593784,1.1318503 0.615329,2.4944584 0.05762,3.644153 -0.612776,1.263211 -1.848837,2.123897 -3.233907,2.251822 -0.175681,0.01622 -0.580383,0.01988 -0.739905,0.0067 z m 0.501172,-0.603989 c 0.07253,-1.22e-4 0.136147,-0.03935 0.274969,-0.169531 l 0.06541,-0.06134 -0.0109,-0.104934 c -0.006,-0.05771 -0.02181,-0.148826 -0.03515,-0.202471 -0.03339,-0.134316 -0.0185,-0.237321 0.07726,-0.534293 0.149518,-0.4637 0.161258,-0.577054 0.08093,-0.781472 -0.05619,-0.14299 -0.05044,-0.341542 0.01612,-0.557007 0.02684,-0.086876 0.0577,-0.2009796 0.06858,-0.2535632 0.01088,-0.052583 0.0277,-0.095605 0.03737,-0.095605 0.0097,0 0.04629,0.025926 0.08136,0.057613 0.0684,0.061791 0.191793,0.1294303 0.272802,0.1495335 0.02744,0.00681 0.182802,0.029072 0.34526,0.049474 0.44983,0.056492 0.578162,0.025848 0.802431,-0.1916129 C 92.025504,9.5723043 92.124061,9.329135 92.121785,9.0357823 92.1197,8.7672912 92.011504,8.5107076 91.829712,8.3431473 91.682927,8.2078532 91.534464,8.1651592 91.118805,8.1387104 c -0.245073,-0.015594 -0.304901,-0.01469 -0.379264,0.00573 -0.07203,0.019783 -0.08983,0.020241 -0.09664,0.00249 -0.01412,-0.036808 0.03477,-0.1279575 0.139337,-0.2597329 0.120429,-0.1517709 0.140394,-0.188953 0.206503,-0.3845803 0.04497,-0.1330741 0.05023,-0.1673332 0.04264,-0.2778409 -0.01051,-0.1531224 -0.07046,-0.3104828 -0.153133,-0.4019944 -0.09573,-0.1059647 -0.07111,-0.1869964 0.08537,-0.2809982 0.138668,-0.083297 0.180123,-0.1700878 0.180123,-0.3771119 0,-0.1716054 -0.02309,-0.2231064 -0.122877,-0.2740276 -0.0297,-0.015157 -0.06658,-0.038638 -0.08195,-0.052177 -0.05151,-0.045368 -0.19086,-0.098239 -0.265448,-0.1007122 -0.07785,-0.00258 -0.09369,0.010239 -0.109962,0.089 -0.0054,0.026281 -0.04308,0.066026 -0.102369,0.108076 -0.12578,0.089199 -0.140353,0.1043699 -0.140896,0.1466747 -2.83e-4,0.019922 -0.0215,0.097567 -0.0472,0.1725424 -0.0428,0.1248486 -0.04488,0.1416389 -0.02473,0.1995254 0.03212,0.092245 0.02778,0.1593573 -0.01316,0.2032982 -0.0576,0.06183 -0.183292,0.1342532 -0.232993,0.1342532 -0.0253,0 -0.08931,0.016014 -0.142232,0.035587 -0.123991,0.045854 -0.318108,0.2395485 -0.389688,0.3888391 -0.05132,0.1070336 -0.200885,0.3137106 -0.354641,0.490063 -0.124839,0.1431839 -0.177398,0.2328744 -0.350769,0.5985741 -0.0802,0.1691806 -0.158522,0.3263061 -0.174039,0.3491684 -0.01552,0.022862 -0.04456,0.073857 -0.06453,0.1133204 -0.01998,0.039465 -0.04462,0.068988 -0.05476,0.065607 -0.01014,-0.00338 -0.03093,-0.051792 -0.04621,-0.1075806 C 88.380484,8.5609851 88.309431,8.4373387 88.192695,8.319927 88.000851,8.1269702 87.875211,8.0915123 87.488541,8.1212009 c -0.405867,0.031162 -0.518139,0.069492 -0.671717,0.2293291 -0.26177,0.2724389 -0.310552,0.7258014 -0.117141,1.0886763 0.0709,0.1330273 0.248183,0.2972653 0.373005,0.3455641 0.08904,0.034455 0.121569,0.037353 0.388162,0.034598 0.160036,-0.00165 0.335867,-0.010909 0.390736,-0.020568 0.297122,-0.052301 0.539596,-0.3262262 0.59456,-0.6716792 0.0109,-0.068531 0.02539,-0.1246016 0.03219,-0.1246016 0.0068,0 0.04287,0.0159 0.08015,0.035333 0.09547,0.049762 0.146701,0.04555 0.202256,-0.016627 0.0455,-0.050918 0.04943,-0.05196 0.196304,-0.05196 0.09266,0 0.149879,0.0066 0.149879,0.01729 0,0.00951 -0.01546,0.047584 -0.03435,0.084611 -0.01889,0.037027 -0.05776,0.1657965 -0.08637,0.286155 -0.05691,0.2394022 -0.06774,0.4840605 -0.0278,0.6283722 0.01106,0.039956 0.02151,0.1512082 0.02323,0.2472302 0.0017,0.09602 0.01214,0.241454 0.02317,0.323184 0.01562,0.115781 0.01564,0.169027 8e-5,0.241092 -0.01203,0.05567 -0.02095,0.254689 -0.02242,0.499856 -0.0013,0.22405 -0.0082,0.423287 -0.01521,0.442748 -0.007,0.01946 -0.0307,0.04355 -0.05261,0.05353 -0.02301,0.01048 -0.03618,0.02766 -0.03118,0.04068 0.0138,0.03595 -0.0543,0.178008 -0.08534,0.178008 -0.02094,0 -0.02486,0.0098 -0.01677,0.04208 0.0078,0.03107 -0.0025,0.06113 -0.03953,0.114889 -0.04096,0.05954 -0.06237,0.07488 -0.117481,0.08419 -0.04314,0.0073 -0.07627,0.02493 -0.09206,0.04904 -0.05668,0.0865 0.02456,0.121008 0.23955,0.101741 0.103155,-0.0092 0.149321,-0.02344 0.243658,-0.07491 0.06401,-0.03493 0.141936,-0.06904 0.173159,-0.0758 0.03122,-0.0068 0.104872,-0.03388 0.163664,-0.06026 0.109909,-0.04931 0.153677,-0.05883 0.153677,-0.03343 0,0.02565 -0.08544,0.168366 -0.100801,0.168366 -0.0082,0 -0.0271,0.01874 -0.04211,0.04165 -0.05166,0.07884 0.01544,0.110332 0.209421,0.0983 0.05944,-0.0037 0.139067,-0.0068 0.176943,-0.0068 z m -0.213929,-0.46152 c -0.01403,-0.016 -0.03803,-0.0538 -0.05333,-0.08399 -0.0153,-0.03019 -0.03897,-0.05917 -0.05259,-0.0644 -0.01363,-0.0052 -0.04042,-0.04017 -0.05954,-0.07764 -0.02985,-0.05851 -0.0334,-0.08698 -0.02512,-0.201631 0.01096,-0.151937 0.07072,-0.432356 0.10312,-0.48396 0.03694,-0.05883 0.07456,-0.208538 0.0746,-0.296859 1.7e-5,-0.04635 -0.01225,-0.151214 -0.02727,-0.233027 -0.02157,-0.117507 -0.02363,-0.168149 -0.0098,-0.241093 0.04825,-0.255103 0.09481,-0.243228 0.224719,0.0573 0.04888,0.113071 0.05043,0.124685 0.05452,0.407363 0.0023,0.160036 0.01237,0.349502 0.02235,0.421037 0.0319,0.228667 0.02342,0.404359 -0.02503,0.518392 -0.02331,0.05487 -0.05002,0.125951 -0.05935,0.157958 -0.01793,0.06152 -0.09006,0.149643 -0.122475,0.149643 -0.01059,0 -0.03073,-0.01309 -0.04477,-0.0291 z M 88.840896,8.7429153 c 0,-0.1653715 0.03148,-0.220398 0.193925,-0.3389625 0.128161,-0.093542 0.210875,-0.1850342 0.293206,-0.3243233 0.02558,-0.043281 0.04886,-0.075929 0.05172,-0.072552 0.0029,0.00337 0.01006,0.03781 0.01599,0.076519 0.01053,0.068769 0.0094,0.070955 -0.04951,0.09557 -0.05034,0.021033 -0.05864,0.031376 -0.05026,0.062638 0.0055,0.020594 0.01014,0.064929 0.01026,0.098521 1.21e-4,0.040265 0.01407,0.077524 0.04084,0.109348 l 0.04062,0.048273 -0.03992,0.086171 c -0.04135,0.089241 -0.121534,0.2135951 -0.167146,0.2592069 -0.02013,0.020128 -0.06246,0.026187 -0.182956,0.026187 h -0.15677 z"
     style="display:inline;fill:#ffffff;stroke:#000000;stroke-width:0.0728941;stroke-miterlimit:4;stroke-dasharray:none;stroke-opacity:1" />
</svg>
