<?xml version="1.0" encoding="UTF-8" standalone="no"?>
<svg
   xmlns:dc="http://purl.org/dc/elements/1.1/"
   xmlns:cc="http://creativecommons.org/ns#"
   xmlns:rdf="http://www.w3.org/1999/02/22-rdf-syntax-ns#"
   xmlns:svg="http://www.w3.org/2000/svg"
   xmlns="http://www.w3.org/2000/svg"
   xmlns:xlink="http://www.w3.org/1999/xlink"
   xmlns:sodipodi="http://sodipodi.sourceforge.net/DTD/sodipodi-0.dtd"
   xmlns:inkscape="http://www.inkscape.org/namespaces/inkscape"
   width="1500"
   height="1000"
   viewBox="-4 -4 24 16"
   version="1.1"
   id="svg6797"
   sodipodi:docname="chile.svg"
   inkscape:version="0.92.1 r">
  <metadata
     id="metadata6803">
    <rdf:RDF>
      <cc:Work
         rdf:about="">
        <dc:format>image/svg+xml</dc:format>
        <dc:type
           rdf:resource="http://purl.org/dc/dcmitype/StillImage" />
        <dc:title></dc:title>
      </cc:Work>
    </rdf:RDF>
  </metadata>
  <defs
     id="defs6801">
    <clipPath
       clipPathUnits="userSpaceOnUse"
       id="clipPath21602">
      <path
         inkscape:connector-curvature="0"
         id="path21604"
         d="m 494,0 -204.96485,118.33683 -1.89921,232.28713 c 3.9e-4,-13.67524 1.3694,-27.31604 4.08654,-40.71864 -2.71714,13.4026 -4.08615,27.0434 -4.08654,40.71864 -7.8e-4,113.19929 91.76557,204.96564 204.96484,204.96485 113.19827,-6.3e-4 204.96304,-91.76659 204.96226,-204.96485 l 1.8992,-232.28713 z"
         style="opacity:1;fill:#000000;fill-opacity:1;stroke:none;stroke-width:20.14422417;stroke-miterlimit:4;stroke-dasharray:none;stroke-opacity:1" />
    </clipPath>
    <clipPath
       clipPathUnits="userSpaceOnUse"
       id="clipPath8343">
      <path
         inkscape:connector-curvature="0"
         id="path8345"
         d="m 2.5170659,-2.5128927 -3.36339294,1.94186054 -0.0311701,3.81173916 c 6.08e-6,-0.2244051 0.0224701,-0.448246 0.06706,-0.6681771 -0.0445899,0.2199311 -0.0670499,0.443772 -0.06706,0.6681771 -1.296e-5,1.8575549 1.50583696,3.3634042 3.36339294,3.3633912 1.8575381,-1e-5 3.3633621,-1.5058532 3.3633492,-3.3633912 l 0.03117,-3.81173916 z"
         style="display:inline;opacity:1;fill:#000000;fill-opacity:1;stroke:#000000;stroke-width:0.0646511;stroke-miterlimit:4;stroke-dasharray:none;stroke-opacity:1"
         inkscape:export-xdpi="96"
         inkscape:export-ydpi="96" />
    </clipPath>
  </defs>
  <sodipodi:namedview
     pagecolor="#ffffff"
     bordercolor="#666666"
     borderopacity="1"
     objecttolerance="10"
     gridtolerance="10"
     guidetolerance="10"
     inkscape:pageopacity="0"
     inkscape:pageshadow="2"
     inkscape:window-width="1598"
     inkscape:window-height="929"
     id="namedview6799"
     showgrid="false"
     inkscape:zoom="1.0017643"
     inkscape:cx="1885.3384"
     inkscape:cy="568.70648"
     inkscape:window-x="0"
     inkscape:window-y="23"
     inkscape:window-maximized="0"
     inkscape:current-layer="svg6797" />
  <g
     id="g8385"
     inkscape:export-filename="/Users/bmonro/chile.png"
     inkscape:export-xdpi="96"
     inkscape:export-ydpi="96">
    <path
       style="display:inline;opacity:1;fill:#000000;fill-rule:evenodd;stroke:none;stroke-width:0.02203725px;stroke-linecap:butt;stroke-linejoin:miter;stroke-opacity:1"
       d="m 32.076481,3.4909583 -1.75147,1.2666754 V 2.6269106 Z"
       id="path8204"
       inkscape:connector-curvature="0" />
    <path
       style="opacity:1;fill:#000000;fill-rule:evenodd;stroke:none;stroke-width:0.02203725px;stroke-linecap:butt;stroke-linejoin:miter;stroke-opacity:1"
       d="m 22.395045,3.3843319 c 0.98171,-0.9817089 0.98171,-0.9817089 0.98171,-0.9817089 l 0.774304,1.3411354 z"
       id="path8202"
       inkscape:connector-curvature="0" />
    <path
       inkscape:connector-curvature="0"
       style="color:#000000;font-style:normal;font-variant:normal;font-weight:normal;font-stretch:normal;font-size:medium;line-height:normal;font-family:sans-serif;text-indent:0;text-align:start;text-decoration:none;text-decoration-line:none;text-decoration-style:solid;text-decoration-color:#000000;letter-spacing:normal;word-spacing:normal;text-transform:none;writing-mode:lr-tb;direction:ltr;baseline-shift:baseline;text-anchor:start;white-space:normal;clip-rule:nonzero;display:inline;overflow:visible;visibility:visible;opacity:1;isolation:auto;mix-blend-mode:normal;color-interpolation:sRGB;color-interpolation-filters:linearRGB;solid-color:#000000;solid-opacity:1;fill:#000000;fill-opacity:1;fill-rule:nonzero;stroke:none;stroke-width:0.440745;stroke-linecap:butt;stroke-linejoin:miter;stroke-miterlimit:4;stroke-dasharray:none;stroke-dashoffset:0;stroke-opacity:1;color-rendering:auto;image-rendering:auto;shape-rendering:auto;text-rendering:auto;enable-background:accumulate"
       d="m 27.177919,-2.0906035 -0.110186,0.063615 -0.110186,0.063615 -3.581656,2.06788597 -0.03323,4.06681913 c -1.3e-5,0.00268 -3.9e-5,-0.00594 -3.9e-5,5.948e-4 v 3.879e-4 l -0.0018,0.2181781 h 0.01283 c 0.114402,1.9944062 1.770739,3.5855862 3.793075,3.585572 2.096086,-1.17e-5 3.804109,-1.7080498 3.804094,-3.8041367 l 0.0333,-4.06500485 -3.806203,-2.19752685 z"
       id="path8182" />
    <path
       inkscape:connector-curvature="0"
       style="color:#000000;font-style:normal;font-variant:normal;font-weight:normal;font-stretch:normal;font-size:medium;line-height:normal;font-family:sans-serif;text-indent:0;text-align:start;text-decoration:none;text-decoration-line:none;text-decoration-style:solid;text-decoration-color:#000000;letter-spacing:normal;word-spacing:normal;text-transform:none;writing-mode:lr-tb;direction:ltr;baseline-shift:baseline;text-anchor:start;white-space:normal;clip-rule:nonzero;display:inline;overflow:visible;visibility:visible;opacity:1;isolation:auto;mix-blend-mode:normal;color-interpolation:sRGB;color-interpolation-filters:linearRGB;solid-color:#000000;solid-opacity:1;fill:#ffffff;fill-opacity:1;fill-rule:nonzero;stroke:none;stroke-width:0.440745;stroke-linecap:butt;stroke-linejoin:miter;stroke-miterlimit:4;stroke-dasharray:none;stroke-dashoffset:0;stroke-opacity:1;color-rendering:auto;image-rendering:auto;shape-rendering:auto;text-rendering:auto;enable-background:accumulate"
       d="m 27.177919,-1.8361422 -0.110186,0.063615 -3.472503,2.00487317 -0.03219,3.93778083 h 3.8e-5 c 0,6.077e-4 -9e-5,0.0012 -9e-5,0.00181 -1.3e-5,1.9766543 1.60711,3.5837772 3.583765,3.5837643 1.976636,-1.16e-5 3.583735,-1.6071281 3.583721,-3.5837643 l 0.03224,-3.9383833 z"
       id="path8173" />
    <path
       inkscape:export-ydpi="96"
       inkscape:export-xdpi="96"
       style="display:inline;opacity:1;fill:#000000;fill-opacity:1;stroke:#000000;stroke-width:0.0646511;stroke-miterlimit:4;stroke-dasharray:none;stroke-opacity:1"
       d="m 27.177939,-1.5816784 -3.363392,1.94186042 -0.03117,3.81173988 c 6e-6,-0.2244052 0.02247,-0.4482455 0.06706,-0.6681769 -0.04459,0.2199314 -0.06705,0.4437717 -0.06706,0.6681769 -1.3e-5,1.8575554 1.505836,3.363405 3.363392,3.363392 1.857538,-1.03e-5 3.363362,-1.5058534 3.363349,-3.363392 l 0.03117,-3.81173988 z"
       id="path8151"
       inkscape:connector-curvature="0" />
    <path
       style="opacity:1;fill:#000000;fill-opacity:1;stroke:none;stroke-width:0.33055875;stroke-miterlimit:4;stroke-dasharray:none;stroke-opacity:1"
       d="m 25.165464,2.7458842 a 3.001106,3.5915935 42.430655 0 1 3.9e-5,-7.8e-6 3.001106,3.5915935 42.430655 0 0 -0.223726,0.2803504 3.001106,3.5915935 42.430655 0 1 0.223684,-0.2803426 z"
       id="path8149"
       inkscape:connector-curvature="0" />
    <path
       style="opacity:1;fill:#000000;fill-opacity:1;stroke:none;stroke-width:0.33055875;stroke-miterlimit:4;stroke-dasharray:none;stroke-opacity:1"
       d="M 24.428911,3.9550162 A 3.001106,3.5915935 42.430655 0 0 24.235183,4.6160827 3.001106,3.5915935 42.430655 0 1 24.428911,3.9550162 Z"
       id="path8144"
       inkscape:connector-curvature="0" />
    <g
       transform="translate(24.660874,0.9312149)"
       clip-path="url(#clipPath8343)"
       id="g8341">
      <g
         id="g8327"
         transform="matrix(1,0,0,1.0888629,0,0.2233028)">
        <path
           id="path6780"
           d="M 11.713501,6.6835427 H -2.0811518 V -2.5128926 H 11.713501 Z"
           inkscape:connector-curvature="0"
           style="fill:#d52b1e;stroke-width:0.57477719" />
        <path
           id="path6782"
           d="M 2.5170659,2.085325 H 11.713501 V -2.5128926 H -2.0811518 Z"
           inkscape:connector-curvature="0"
           style="fill:#ffffff;stroke-width:0.57477719" />
        <path
           id="path6784"
           d="M 2.5170659,2.085325 H -2.0811518 V -2.5128926 H 2.5170659 Z"
           inkscape:connector-curvature="0"
           style="fill:#0039a6;stroke-width:0.57477719" />
      </g>
      <g
         id="g8322"
         transform="translate(0.03022442,0.35718325)">
        <g
           transform="matrix(0.57477721,0,0,0.57477721,0.21795704,-0.21378379)"
           id="f">
          <g
             id="t">
            <path
               style="fill:#ffffff"
               inkscape:connector-curvature="0"
               id="o"
               transform="rotate(18,0,-2)"
               d="M 0,-2 V 0 H 1 Z" />
            <use
               height="100%"
               width="100%"
               y="0"
               x="0"
               id="use6787"
               transform="scale(-1,1)"
               xlink:href="#o" />
          </g>
          <use
             height="100%"
             width="100%"
             y="0"
             x="0"
             id="use6790"
             transform="rotate(72)"
             xlink:href="#t" />
        </g>
        <use
           id="use6793"
           transform="matrix(0.17761593,-0.54664561,0.54664561,0.17761593,0.21795704,-0.21378379)"
           xlink:href="#t"
           x="0"
           y="0"
           width="100%"
           height="100%" />
        <use
           id="use6795"
           transform="rotate(144,0.21795704,-0.21378379)"
           xlink:href="#f"
           x="0"
           y="0"
           width="100%"
           height="100%" />
      </g>
    </g>
    <path
       style="color:#000000;font-style:normal;font-variant:normal;font-weight:normal;font-stretch:normal;font-size:medium;line-height:normal;font-family:sans-serif;text-indent:0;text-align:start;text-decoration:none;text-decoration-line:none;text-decoration-style:solid;text-decoration-color:#000000;letter-spacing:normal;word-spacing:normal;text-transform:none;writing-mode:lr-tb;direction:ltr;baseline-shift:baseline;text-anchor:start;white-space:normal;clip-rule:nonzero;display:inline;overflow:visible;visibility:visible;opacity:1;isolation:auto;mix-blend-mode:normal;color-interpolation:sRGB;color-interpolation-filters:linearRGB;solid-color:#000000;solid-opacity:1;fill:#000000;fill-opacity:1;fill-rule:nonzero;stroke:none;stroke-width:0.52889395;stroke-linecap:butt;stroke-linejoin:miter;stroke-miterlimit:4;stroke-dasharray:none;stroke-dashoffset:0;stroke-opacity:1;color-rendering:auto;image-rendering:auto;shape-rendering:auto;text-rendering:auto;enable-background:accumulate"
       d="M 22.372857,3.4028492 V 3.6609856 5.2272373 L 32.076481,3.4819757 V 1.6575885 Z"
       id="path8197"
       inkscape:connector-curvature="0" />
    <rect
       style="opacity:1;fill:#ffffff;fill-opacity:1;stroke:none;stroke-width:0.44074491;stroke-miterlimit:4;stroke-dasharray:none;stroke-opacity:1"
       id="rect8189"
       width="9.3347368"
       height="1.3081291"
       x="22.994129"
       y="7.6848822"
       transform="matrix(0.9842079,-0.17701639,0,1,0,0)" />
    <text
       transform="matrix(1.0045873,-0.17903525,0,0.99543364,0,0)"
       x="22.690601"
       y="8.6868429"
       xml:space="preserve"
       style="font-style:normal;font-variant:normal;font-weight:bold;font-stretch:normal;font-size:0.23649879px;line-height:0%;font-family:Aharoni;-inkscape-font-specification:'Aharoni, Bold';text-align:start;letter-spacing:0px;word-spacing:0px;writing-mode:lr-tb;text-anchor:start;opacity:1;fill:#000000;fill-opacity:1;stroke:none;stroke-width:0.01970824px;stroke-linecap:butt;stroke-linejoin:miter;stroke-opacity:1"
       id="text8185"><tspan
         style="font-size:0.90524203px;line-height:1.25;font-family:sans-serif;stroke-width:0.01970824px"
         sodipodi:role="line"
         id="tspan8187"
         x="22.690601"
         y="8.6868429">BARRA TRIFECTA</tspan></text>
    <g
       style="font-style:normal;font-weight:normal;font-size:35.39293289px;line-height:125%;font-family:sans-serif;letter-spacing:9.21000004px;word-spacing:0px;display:inline;opacity:1;fill:#000000;fill-opacity:1;stroke:none;stroke-width:1px;stroke-linecap:butt;stroke-linejoin:miter;stroke-opacity:1"
       id="text13433"
       transform="matrix(0.02203725,0,0,0.02203725,16.099639,-10.114403)">
      <path
         inkscape:connector-curvature="0"
         d="m 436.31693,735.62878 -24.37274,12.48454 -3.34347,-3.10426 10.64425,-25.23082 2.68491,2.49282 -9.48932,22.08195 21.31811,-11.09945 z"
         style="letter-spacing:9.21000004px;fill:#000000"
         id="path13443" />
      <path
         inkscape:connector-curvature="0"
         d="m 437.63492,766.33032 -8.74449,-5.17618 1.33807,-2.26048 2.89995,1.71659 10.4316,-17.62282 -2.89995,-1.71659 1.33806,-2.26048 8.74449,5.17618 -1.33807,2.26048 -2.89995,-1.71659 -10.4316,17.62282 2.89995,1.71659 z"
         style="letter-spacing:9.21000004px;fill:#000000"
         id="path13445" />
      <path
         inkscape:connector-curvature="0"
         d="m 471.27353,771.84199 q -0.47315,1.42711 -1.60797,2.59845 -1.11842,1.17677 -2.63676,1.74757 -1.66036,0.61475 -3.61133,0.62337 -1.93458,0.014 -4.39513,-0.80173 -2.64099,-0.8756 -4.5939,-2.06928 -1.93651,-1.18824 -3.79733,-2.87938 l 1.34875,-4.0681 0.22965,0.0761 q 1.3424,2.15649 3.49277,3.79798 2.15038,1.64148 4.28286,2.34849 3.01827,1.00069 5.0667,0.42356 2.06483,-0.57168 2.69026,-2.4581 0.53841,-1.62397 -0.01,-2.66143 -0.53176,-1.03202 -2.01432,-1.99692 -1.12151,-0.73596 -2.49433,-1.4278 -1.35641,-0.6864 -2.8552,-1.54745 -3.01951,-1.76578 -4.04497,-3.94464 -1.00362,-2.18983 -0.11714,-4.86363 1.017,-3.06748 4.25596,-4.16023 3.2444,-1.10916 7.23049,0.2124 2.57537,0.85385 4.56109,2.0584 1.98573,1.20456 3.4032,2.47561 l -1.27261,3.83845 -0.22965,-0.0761 q -1.00274,-1.64333 -3.02724,-3.17026 -2.00265,-1.53789 -4.38118,-2.32647 -2.60818,-0.86473 -4.55828,-0.30962 -1.93369,0.56054 -2.4993,2.26652 -0.50578,1.52554 -0.007,2.65599 0.49913,1.13044 2.33169,2.2478 0.9737,0.57772 2.80056,1.54753 1.82686,0.96982 3.05775,1.76026 2.48372,1.62455 3.37759,3.54131 0.89388,1.91676 0.0237,4.54135 z"
         style="letter-spacing:9.21000004px;fill:#000000"
         id="path13447" />
      <path
         inkscape:connector-curvature="0"
         d="m 503.63146,760.34113 -9.16297,-0.75308 -1.85865,22.61463 -3.41028,-0.28028 1.85865,-22.61463 -9.16297,-0.75309 0.24914,-3.03136 21.73622,1.78646 z"
         style="letter-spacing:9.21000004px;fill:#000000"
         id="path13449" />
      <path
         inkscape:connector-curvature="0"
         d="m 534.56059,779.07538 -3.60229,0.56569 -3.60519,-6.69366 -10.99468,1.72654 -1.37998,7.4765 -3.43157,0.53888 5.26133,-26.87402 4.50713,-0.70777 z m -8.70466,-8.86676 -6.41571,-11.78025 -2.5132,13.1824 z"
         style="letter-spacing:9.21000004px;fill:#000000"
         id="path13451" />
      <path
         inkscape:connector-curvature="0"
         d="m 551.35697,767.95234 -0.5501,12.31175 -2.3597,0.89332 -1.19543,-11.65095 z"
         style="letter-spacing:9.21000004px;fill:#000000"
         id="path13453" />
      <path
         inkscape:connector-curvature="0"
         d="m 583.00563,753.73556 q -0.57575,0.86255 -1.03407,1.5881 -0.44379,0.71622 -1.27609,1.72295 -0.70967,0.84586 -1.63534,1.70717 -0.90179,0.86651 -2.15243,1.66949 -2.35585,1.51259 -4.71014,2.1 -2.34908,0.56353 -4.67991,0.0679 -2.28308,-0.48517 -4.43156,-2.10415 -2.15781,-1.63353 -3.96918,-4.45473 -1.718,-2.67579 -2.31565,-5.26995 -0.59766,-2.59415 -0.10621,-4.9634 0.47584,-2.29762 1.94832,-4.29043 1.48703,-2.00214 3.87197,-3.5334 1.74508,-1.12043 3.74638,-1.8098 2.01585,-0.69871 4.82062,-1.00032 l 2.19419,3.41745 -0.21814,0.14005 q -2.75041,-0.34941 -4.94886,0.0969 -2.19846,0.44628 -4.2053,1.73478 -1.64328,1.05507 -2.62116,2.4428 -0.97268,1.36385 -1.28624,3.14653 -0.30315,1.73492 0.20345,3.77143 0.51181,2.01263 1.91235,4.19397 1.4659,2.28315 3.13175,3.53428 1.68039,1.24179 3.31765,1.64872 1.7089,0.42254 3.39746,0.0777 1.69377,-0.36869 3.20617,-1.33974 2.07955,-1.33518 3.43983,-3.21487 1.36028,-1.87969 2.03037,-4.32257 l 0.20359,-0.13071 2.16618,3.37381 z"
         style="letter-spacing:9.21000004px;fill:#000000"
         id="path13455" />
      <path
         inkscape:connector-curvature="0"
         d="m 608.56147,731.21252 -2.49215,2.66189 -6.95992,-3.05974 -7.60638,8.12446 3.51106,6.74351 -2.37404,2.53574 -12.38303,-24.42447 3.11815,-3.33053 z m -12.3172,-1.6362 -12.30474,-5.34127 6.1275,11.93925 z"
         style="letter-spacing:9.21000004px;fill:#000000"
         id="path13457" />
    </g>
    <g
       id="g13501"
       style="display:inline;opacity:1;fill:#000000"
       transform="matrix(0.00210423,0,0,0.00210423,26.32485,4.5866173)">
      <path
         style="fill:#000000;fill-opacity:1;fill-rule:nonzero;stroke:none"
         d="M 733.21972,-9.8409314 612.17479,111.20399 l -5.83983,-5.84472 -19.917,19.92187 12.73437,12.73438 -411.49901,411.49901 -12.73438,-12.73437 -19.92187,19.917 5.84472,5.83984 -121.044915,121.04495 22.9834,22.9834 121.044915,-121.04495 5.83984,5.84472 19.91699,-19.92187 -12.73438,-12.73438 411.49903,-411.49903 12.73437,12.73438 19.92188,-19.91699 -5.84473,-5.83984 121.04493,-121.044921 z m 0,0"
         id="path8425"
         inkscape:connector-curvature="0" />
      <path
         style="fill:#000000;fill-opacity:1;fill-rule:nonzero;stroke:none"
         d="m 756.20312,683.58195 -121.04493,-121.04496 5.84473,-5.83983 -19.92188,-19.917 -12.73437,12.73437 -411.49903,-411.49901 12.73438,-12.73438 -19.91699,-19.92187 -5.83984,5.84472 L 62.780275,-9.8409314 39.796875,13.142469 160.84179,134.18739 l -5.84472,5.83984 19.92187,19.91699 12.73438,-12.73438 411.49901,411.49903 -12.73437,12.73437 19.917,19.92188 5.83983,-5.84472 121.04493,121.04495 z m 0,0"
         id="path8427"
         inkscape:connector-curvature="0" />
    </g>
    <circle
       r="1.293022"
       cy="0.87895179"
       cx="27.164291"
       id="path22523"
       style="display:inline;fill:#000000;fill-opacity:1;stroke:#000000;stroke-width:0.01640845;stroke-miterlimit:4;stroke-dasharray:none;stroke-opacity:1" />
    <path
       style="display:inline;fill:#ffffff;stroke:#000000;stroke-width:0.02332612;stroke-miterlimit:4;stroke-dasharray:none;stroke-opacity:1"
       d="M 27.052197,2.1533387 C 26.900642,2.140799 26.740368,2.0975539 26.606625,2.0331156 26.267486,1.8697155 26.022463,1.580812 25.919651,1.2231122 c -0.06037,-0.2100485 -0.06393,-0.46843188 -0.0094,-0.68136196 0.0439,-0.17135554 0.134842,-0.35100866 0.250593,-0.49506282 0.07274,-0.09052486 0.200428,-0.20391513 0.303393,-0.2694182 0.149419,-0.0950557 0.320142,-0.15952323 0.497482,-0.18785567 0.08241,-0.0131659 0.261196,-0.0160683 0.350468,-0.005689 0.425605,0.0494829 0.794716,0.3024897 0.993164,0.68076484 0.190011,0.36219214 0.196906,0.79822681 0.01844,1.16612911 -0.196088,0.4042275 -0.591628,0.6796473 -1.034851,0.7205831 -0.05622,0.00519 -0.185722,0.00636 -0.236769,0.00214 z m 0.160375,-0.1932766 c 0.02321,-3.88e-5 0.04357,-0.012592 0.08799,-0.05425 l 0.02093,-0.019627 -0.0035,-0.033579 c -0.0019,-0.018469 -0.007,-0.047624 -0.01125,-0.064791 -0.01069,-0.042981 -0.0059,-0.075943 0.02472,-0.1709738 0.04785,-0.1483841 0.0516,-0.1846574 0.0259,-0.2500712 -0.01798,-0.045757 -0.01614,-0.1092935 0.0052,-0.1782421 0.0086,-0.027801 0.01846,-0.064314 0.02195,-0.08114 0.0035,-0.016826 0.0089,-0.030594 0.01196,-0.030594 0.0031,0 0.01481,0.0083 0.02604,0.018436 0.02189,0.019773 0.06137,0.041418 0.0873,0.047851 0.0088,0.00218 0.0585,0.0093 0.110483,0.015832 0.143946,0.018078 0.185012,0.00827 0.256778,-0.061316 0.06388,-0.061942 0.09542,-0.13975592 0.09469,-0.2336288 -6.67e-4,-0.0859172 -0.03529,-0.16802394 -0.09346,-0.22164323 -0.04697,-0.0432941 -0.09448,-0.0569562 -0.22749,-0.0654198 -0.07842,-0.00499 -0.09757,-0.004701 -0.121365,0.001834 -0.02305,0.006331 -0.02875,0.006477 -0.03092,7.9521e-4 -0.0045,-0.0117787 0.01113,-0.0409464 0.04459,-0.0831146 0.03854,-0.0485667 0.04493,-0.0604649 0.06608,-0.1230657 0.01439,-0.0425837 0.01607,-0.0535466 0.01365,-0.0889091 -0.0034,-0.0489992 -0.02255,-0.0993545 -0.049,-0.12863824 -0.03063,-0.0339087 -0.02276,-0.05983886 0.02732,-0.08991946 0.04437,-0.026655 0.05764,-0.05442808 0.05764,-0.12067581 0,-0.05491374 -0.0074,-0.07139408 -0.03932,-0.08768887 -0.0095,-0.00485 -0.02131,-0.012364 -0.02623,-0.0166968 -0.01648,-0.0145178 -0.06107,-0.0314365 -0.08494,-0.0322279 -0.02491,-8.2624e-4 -0.02998,0.003276 -0.03519,0.0284801 -0.0017,0.00841 -0.01378,0.0211285 -0.03276,0.0345843 -0.04025,0.02854359 -0.04491,0.03339837 -0.04509,0.04693593 -9e-5,0.0063751 -0.0069,0.03122143 -0.0151,0.05521359 -0.0137,0.03995153 -0.01436,0.04532443 -0.0079,0.06384813 0.01028,0.02951827 0.0089,0.05099433 -0.0042,0.06505543 -0.01843,0.0197857 -0.05865,0.042961 -0.07456,0.042961 -0.0081,0 -0.02858,0.005125 -0.04551,0.0113879 -0.03968,0.0146733 -0.101795,0.0766555 -0.1247,0.12442854 -0.01642,0.0342507 -0.06428,0.10038738 -0.113485,0.15682016 -0.03995,0.0458189 -0.05677,0.0745198 -0.112246,0.19154376 -0.02567,0.0541378 -0.05073,0.10441799 -0.05569,0.11173391 -0.005,0.007316 -0.01426,0.0236341 -0.02065,0.0362625 -0.0064,0.0126287 -0.01428,0.022076 -0.01752,0.0209942 -0.0032,-0.001082 -0.0099,-0.0165733 -0.01479,-0.0344258 -0.01434,-0.0523881 -0.03708,-0.0919549 -0.07443,-0.12952667 -0.06139,-0.0617462 -0.101594,-0.0730927 -0.225329,-0.0635924 -0.129877,0.009972 -0.165805,0.0222375 -0.214949,0.0733853 -0.08377,0.0871804 -0.09938,0.23225649 -0.03749,0.34837646 0.02269,0.0425687 0.07942,0.0951249 0.119362,0.11058046 0.02849,0.011025 0.0389,0.011953 0.124212,0.011071 0.05121,-5.289e-4 0.107477,-0.00349 0.125035,-0.00658 0.09508,-0.016736 0.172671,-0.1043924 0.19026,-0.21493736 0.0035,-0.02193 0.0081,-0.0398725 0.0103,-0.0398725 0.0022,0 0.01372,0.005088 0.02565,0.0113064 0.03055,0.015924 0.04694,0.0145761 0.06472,-0.005321 0.01456,-0.0162939 0.01582,-0.0166271 0.06282,-0.0166271 0.02965,0 0.04796,0.002111 0.04796,0.005533 0,0.003043 -0.0049,0.0152267 -0.01099,0.0270754 -0.006,0.0118486 -0.01848,0.0530549 -0.02764,0.0915696 -0.01821,0.0766087 -0.02168,0.15489936 -0.0089,0.20107916 0.0035,0.012786 0.0069,0.048387 0.0074,0.079114 5.48e-4,0.030727 0.0039,0.077265 0.0074,0.1034189 0.005,0.03705 0.005,0.054089 2.6e-5,0.077149 -0.0038,0.017813 -0.0067,0.081501 -0.0072,0.1599541 -4.29e-4,0.071696 -0.0026,0.1354515 -0.0049,0.1416791 -0.0022,0.00623 -0.0098,0.013936 -0.01683,0.01713 -0.0074,0.00336 -0.01158,0.00885 -0.01,0.013017 0.0044,0.011505 -0.01738,0.056962 -0.02731,0.056962 -0.0067,0 -0.008,0.00315 -0.0054,0.013466 0.0025,0.00994 -8.16e-4,0.019562 -0.01265,0.036764 -0.01311,0.019053 -0.01996,0.023962 -0.03759,0.026942 -0.01381,0.00233 -0.0244,0.00798 -0.02946,0.015693 -0.01814,0.027681 0.0079,0.038722 0.07666,0.032557 0.03301,-0.00296 0.04778,-0.0075 0.07797,-0.02397 0.02048,-0.011177 0.04542,-0.022092 0.05541,-0.024256 0.01,-0.00216 0.03356,-0.010842 0.05237,-0.019283 0.03517,-0.01578 0.04918,-0.018826 0.04918,-0.010697 0,0.00821 -0.02734,0.053877 -0.03226,0.053877 -0.0026,0 -0.0087,0.006 -0.01348,0.013328 -0.01653,0.025228 0.0049,0.035306 0.06702,0.031457 0.01902,-0.00118 0.0445,-0.00216 0.05662,-0.00218 z m -0.06846,-0.1476864 c -0.0045,-0.00512 -0.01217,-0.017216 -0.01706,-0.026877 -0.0049,-0.00966 -0.01247,-0.018935 -0.01683,-0.020609 -0.0044,-0.00167 -0.01294,-0.012853 -0.01905,-0.024844 -0.0096,-0.018722 -0.01069,-0.027834 -0.008,-0.064522 0.0035,-0.04862 0.02263,-0.1383539 0.033,-0.1548672 0.01182,-0.018825 0.02386,-0.066732 0.02387,-0.094995 5e-6,-0.014832 -0.0039,-0.048388 -0.0087,-0.074569 -0.0069,-0.037602 -0.0076,-0.053808 -0.0031,-0.07715 0.01544,-0.081633 0.03034,-0.077833 0.07191,0.018337 0.01564,0.036183 0.01614,0.039899 0.01744,0.1303563 7.41e-4,0.051211 0.004,0.1118405 0.0072,0.1347317 0.01021,0.073173 0.0075,0.1293949 -0.008,0.1658857 -0.0075,0.017558 -0.01601,0.040304 -0.01899,0.050546 -0.0057,0.019687 -0.02882,0.047886 -0.03919,0.047886 -0.0034,0 -0.0098,-0.00419 -0.01432,-0.00931 z M 26.921841,0.77025025 c 0,-0.0529189 0.01007,-0.0705274 0.06206,-0.108468 0.04101,-0.0299336 0.06748,-0.059211 0.09383,-0.10378351 0.0082,-0.0138498 0.01563,-0.0242972 0.01655,-0.0232167 9.17e-4,0.00108 0.0032,0.0120993 0.0051,0.0244861 0.0034,0.0220062 0.003,0.0227056 -0.01585,0.0305826 -0.01611,0.00673 -0.01876,0.0100404 -0.01608,0.0200443 0.0018,0.00659 0.0032,0.0207773 0.0033,0.0315267 3.9e-5,0.0128847 0.0045,0.0248077 0.01307,0.0349914 l 0.013,0.0154472 -0.01277,0.0275746 c -0.01323,0.0285572 -0.03889,0.0683504 -0.05349,0.0829462 -0.0064,0.006441 -0.01999,0.00838 -0.05855,0.00838 h -0.05017 z"
       id="path13516"
       inkscape:connector-curvature="0" />
  </g>
</svg>
